%TF.GenerationSoftware,KiCad,Pcbnew,7.0.8*%
%TF.CreationDate,2024-10-30T19:04:05-07:00*%
%TF.ProjectId,ECE196Team13,45434531-3936-4546-9561-6d31332e6b69,1*%
%TF.SameCoordinates,Original*%
%TF.FileFunction,Soldermask,Bot*%
%TF.FilePolarity,Negative*%
%FSLAX46Y46*%
G04 Gerber Fmt 4.6, Leading zero omitted, Abs format (unit mm)*
G04 Created by KiCad (PCBNEW 7.0.8) date 2024-10-30 19:04:05*
%MOMM*%
%LPD*%
G01*
G04 APERTURE LIST*
%ADD10C,0.010000*%
%ADD11C,1.100000*%
%ADD12O,1.900000X3.500000*%
%ADD13C,1.252400*%
G04 APERTURE END LIST*
%TO.C,I1*%
D10*
X136229500Y-48251000D02*
X136260500Y-48253000D01*
X136291500Y-48257000D01*
X136322500Y-48263000D01*
X136353500Y-48271000D01*
X136383500Y-48279000D01*
X136413500Y-48290000D01*
X136442500Y-48302000D01*
X136471500Y-48316000D01*
X136498500Y-48331000D01*
X136525500Y-48347000D01*
X136551500Y-48365000D01*
X136576500Y-48384000D01*
X136600500Y-48405000D01*
X136623500Y-48426000D01*
X136645500Y-48449000D01*
X136665500Y-48473000D01*
X136684500Y-48498000D01*
X136702500Y-48524000D01*
X136719500Y-48551000D01*
X136734500Y-48579000D01*
X136747500Y-48607000D01*
X136759500Y-48637000D01*
X136770500Y-48666000D01*
X136779500Y-48697000D01*
X136786500Y-48727000D01*
X136792500Y-48758000D01*
X136796500Y-48790000D01*
X136799500Y-48821000D01*
X136800500Y-48850000D01*
X136799500Y-48884000D01*
X136796500Y-48916000D01*
X136792500Y-48948000D01*
X136786500Y-48979000D01*
X136779500Y-49010000D01*
X136770500Y-49040000D01*
X136759500Y-49070000D01*
X136747500Y-49100000D01*
X136733500Y-49128000D01*
X136718500Y-49156000D01*
X136701500Y-49183000D01*
X136683500Y-49210000D01*
X136664500Y-49235000D01*
X136643500Y-49259000D01*
X136622500Y-49282000D01*
X136599500Y-49304000D01*
X136574500Y-49325000D01*
X136549500Y-49344000D01*
X136523500Y-49362000D01*
X136496500Y-49379000D01*
X136468500Y-49394000D01*
X136439500Y-49407000D01*
X136410500Y-49420000D01*
X136380500Y-49430000D01*
X136349500Y-49439000D01*
X136318500Y-49447000D01*
X136287500Y-49453000D01*
X136256500Y-49457000D01*
X136224500Y-49459000D01*
X136195500Y-49460000D01*
X135304500Y-49460000D01*
X135275500Y-49459000D01*
X135243500Y-49457000D01*
X135212500Y-49453000D01*
X135181500Y-49447000D01*
X135150500Y-49439000D01*
X135119500Y-49430000D01*
X135089500Y-49420000D01*
X135060500Y-49407000D01*
X135031500Y-49394000D01*
X135003500Y-49379000D01*
X134976500Y-49362000D01*
X134950500Y-49344000D01*
X134925500Y-49325000D01*
X134900500Y-49304000D01*
X134877500Y-49282000D01*
X134856500Y-49259000D01*
X134835500Y-49235000D01*
X134816500Y-49210000D01*
X134798500Y-49183000D01*
X134781500Y-49156000D01*
X134766500Y-49128000D01*
X134752500Y-49100000D01*
X134740500Y-49070000D01*
X134729500Y-49040000D01*
X134720500Y-49010000D01*
X134713500Y-48979000D01*
X134707500Y-48948000D01*
X134703500Y-48916000D01*
X134700500Y-48884000D01*
X134699500Y-48850000D01*
X134700500Y-48821000D01*
X134703500Y-48790000D01*
X134707500Y-48758000D01*
X134713500Y-48727000D01*
X134720500Y-48697000D01*
X134729500Y-48666000D01*
X134740500Y-48637000D01*
X134752500Y-48607000D01*
X134765500Y-48579000D01*
X134780500Y-48551000D01*
X134797500Y-48524000D01*
X134815500Y-48498000D01*
X134834500Y-48473000D01*
X134854500Y-48449000D01*
X134876500Y-48426000D01*
X134899500Y-48405000D01*
X134923500Y-48384000D01*
X134948500Y-48365000D01*
X134974500Y-48347000D01*
X135001500Y-48331000D01*
X135028500Y-48316000D01*
X135057500Y-48302000D01*
X135086500Y-48290000D01*
X135116500Y-48279000D01*
X135146500Y-48271000D01*
X135177500Y-48263000D01*
X135208500Y-48257000D01*
X135239500Y-48253000D01*
X135270500Y-48251000D01*
X135304500Y-48250000D01*
X135305000Y-48250000D01*
X136195500Y-48250000D01*
X136229500Y-48251000D01*
G36*
X136229500Y-48251000D02*
G01*
X136260500Y-48253000D01*
X136291500Y-48257000D01*
X136322500Y-48263000D01*
X136353500Y-48271000D01*
X136383500Y-48279000D01*
X136413500Y-48290000D01*
X136442500Y-48302000D01*
X136471500Y-48316000D01*
X136498500Y-48331000D01*
X136525500Y-48347000D01*
X136551500Y-48365000D01*
X136576500Y-48384000D01*
X136600500Y-48405000D01*
X136623500Y-48426000D01*
X136645500Y-48449000D01*
X136665500Y-48473000D01*
X136684500Y-48498000D01*
X136702500Y-48524000D01*
X136719500Y-48551000D01*
X136734500Y-48579000D01*
X136747500Y-48607000D01*
X136759500Y-48637000D01*
X136770500Y-48666000D01*
X136779500Y-48697000D01*
X136786500Y-48727000D01*
X136792500Y-48758000D01*
X136796500Y-48790000D01*
X136799500Y-48821000D01*
X136800500Y-48850000D01*
X136799500Y-48884000D01*
X136796500Y-48916000D01*
X136792500Y-48948000D01*
X136786500Y-48979000D01*
X136779500Y-49010000D01*
X136770500Y-49040000D01*
X136759500Y-49070000D01*
X136747500Y-49100000D01*
X136733500Y-49128000D01*
X136718500Y-49156000D01*
X136701500Y-49183000D01*
X136683500Y-49210000D01*
X136664500Y-49235000D01*
X136643500Y-49259000D01*
X136622500Y-49282000D01*
X136599500Y-49304000D01*
X136574500Y-49325000D01*
X136549500Y-49344000D01*
X136523500Y-49362000D01*
X136496500Y-49379000D01*
X136468500Y-49394000D01*
X136439500Y-49407000D01*
X136410500Y-49420000D01*
X136380500Y-49430000D01*
X136349500Y-49439000D01*
X136318500Y-49447000D01*
X136287500Y-49453000D01*
X136256500Y-49457000D01*
X136224500Y-49459000D01*
X136195500Y-49460000D01*
X135304500Y-49460000D01*
X135275500Y-49459000D01*
X135243500Y-49457000D01*
X135212500Y-49453000D01*
X135181500Y-49447000D01*
X135150500Y-49439000D01*
X135119500Y-49430000D01*
X135089500Y-49420000D01*
X135060500Y-49407000D01*
X135031500Y-49394000D01*
X135003500Y-49379000D01*
X134976500Y-49362000D01*
X134950500Y-49344000D01*
X134925500Y-49325000D01*
X134900500Y-49304000D01*
X134877500Y-49282000D01*
X134856500Y-49259000D01*
X134835500Y-49235000D01*
X134816500Y-49210000D01*
X134798500Y-49183000D01*
X134781500Y-49156000D01*
X134766500Y-49128000D01*
X134752500Y-49100000D01*
X134740500Y-49070000D01*
X134729500Y-49040000D01*
X134720500Y-49010000D01*
X134713500Y-48979000D01*
X134707500Y-48948000D01*
X134703500Y-48916000D01*
X134700500Y-48884000D01*
X134699500Y-48850000D01*
X134700500Y-48821000D01*
X134703500Y-48790000D01*
X134707500Y-48758000D01*
X134713500Y-48727000D01*
X134720500Y-48697000D01*
X134729500Y-48666000D01*
X134740500Y-48637000D01*
X134752500Y-48607000D01*
X134765500Y-48579000D01*
X134780500Y-48551000D01*
X134797500Y-48524000D01*
X134815500Y-48498000D01*
X134834500Y-48473000D01*
X134854500Y-48449000D01*
X134876500Y-48426000D01*
X134899500Y-48405000D01*
X134923500Y-48384000D01*
X134948500Y-48365000D01*
X134974500Y-48347000D01*
X135001500Y-48331000D01*
X135028500Y-48316000D01*
X135057500Y-48302000D01*
X135086500Y-48290000D01*
X135116500Y-48279000D01*
X135146500Y-48271000D01*
X135177500Y-48263000D01*
X135208500Y-48257000D01*
X135239500Y-48253000D01*
X135270500Y-48251000D01*
X135304500Y-48250000D01*
X135305000Y-48250000D01*
X136195500Y-48250000D01*
X136229500Y-48251000D01*
G37*
X136224500Y-56591000D02*
X136256500Y-56593000D01*
X136287500Y-56597000D01*
X136318500Y-56603000D01*
X136349500Y-56611000D01*
X136380500Y-56620000D01*
X136410500Y-56630000D01*
X136439500Y-56643000D01*
X136468500Y-56656000D01*
X136496500Y-56671000D01*
X136523500Y-56688000D01*
X136549500Y-56706000D01*
X136574500Y-56725000D01*
X136599500Y-56746000D01*
X136622500Y-56768000D01*
X136643500Y-56791000D01*
X136664500Y-56815000D01*
X136683500Y-56840000D01*
X136701500Y-56867000D01*
X136718500Y-56894000D01*
X136733500Y-56922000D01*
X136747500Y-56950000D01*
X136759500Y-56980000D01*
X136770500Y-57010000D01*
X136779500Y-57040000D01*
X136786500Y-57071000D01*
X136792500Y-57102000D01*
X136796500Y-57134000D01*
X136799500Y-57166000D01*
X136800500Y-57200000D01*
X136799500Y-57229000D01*
X136796500Y-57260000D01*
X136792500Y-57292000D01*
X136786500Y-57323000D01*
X136779500Y-57353000D01*
X136770500Y-57384000D01*
X136759500Y-57413000D01*
X136747500Y-57443000D01*
X136734500Y-57471000D01*
X136719500Y-57499000D01*
X136702500Y-57526000D01*
X136684500Y-57552000D01*
X136665500Y-57577000D01*
X136645500Y-57601000D01*
X136623500Y-57624000D01*
X136600500Y-57645000D01*
X136576500Y-57666000D01*
X136551500Y-57685000D01*
X136525500Y-57703000D01*
X136498500Y-57719000D01*
X136471500Y-57734000D01*
X136442500Y-57748000D01*
X136413500Y-57760000D01*
X136383500Y-57771000D01*
X136353500Y-57779000D01*
X136322500Y-57787000D01*
X136291500Y-57793000D01*
X136260500Y-57797000D01*
X136229500Y-57799000D01*
X136195500Y-57800000D01*
X135304500Y-57800000D01*
X135270500Y-57799000D01*
X135239500Y-57797000D01*
X135208500Y-57793000D01*
X135177500Y-57787000D01*
X135146500Y-57779000D01*
X135116500Y-57771000D01*
X135086500Y-57760000D01*
X135057500Y-57748000D01*
X135028500Y-57734000D01*
X135001500Y-57719000D01*
X134974500Y-57703000D01*
X134948500Y-57685000D01*
X134923500Y-57666000D01*
X134899500Y-57645000D01*
X134876500Y-57624000D01*
X134854500Y-57601000D01*
X134834500Y-57577000D01*
X134815500Y-57552000D01*
X134797500Y-57526000D01*
X134780500Y-57499000D01*
X134765500Y-57471000D01*
X134752500Y-57443000D01*
X134740500Y-57413000D01*
X134729500Y-57384000D01*
X134720500Y-57353000D01*
X134713500Y-57323000D01*
X134707500Y-57292000D01*
X134703500Y-57260000D01*
X134700500Y-57229000D01*
X134699500Y-57200000D01*
X134700500Y-57166000D01*
X134703500Y-57134000D01*
X134707500Y-57102000D01*
X134713500Y-57071000D01*
X134720500Y-57040000D01*
X134729500Y-57010000D01*
X134740500Y-56980000D01*
X134752500Y-56950000D01*
X134766500Y-56922000D01*
X134781500Y-56894000D01*
X134798500Y-56867000D01*
X134816500Y-56840000D01*
X134835500Y-56815000D01*
X134856500Y-56791000D01*
X134877500Y-56768000D01*
X134900500Y-56746000D01*
X134925500Y-56725000D01*
X134950500Y-56706000D01*
X134976500Y-56688000D01*
X135003500Y-56671000D01*
X135031500Y-56656000D01*
X135060500Y-56643000D01*
X135089500Y-56630000D01*
X135119500Y-56620000D01*
X135150500Y-56611000D01*
X135181500Y-56603000D01*
X135212500Y-56597000D01*
X135243500Y-56593000D01*
X135275500Y-56591000D01*
X135304500Y-56590000D01*
X135305000Y-56590000D01*
X136195500Y-56590000D01*
X136224500Y-56591000D01*
G36*
X136224500Y-56591000D02*
G01*
X136256500Y-56593000D01*
X136287500Y-56597000D01*
X136318500Y-56603000D01*
X136349500Y-56611000D01*
X136380500Y-56620000D01*
X136410500Y-56630000D01*
X136439500Y-56643000D01*
X136468500Y-56656000D01*
X136496500Y-56671000D01*
X136523500Y-56688000D01*
X136549500Y-56706000D01*
X136574500Y-56725000D01*
X136599500Y-56746000D01*
X136622500Y-56768000D01*
X136643500Y-56791000D01*
X136664500Y-56815000D01*
X136683500Y-56840000D01*
X136701500Y-56867000D01*
X136718500Y-56894000D01*
X136733500Y-56922000D01*
X136747500Y-56950000D01*
X136759500Y-56980000D01*
X136770500Y-57010000D01*
X136779500Y-57040000D01*
X136786500Y-57071000D01*
X136792500Y-57102000D01*
X136796500Y-57134000D01*
X136799500Y-57166000D01*
X136800500Y-57200000D01*
X136799500Y-57229000D01*
X136796500Y-57260000D01*
X136792500Y-57292000D01*
X136786500Y-57323000D01*
X136779500Y-57353000D01*
X136770500Y-57384000D01*
X136759500Y-57413000D01*
X136747500Y-57443000D01*
X136734500Y-57471000D01*
X136719500Y-57499000D01*
X136702500Y-57526000D01*
X136684500Y-57552000D01*
X136665500Y-57577000D01*
X136645500Y-57601000D01*
X136623500Y-57624000D01*
X136600500Y-57645000D01*
X136576500Y-57666000D01*
X136551500Y-57685000D01*
X136525500Y-57703000D01*
X136498500Y-57719000D01*
X136471500Y-57734000D01*
X136442500Y-57748000D01*
X136413500Y-57760000D01*
X136383500Y-57771000D01*
X136353500Y-57779000D01*
X136322500Y-57787000D01*
X136291500Y-57793000D01*
X136260500Y-57797000D01*
X136229500Y-57799000D01*
X136195500Y-57800000D01*
X135304500Y-57800000D01*
X135270500Y-57799000D01*
X135239500Y-57797000D01*
X135208500Y-57793000D01*
X135177500Y-57787000D01*
X135146500Y-57779000D01*
X135116500Y-57771000D01*
X135086500Y-57760000D01*
X135057500Y-57748000D01*
X135028500Y-57734000D01*
X135001500Y-57719000D01*
X134974500Y-57703000D01*
X134948500Y-57685000D01*
X134923500Y-57666000D01*
X134899500Y-57645000D01*
X134876500Y-57624000D01*
X134854500Y-57601000D01*
X134834500Y-57577000D01*
X134815500Y-57552000D01*
X134797500Y-57526000D01*
X134780500Y-57499000D01*
X134765500Y-57471000D01*
X134752500Y-57443000D01*
X134740500Y-57413000D01*
X134729500Y-57384000D01*
X134720500Y-57353000D01*
X134713500Y-57323000D01*
X134707500Y-57292000D01*
X134703500Y-57260000D01*
X134700500Y-57229000D01*
X134699500Y-57200000D01*
X134700500Y-57166000D01*
X134703500Y-57134000D01*
X134707500Y-57102000D01*
X134713500Y-57071000D01*
X134720500Y-57040000D01*
X134729500Y-57010000D01*
X134740500Y-56980000D01*
X134752500Y-56950000D01*
X134766500Y-56922000D01*
X134781500Y-56894000D01*
X134798500Y-56867000D01*
X134816500Y-56840000D01*
X134835500Y-56815000D01*
X134856500Y-56791000D01*
X134877500Y-56768000D01*
X134900500Y-56746000D01*
X134925500Y-56725000D01*
X134950500Y-56706000D01*
X134976500Y-56688000D01*
X135003500Y-56671000D01*
X135031500Y-56656000D01*
X135060500Y-56643000D01*
X135089500Y-56630000D01*
X135119500Y-56620000D01*
X135150500Y-56611000D01*
X135181500Y-56603000D01*
X135212500Y-56597000D01*
X135243500Y-56593000D01*
X135275500Y-56591000D01*
X135304500Y-56590000D01*
X135305000Y-56590000D01*
X136195500Y-56590000D01*
X136224500Y-56591000D01*
G37*
%TD*%
D11*
%TO.C,O1*%
X170725000Y-62725000D03*
X166125000Y-62725000D03*
D12*
X174125000Y-62725000D03*
X162725000Y-62725000D03*
%TD*%
D11*
%TO.C,O2*%
X188175000Y-62775000D03*
X183575000Y-62775000D03*
D12*
X191575000Y-62775000D03*
X180175000Y-62775000D03*
%TD*%
D13*
%TO.C,I1*%
X138750000Y-50800000D03*
X138750000Y-55250000D03*
%TD*%
M02*
