%TF.GenerationSoftware,KiCad,Pcbnew,7.0.8*%
%TF.CreationDate,2024-10-31T12:16:04-07:00*%
%TF.ProjectId,ECE196Team13,45434531-3936-4546-9561-6d31332e6b69,1*%
%TF.SameCoordinates,Original*%
%TF.FileFunction,Paste,Top*%
%TF.FilePolarity,Positive*%
%FSLAX46Y46*%
G04 Gerber Fmt 4.6, Leading zero omitted, Abs format (unit mm)*
G04 Created by KiCad (PCBNEW 7.0.8) date 2024-10-31 12:16:04*
%MOMM*%
%LPD*%
G01*
G04 APERTURE LIST*
G04 Aperture macros list*
%AMRoundRect*
0 Rectangle with rounded corners*
0 $1 Rounding radius*
0 $2 $3 $4 $5 $6 $7 $8 $9 X,Y pos of 4 corners*
0 Add a 4 corners polygon primitive as box body*
4,1,4,$2,$3,$4,$5,$6,$7,$8,$9,$2,$3,0*
0 Add four circle primitives for the rounded corners*
1,1,$1+$1,$2,$3*
1,1,$1+$1,$4,$5*
1,1,$1+$1,$6,$7*
1,1,$1+$1,$8,$9*
0 Add four rect primitives between the rounded corners*
20,1,$1+$1,$2,$3,$4,$5,0*
20,1,$1+$1,$4,$5,$6,$7,0*
20,1,$1+$1,$6,$7,$8,$9,0*
20,1,$1+$1,$8,$9,$2,$3,0*%
G04 Aperture macros list end*
%ADD10C,0.010000*%
%ADD11R,1.900000X1.800000*%
%ADD12R,1.350000X0.400000*%
%ADD13RoundRect,0.250000X-0.262500X-0.450000X0.262500X-0.450000X0.262500X0.450000X-0.262500X0.450000X0*%
%ADD14R,3.600000X2.000000*%
%ADD15R,0.790000X0.930000*%
%ADD16R,1.200000X1.100000*%
%ADD17RoundRect,0.079500X0.100500X-0.079500X0.100500X0.079500X-0.100500X0.079500X-0.100500X-0.079500X0*%
%ADD18RoundRect,0.147500X-0.147500X0.457500X-0.147500X-0.457500X0.147500X-0.457500X0.147500X0.457500X0*%
%ADD19R,0.900000X0.800000*%
%ADD20RoundRect,0.250000X0.250000X0.475000X-0.250000X0.475000X-0.250000X-0.475000X0.250000X-0.475000X0*%
%ADD21R,1.500000X2.120000*%
%ADD22RoundRect,0.250000X0.475000X-0.250000X0.475000X0.250000X-0.475000X0.250000X-0.475000X-0.250000X0*%
%ADD23RoundRect,0.143100X-0.156900X0.126900X-0.156900X-0.126900X0.156900X-0.126900X0.156900X0.126900X0*%
%ADD24RoundRect,0.143100X-0.126900X-0.156900X0.126900X-0.156900X0.126900X0.156900X-0.126900X0.156900X0*%
%ADD25RoundRect,0.135000X0.185000X-0.135000X0.185000X0.135000X-0.185000X0.135000X-0.185000X-0.135000X0*%
%ADD26RoundRect,0.135000X-0.185000X0.135000X-0.185000X-0.135000X0.185000X-0.135000X0.185000X0.135000X0*%
%ADD27RoundRect,0.147500X0.537500X0.147500X-0.537500X0.147500X-0.537500X-0.147500X0.537500X-0.147500X0*%
%ADD28RoundRect,0.250000X-0.450000X0.262500X-0.450000X-0.262500X0.450000X-0.262500X0.450000X0.262500X0*%
%ADD29R,1.100000X1.200000*%
%ADD30R,1.400000X0.600000*%
%ADD31RoundRect,0.250000X-0.475000X0.250000X-0.475000X-0.250000X0.475000X-0.250000X0.475000X0.250000X0*%
%ADD32RoundRect,0.079500X-0.079500X-0.100500X0.079500X-0.100500X0.079500X0.100500X-0.079500X0.100500X0*%
%ADD33R,0.600000X0.540000*%
%ADD34R,0.500000X0.475000*%
%ADD35R,0.560000X0.680000*%
%ADD36RoundRect,0.250000X0.262500X0.450000X-0.262500X0.450000X-0.262500X-0.450000X0.262500X-0.450000X0*%
%ADD37R,1.370000X2.810000*%
%ADD38R,2.794000X1.981200*%
%ADD39RoundRect,0.073750X0.611250X0.221250X-0.611250X0.221250X-0.611250X-0.221250X0.611250X-0.221250X0*%
%ADD40RoundRect,0.143100X0.156900X-0.126900X0.156900X0.126900X-0.156900X0.126900X-0.156900X-0.126900X0*%
G04 APERTURE END LIST*
%TO.C,I1*%
D10*
X136699500Y-57200000D02*
X136699500Y-57226000D01*
X136697500Y-57252000D01*
X136693500Y-57278000D01*
X136689500Y-57304000D01*
X136682500Y-57329000D01*
X136675500Y-57355000D01*
X136666500Y-57379000D01*
X136656500Y-57403000D01*
X136645500Y-57427000D01*
X136633500Y-57450000D01*
X136619500Y-57472000D01*
X136604500Y-57494000D01*
X136588500Y-57515000D01*
X136571500Y-57535000D01*
X136553500Y-57554000D01*
X136534500Y-57572000D01*
X136514500Y-57589000D01*
X136493500Y-57605000D01*
X136472500Y-57619000D01*
X136449500Y-57633000D01*
X136426500Y-57646000D01*
X136403500Y-57657000D01*
X136379500Y-57667000D01*
X136354500Y-57676000D01*
X136329500Y-57683000D01*
X136303500Y-57689000D01*
X136278500Y-57694000D01*
X136252500Y-57697000D01*
X136226500Y-57699000D01*
X136200500Y-57700000D01*
X135299500Y-57700000D01*
X135273500Y-57699000D01*
X135247500Y-57697000D01*
X135221500Y-57694000D01*
X135196500Y-57689000D01*
X135170500Y-57683000D01*
X135145500Y-57676000D01*
X135120500Y-57667000D01*
X135096500Y-57657000D01*
X135073500Y-57646000D01*
X135049500Y-57633000D01*
X135027500Y-57619000D01*
X135006500Y-57605000D01*
X134985500Y-57589000D01*
X134965500Y-57572000D01*
X134946500Y-57554000D01*
X134928500Y-57535000D01*
X134911500Y-57515000D01*
X134895500Y-57494000D01*
X134880500Y-57472000D01*
X134866500Y-57450000D01*
X134854500Y-57427000D01*
X134843500Y-57403000D01*
X134833500Y-57379000D01*
X134824500Y-57355000D01*
X134817500Y-57329000D01*
X134810500Y-57304000D01*
X134806500Y-57278000D01*
X134802500Y-57252000D01*
X134800500Y-57226000D01*
X134799500Y-57200000D01*
X134800000Y-55625000D01*
X136699500Y-55625000D01*
X136699500Y-57200000D01*
G36*
X136699500Y-57200000D02*
G01*
X136699500Y-57226000D01*
X136697500Y-57252000D01*
X136693500Y-57278000D01*
X136689500Y-57304000D01*
X136682500Y-57329000D01*
X136675500Y-57355000D01*
X136666500Y-57379000D01*
X136656500Y-57403000D01*
X136645500Y-57427000D01*
X136633500Y-57450000D01*
X136619500Y-57472000D01*
X136604500Y-57494000D01*
X136588500Y-57515000D01*
X136571500Y-57535000D01*
X136553500Y-57554000D01*
X136534500Y-57572000D01*
X136514500Y-57589000D01*
X136493500Y-57605000D01*
X136472500Y-57619000D01*
X136449500Y-57633000D01*
X136426500Y-57646000D01*
X136403500Y-57657000D01*
X136379500Y-57667000D01*
X136354500Y-57676000D01*
X136329500Y-57683000D01*
X136303500Y-57689000D01*
X136278500Y-57694000D01*
X136252500Y-57697000D01*
X136226500Y-57699000D01*
X136200500Y-57700000D01*
X135299500Y-57700000D01*
X135273500Y-57699000D01*
X135247500Y-57697000D01*
X135221500Y-57694000D01*
X135196500Y-57689000D01*
X135170500Y-57683000D01*
X135145500Y-57676000D01*
X135120500Y-57667000D01*
X135096500Y-57657000D01*
X135073500Y-57646000D01*
X135049500Y-57633000D01*
X135027500Y-57619000D01*
X135006500Y-57605000D01*
X134985500Y-57589000D01*
X134965500Y-57572000D01*
X134946500Y-57554000D01*
X134928500Y-57535000D01*
X134911500Y-57515000D01*
X134895500Y-57494000D01*
X134880500Y-57472000D01*
X134866500Y-57450000D01*
X134854500Y-57427000D01*
X134843500Y-57403000D01*
X134833500Y-57379000D01*
X134824500Y-57355000D01*
X134817500Y-57329000D01*
X134810500Y-57304000D01*
X134806500Y-57278000D01*
X134802500Y-57252000D01*
X134800500Y-57226000D01*
X134799500Y-57200000D01*
X134800000Y-55625000D01*
X136699500Y-55625000D01*
X136699500Y-57200000D01*
G37*
X136226500Y-48351000D02*
X136252500Y-48353000D01*
X136278500Y-48356000D01*
X136303500Y-48361000D01*
X136329500Y-48367000D01*
X136354500Y-48374000D01*
X136379500Y-48383000D01*
X136403500Y-48393000D01*
X136426500Y-48404000D01*
X136449500Y-48417000D01*
X136472500Y-48431000D01*
X136493500Y-48445000D01*
X136514500Y-48461000D01*
X136534500Y-48478000D01*
X136553500Y-48496000D01*
X136571500Y-48515000D01*
X136588500Y-48535000D01*
X136604500Y-48556000D01*
X136619500Y-48578000D01*
X136633500Y-48600000D01*
X136645500Y-48623000D01*
X136656500Y-48647000D01*
X136666500Y-48671000D01*
X136675500Y-48695000D01*
X136682500Y-48721000D01*
X136689500Y-48746000D01*
X136693500Y-48772000D01*
X136697500Y-48798000D01*
X136699500Y-48824000D01*
X136699500Y-48850000D01*
X136700000Y-50425000D01*
X136699500Y-50425000D01*
X134799500Y-50425000D01*
X134799500Y-48850000D01*
X134800500Y-48824000D01*
X134802500Y-48798000D01*
X134806500Y-48772000D01*
X134810500Y-48746000D01*
X134817500Y-48721000D01*
X134824500Y-48695000D01*
X134833500Y-48671000D01*
X134843500Y-48647000D01*
X134854500Y-48623000D01*
X134866500Y-48600000D01*
X134880500Y-48578000D01*
X134895500Y-48556000D01*
X134911500Y-48535000D01*
X134928500Y-48515000D01*
X134946500Y-48496000D01*
X134965500Y-48478000D01*
X134985500Y-48461000D01*
X135006500Y-48445000D01*
X135027500Y-48431000D01*
X135049500Y-48417000D01*
X135073500Y-48404000D01*
X135096500Y-48393000D01*
X135120500Y-48383000D01*
X135145500Y-48374000D01*
X135170500Y-48367000D01*
X135196500Y-48361000D01*
X135221500Y-48356000D01*
X135247500Y-48353000D01*
X135273500Y-48351000D01*
X135299500Y-48350000D01*
X136200500Y-48350000D01*
X136226500Y-48351000D01*
G36*
X136226500Y-48351000D02*
G01*
X136252500Y-48353000D01*
X136278500Y-48356000D01*
X136303500Y-48361000D01*
X136329500Y-48367000D01*
X136354500Y-48374000D01*
X136379500Y-48383000D01*
X136403500Y-48393000D01*
X136426500Y-48404000D01*
X136449500Y-48417000D01*
X136472500Y-48431000D01*
X136493500Y-48445000D01*
X136514500Y-48461000D01*
X136534500Y-48478000D01*
X136553500Y-48496000D01*
X136571500Y-48515000D01*
X136588500Y-48535000D01*
X136604500Y-48556000D01*
X136619500Y-48578000D01*
X136633500Y-48600000D01*
X136645500Y-48623000D01*
X136656500Y-48647000D01*
X136666500Y-48671000D01*
X136675500Y-48695000D01*
X136682500Y-48721000D01*
X136689500Y-48746000D01*
X136693500Y-48772000D01*
X136697500Y-48798000D01*
X136699500Y-48824000D01*
X136699500Y-48850000D01*
X136700000Y-50425000D01*
X136699500Y-50425000D01*
X134799500Y-50425000D01*
X134799500Y-48850000D01*
X134800500Y-48824000D01*
X134802500Y-48798000D01*
X134806500Y-48772000D01*
X134810500Y-48746000D01*
X134817500Y-48721000D01*
X134824500Y-48695000D01*
X134833500Y-48671000D01*
X134843500Y-48647000D01*
X134854500Y-48623000D01*
X134866500Y-48600000D01*
X134880500Y-48578000D01*
X134895500Y-48556000D01*
X134911500Y-48535000D01*
X134928500Y-48515000D01*
X134946500Y-48496000D01*
X134965500Y-48478000D01*
X134985500Y-48461000D01*
X135006500Y-48445000D01*
X135027500Y-48431000D01*
X135049500Y-48417000D01*
X135073500Y-48404000D01*
X135096500Y-48393000D01*
X135120500Y-48383000D01*
X135145500Y-48374000D01*
X135170500Y-48367000D01*
X135196500Y-48361000D01*
X135221500Y-48356000D01*
X135247500Y-48353000D01*
X135273500Y-48351000D01*
X135299500Y-48350000D01*
X136200500Y-48350000D01*
X136226500Y-48351000D01*
G37*
%TD*%
D11*
%TO.C,I1*%
X135750000Y-54175000D03*
X135750000Y-51875000D03*
D12*
X138425000Y-54325000D03*
X138425000Y-53675000D03*
X138425000Y-53025000D03*
X138425000Y-52375000D03*
X138425000Y-51725000D03*
%TD*%
D13*
%TO.C,R6*%
X189887500Y-43025000D03*
X191712500Y-43025000D03*
%TD*%
D14*
%TO.C,Z2*%
X176200000Y-52200000D03*
X176200000Y-59000000D03*
%TD*%
D15*
%TO.C,R5*%
X185845000Y-48475000D03*
X184205000Y-48475000D03*
%TD*%
D16*
%TO.C,D4*%
X191600000Y-49750000D03*
X191600000Y-51850000D03*
%TD*%
D17*
%TO.C,C6*%
X156125000Y-64925000D03*
X156125000Y-64235000D03*
%TD*%
D18*
%TO.C,M2*%
X161445000Y-49590000D03*
X159545000Y-49590000D03*
X160495000Y-52100000D03*
%TD*%
D19*
%TO.C,M1*%
X143975000Y-50950000D03*
X143975000Y-49050000D03*
X141875000Y-50000000D03*
%TD*%
D20*
%TO.C,C4*%
X171675000Y-59275000D03*
X169775000Y-59275000D03*
%TD*%
D21*
%TO.C,Z1*%
X147450000Y-50340000D03*
X147450000Y-46110000D03*
%TD*%
D22*
%TO.C,C1*%
X188275000Y-50875000D03*
X188275000Y-52775000D03*
%TD*%
D23*
%TO.C,C2*%
X148850000Y-42670000D03*
X148850000Y-43530000D03*
%TD*%
D24*
%TO.C,C2*%
X167045000Y-51200000D03*
X167905000Y-51200000D03*
%TD*%
D25*
%TO.C,R1*%
X189850000Y-52785000D03*
X189850000Y-51765000D03*
%TD*%
D26*
%TO.C,R1*%
X166470000Y-42660000D03*
X166470000Y-43680000D03*
%TD*%
D27*
%TO.C,U2*%
X169457500Y-54625000D03*
X169457500Y-53675000D03*
X169457500Y-52725000D03*
X167117500Y-52725000D03*
X167117500Y-53675000D03*
X167117500Y-54625000D03*
%TD*%
D28*
%TO.C,R2*%
X153145000Y-44232500D03*
X153145000Y-46057500D03*
%TD*%
D17*
%TO.C,C6*%
X141650000Y-54305000D03*
X141650000Y-54995000D03*
%TD*%
D13*
%TO.C,R7*%
X137712500Y-46775000D03*
X139537500Y-46775000D03*
%TD*%
D29*
%TO.C,D2*%
X164420000Y-47395000D03*
X166520000Y-47395000D03*
%TD*%
%TO.C,D1*%
X164420000Y-45295000D03*
X166520000Y-45295000D03*
%TD*%
D30*
%TO.C,U1*%
X156020000Y-42815000D03*
X156020000Y-44085000D03*
X156020000Y-45355000D03*
X156020000Y-46625000D03*
X161420000Y-46625000D03*
X161420000Y-45355000D03*
X161420000Y-44085000D03*
X161420000Y-42815000D03*
%TD*%
D18*
%TO.C,M2*%
X189875000Y-45265000D03*
X187975000Y-45265000D03*
X188925000Y-47775000D03*
%TD*%
D31*
%TO.C,C1*%
X150925000Y-42725000D03*
X150925000Y-44625000D03*
%TD*%
D32*
%TO.C,C6c1*%
X190720000Y-61100000D03*
X190030000Y-61100000D03*
%TD*%
D33*
%TO.C,R3*%
X170925000Y-57207000D03*
X170925000Y-56343000D03*
%TD*%
D34*
%TO.C,R4*%
X168350000Y-56338000D03*
X168350000Y-57362000D03*
%TD*%
D35*
%TO.C,C3*%
X152280000Y-48045000D03*
X151360000Y-48045000D03*
%TD*%
D36*
%TO.C,R7*%
X157425000Y-52000000D03*
X155600000Y-52000000D03*
%TD*%
D29*
%TO.C,D3*%
X150975000Y-52050000D03*
X153075000Y-52050000D03*
%TD*%
D37*
%TO.C,C5*%
X184625000Y-56425000D03*
X181785000Y-56425000D03*
%TD*%
D38*
%TO.C,L1*%
X173475000Y-45225000D03*
X173475000Y-49289000D03*
%TD*%
D39*
%TO.C,U3*%
X181835000Y-52800000D03*
X181835000Y-50900000D03*
X184185000Y-50900000D03*
X184185000Y-51850000D03*
X184185000Y-52800000D03*
%TD*%
D29*
%TO.C,D5*%
X143950000Y-46775000D03*
X141850000Y-46775000D03*
%TD*%
D40*
%TO.C,C2*%
X186625000Y-51865000D03*
X186625000Y-52725000D03*
%TD*%
M02*
