%TF.GenerationSoftware,KiCad,Pcbnew,7.0.8*%
%TF.CreationDate,2024-10-31T12:16:04-07:00*%
%TF.ProjectId,ECE196Team13,45434531-3936-4546-9561-6d31332e6b69,1*%
%TF.SameCoordinates,Original*%
%TF.FileFunction,Legend,Top*%
%TF.FilePolarity,Positive*%
%FSLAX46Y46*%
G04 Gerber Fmt 4.6, Leading zero omitted, Abs format (unit mm)*
G04 Created by KiCad (PCBNEW 7.0.8) date 2024-10-31 12:16:04*
%MOMM*%
%LPD*%
G01*
G04 APERTURE LIST*
%ADD10C,0.150000*%
%ADD11C,0.125000*%
%ADD12C,0.098425*%
%ADD13C,0.120000*%
%ADD14C,0.080000*%
%ADD15C,0.100000*%
%ADD16C,0.060257*%
%ADD17C,0.200000*%
%ADD18C,0.127000*%
%ADD19C,0.203200*%
%ADD20C,0.330200*%
%ADD21C,0.152400*%
G04 APERTURE END LIST*
D10*
X174193152Y-50733125D02*
X172764580Y-50733125D01*
X188928152Y-49900125D02*
X187499580Y-49900125D01*
X177639104Y-60450125D02*
X174781961Y-60450125D01*
X185607125Y-55676847D02*
X185607125Y-57105419D01*
X168875125Y-58521847D02*
X168875125Y-59950419D01*
X136843750Y-40175000D02*
X144856250Y-40175000D01*
X144856250Y-44625000D01*
X136843750Y-44625000D01*
X136843750Y-40175000D01*
X140500000Y-64625000D02*
X153000000Y-64625000D01*
X153000000Y-71600000D01*
X140500000Y-71600000D01*
X140500000Y-64625000D01*
X151678152Y-45575125D02*
X150249580Y-45575125D01*
X150650125Y-47489038D02*
X150650125Y-48631895D01*
X142428152Y-53700125D02*
X140999580Y-53700125D01*
D11*
X155776023Y-63733426D02*
X156490309Y-63733426D01*
X189520331Y-61423976D02*
X189520331Y-60709690D01*
D10*
X149460961Y-44120363D02*
X148318104Y-44120363D01*
X136404819Y-47751189D02*
X135404819Y-47751189D01*
X136404819Y-46751190D02*
X136404819Y-47322618D01*
X136404819Y-47036904D02*
X135404819Y-47036904D01*
X135404819Y-47036904D02*
X135547676Y-47132142D01*
X135547676Y-47132142D02*
X135642914Y-47227380D01*
X135642914Y-47227380D02*
X135690533Y-47322618D01*
X185978571Y-61079819D02*
X186169047Y-61079819D01*
X186169047Y-61079819D02*
X186264285Y-61127438D01*
X186264285Y-61127438D02*
X186359523Y-61222676D01*
X186359523Y-61222676D02*
X186407142Y-61413152D01*
X186407142Y-61413152D02*
X186407142Y-61746485D01*
X186407142Y-61746485D02*
X186359523Y-61936961D01*
X186359523Y-61936961D02*
X186264285Y-62032200D01*
X186264285Y-62032200D02*
X186169047Y-62079819D01*
X186169047Y-62079819D02*
X185978571Y-62079819D01*
X185978571Y-62079819D02*
X185883333Y-62032200D01*
X185883333Y-62032200D02*
X185788095Y-61936961D01*
X185788095Y-61936961D02*
X185740476Y-61746485D01*
X185740476Y-61746485D02*
X185740476Y-61413152D01*
X185740476Y-61413152D02*
X185788095Y-61222676D01*
X185788095Y-61222676D02*
X185883333Y-61127438D01*
X185883333Y-61127438D02*
X185978571Y-61079819D01*
X186788095Y-61175057D02*
X186835714Y-61127438D01*
X186835714Y-61127438D02*
X186930952Y-61079819D01*
X186930952Y-61079819D02*
X187169047Y-61079819D01*
X187169047Y-61079819D02*
X187264285Y-61127438D01*
X187264285Y-61127438D02*
X187311904Y-61175057D01*
X187311904Y-61175057D02*
X187359523Y-61270295D01*
X187359523Y-61270295D02*
X187359523Y-61365533D01*
X187359523Y-61365533D02*
X187311904Y-61508390D01*
X187311904Y-61508390D02*
X186740476Y-62079819D01*
X186740476Y-62079819D02*
X187359523Y-62079819D01*
X160303571Y-60852319D02*
X160494047Y-60852319D01*
X160494047Y-60852319D02*
X160589285Y-60899938D01*
X160589285Y-60899938D02*
X160684523Y-60995176D01*
X160684523Y-60995176D02*
X160732142Y-61185652D01*
X160732142Y-61185652D02*
X160732142Y-61518985D01*
X160732142Y-61518985D02*
X160684523Y-61709461D01*
X160684523Y-61709461D02*
X160589285Y-61804700D01*
X160589285Y-61804700D02*
X160494047Y-61852319D01*
X160494047Y-61852319D02*
X160303571Y-61852319D01*
X160303571Y-61852319D02*
X160208333Y-61804700D01*
X160208333Y-61804700D02*
X160113095Y-61709461D01*
X160113095Y-61709461D02*
X160065476Y-61518985D01*
X160065476Y-61518985D02*
X160065476Y-61185652D01*
X160065476Y-61185652D02*
X160113095Y-60995176D01*
X160113095Y-60995176D02*
X160208333Y-60899938D01*
X160208333Y-60899938D02*
X160303571Y-60852319D01*
X161684523Y-61852319D02*
X161113095Y-61852319D01*
X161398809Y-61852319D02*
X161398809Y-60852319D01*
X161398809Y-60852319D02*
X161303571Y-60995176D01*
X161303571Y-60995176D02*
X161208333Y-61090414D01*
X161208333Y-61090414D02*
X161113095Y-61138033D01*
X190633333Y-41829819D02*
X190300000Y-41353628D01*
X190061905Y-41829819D02*
X190061905Y-40829819D01*
X190061905Y-40829819D02*
X190442857Y-40829819D01*
X190442857Y-40829819D02*
X190538095Y-40877438D01*
X190538095Y-40877438D02*
X190585714Y-40925057D01*
X190585714Y-40925057D02*
X190633333Y-41020295D01*
X190633333Y-41020295D02*
X190633333Y-41163152D01*
X190633333Y-41163152D02*
X190585714Y-41258390D01*
X190585714Y-41258390D02*
X190538095Y-41306009D01*
X190538095Y-41306009D02*
X190442857Y-41353628D01*
X190442857Y-41353628D02*
X190061905Y-41353628D01*
X191490476Y-40829819D02*
X191300000Y-40829819D01*
X191300000Y-40829819D02*
X191204762Y-40877438D01*
X191204762Y-40877438D02*
X191157143Y-40925057D01*
X191157143Y-40925057D02*
X191061905Y-41067914D01*
X191061905Y-41067914D02*
X191014286Y-41258390D01*
X191014286Y-41258390D02*
X191014286Y-41639342D01*
X191014286Y-41639342D02*
X191061905Y-41734580D01*
X191061905Y-41734580D02*
X191109524Y-41782200D01*
X191109524Y-41782200D02*
X191204762Y-41829819D01*
X191204762Y-41829819D02*
X191395238Y-41829819D01*
X191395238Y-41829819D02*
X191490476Y-41782200D01*
X191490476Y-41782200D02*
X191538095Y-41734580D01*
X191538095Y-41734580D02*
X191585714Y-41639342D01*
X191585714Y-41639342D02*
X191585714Y-41401247D01*
X191585714Y-41401247D02*
X191538095Y-41306009D01*
X191538095Y-41306009D02*
X191490476Y-41258390D01*
X191490476Y-41258390D02*
X191395238Y-41210771D01*
X191395238Y-41210771D02*
X191204762Y-41210771D01*
X191204762Y-41210771D02*
X191109524Y-41258390D01*
X191109524Y-41258390D02*
X191061905Y-41306009D01*
X191061905Y-41306009D02*
X191014286Y-41401247D01*
X171879819Y-56759523D02*
X171879819Y-56092857D01*
X171879819Y-56092857D02*
X172879819Y-56759523D01*
X172879819Y-56759523D02*
X172879819Y-56092857D01*
X171975057Y-55759523D02*
X171927438Y-55711904D01*
X171927438Y-55711904D02*
X171879819Y-55616666D01*
X171879819Y-55616666D02*
X171879819Y-55378571D01*
X171879819Y-55378571D02*
X171927438Y-55283333D01*
X171927438Y-55283333D02*
X171975057Y-55235714D01*
X171975057Y-55235714D02*
X172070295Y-55188095D01*
X172070295Y-55188095D02*
X172165533Y-55188095D01*
X172165533Y-55188095D02*
X172308390Y-55235714D01*
X172308390Y-55235714D02*
X172879819Y-55807142D01*
X172879819Y-55807142D02*
X172879819Y-55188095D01*
D12*
X182959383Y-48302014D02*
X182828149Y-48114538D01*
X182734411Y-48302014D02*
X182734411Y-47908313D01*
X182734411Y-47908313D02*
X182884392Y-47908313D01*
X182884392Y-47908313D02*
X182921888Y-47927061D01*
X182921888Y-47927061D02*
X182940635Y-47945809D01*
X182940635Y-47945809D02*
X182959383Y-47983304D01*
X182959383Y-47983304D02*
X182959383Y-48039547D01*
X182959383Y-48039547D02*
X182940635Y-48077042D01*
X182940635Y-48077042D02*
X182921888Y-48095790D01*
X182921888Y-48095790D02*
X182884392Y-48114538D01*
X182884392Y-48114538D02*
X182734411Y-48114538D01*
X183315589Y-47908313D02*
X183128112Y-47908313D01*
X183128112Y-47908313D02*
X183109364Y-48095790D01*
X183109364Y-48095790D02*
X183128112Y-48077042D01*
X183128112Y-48077042D02*
X183165607Y-48058295D01*
X183165607Y-48058295D02*
X183259346Y-48058295D01*
X183259346Y-48058295D02*
X183296841Y-48077042D01*
X183296841Y-48077042D02*
X183315589Y-48095790D01*
X183315589Y-48095790D02*
X183334336Y-48133285D01*
X183334336Y-48133285D02*
X183334336Y-48227024D01*
X183334336Y-48227024D02*
X183315589Y-48264519D01*
X183315589Y-48264519D02*
X183296841Y-48283267D01*
X183296841Y-48283267D02*
X183259346Y-48302014D01*
X183259346Y-48302014D02*
X183165607Y-48302014D01*
X183165607Y-48302014D02*
X183128112Y-48283267D01*
X183128112Y-48283267D02*
X183109364Y-48264519D01*
D10*
X192820276Y-53812381D02*
X192180276Y-53812381D01*
X192180276Y-53812381D02*
X192180276Y-53660000D01*
X192180276Y-53660000D02*
X192210752Y-53568571D01*
X192210752Y-53568571D02*
X192271704Y-53507619D01*
X192271704Y-53507619D02*
X192332657Y-53477142D01*
X192332657Y-53477142D02*
X192454561Y-53446666D01*
X192454561Y-53446666D02*
X192545990Y-53446666D01*
X192545990Y-53446666D02*
X192667895Y-53477142D01*
X192667895Y-53477142D02*
X192728847Y-53507619D01*
X192728847Y-53507619D02*
X192789800Y-53568571D01*
X192789800Y-53568571D02*
X192820276Y-53660000D01*
X192820276Y-53660000D02*
X192820276Y-53812381D01*
X192393609Y-52898095D02*
X192820276Y-52898095D01*
X192149800Y-53050476D02*
X192606942Y-53202857D01*
X192606942Y-53202857D02*
X192606942Y-52806666D01*
D13*
X191332960Y-52882857D02*
X191332960Y-52517143D01*
X191515817Y-52700000D02*
X191150102Y-52700000D01*
D11*
X156091666Y-65927190D02*
X156067857Y-65951000D01*
X156067857Y-65951000D02*
X155996428Y-65974809D01*
X155996428Y-65974809D02*
X155948809Y-65974809D01*
X155948809Y-65974809D02*
X155877381Y-65951000D01*
X155877381Y-65951000D02*
X155829762Y-65903380D01*
X155829762Y-65903380D02*
X155805952Y-65855761D01*
X155805952Y-65855761D02*
X155782143Y-65760523D01*
X155782143Y-65760523D02*
X155782143Y-65689095D01*
X155782143Y-65689095D02*
X155805952Y-65593857D01*
X155805952Y-65593857D02*
X155829762Y-65546238D01*
X155829762Y-65546238D02*
X155877381Y-65498619D01*
X155877381Y-65498619D02*
X155948809Y-65474809D01*
X155948809Y-65474809D02*
X155996428Y-65474809D01*
X155996428Y-65474809D02*
X156067857Y-65498619D01*
X156067857Y-65498619D02*
X156091666Y-65522428D01*
X156520238Y-65474809D02*
X156425000Y-65474809D01*
X156425000Y-65474809D02*
X156377381Y-65498619D01*
X156377381Y-65498619D02*
X156353571Y-65522428D01*
X156353571Y-65522428D02*
X156305952Y-65593857D01*
X156305952Y-65593857D02*
X156282143Y-65689095D01*
X156282143Y-65689095D02*
X156282143Y-65879571D01*
X156282143Y-65879571D02*
X156305952Y-65927190D01*
X156305952Y-65927190D02*
X156329762Y-65951000D01*
X156329762Y-65951000D02*
X156377381Y-65974809D01*
X156377381Y-65974809D02*
X156472619Y-65974809D01*
X156472619Y-65974809D02*
X156520238Y-65951000D01*
X156520238Y-65951000D02*
X156544047Y-65927190D01*
X156544047Y-65927190D02*
X156567857Y-65879571D01*
X156567857Y-65879571D02*
X156567857Y-65760523D01*
X156567857Y-65760523D02*
X156544047Y-65712904D01*
X156544047Y-65712904D02*
X156520238Y-65689095D01*
X156520238Y-65689095D02*
X156472619Y-65665285D01*
X156472619Y-65665285D02*
X156377381Y-65665285D01*
X156377381Y-65665285D02*
X156329762Y-65689095D01*
X156329762Y-65689095D02*
X156305952Y-65712904D01*
X156305952Y-65712904D02*
X156282143Y-65760523D01*
D10*
X159715476Y-54254819D02*
X159715476Y-53254819D01*
X159715476Y-53254819D02*
X160048809Y-53969104D01*
X160048809Y-53969104D02*
X160382142Y-53254819D01*
X160382142Y-53254819D02*
X160382142Y-54254819D01*
X160810714Y-53350057D02*
X160858333Y-53302438D01*
X160858333Y-53302438D02*
X160953571Y-53254819D01*
X160953571Y-53254819D02*
X161191666Y-53254819D01*
X161191666Y-53254819D02*
X161286904Y-53302438D01*
X161286904Y-53302438D02*
X161334523Y-53350057D01*
X161334523Y-53350057D02*
X161382142Y-53445295D01*
X161382142Y-53445295D02*
X161382142Y-53540533D01*
X161382142Y-53540533D02*
X161334523Y-53683390D01*
X161334523Y-53683390D02*
X160763095Y-54254819D01*
X160763095Y-54254819D02*
X161382142Y-54254819D01*
D14*
X142460691Y-52162087D02*
X142460691Y-51762087D01*
X142460691Y-51762087D02*
X142594024Y-52047801D01*
X142594024Y-52047801D02*
X142727357Y-51762087D01*
X142727357Y-51762087D02*
X142727357Y-52162087D01*
X143127357Y-52162087D02*
X142898786Y-52162087D01*
X143013072Y-52162087D02*
X143013072Y-51762087D01*
X143013072Y-51762087D02*
X142974976Y-51819230D01*
X142974976Y-51819230D02*
X142936881Y-51857325D01*
X142936881Y-51857325D02*
X142898786Y-51876373D01*
D15*
X170650000Y-60740228D02*
X170621428Y-60768800D01*
X170621428Y-60768800D02*
X170535714Y-60797371D01*
X170535714Y-60797371D02*
X170478571Y-60797371D01*
X170478571Y-60797371D02*
X170392857Y-60768800D01*
X170392857Y-60768800D02*
X170335714Y-60711657D01*
X170335714Y-60711657D02*
X170307143Y-60654514D01*
X170307143Y-60654514D02*
X170278571Y-60540228D01*
X170278571Y-60540228D02*
X170278571Y-60454514D01*
X170278571Y-60454514D02*
X170307143Y-60340228D01*
X170307143Y-60340228D02*
X170335714Y-60283085D01*
X170335714Y-60283085D02*
X170392857Y-60225942D01*
X170392857Y-60225942D02*
X170478571Y-60197371D01*
X170478571Y-60197371D02*
X170535714Y-60197371D01*
X170535714Y-60197371D02*
X170621428Y-60225942D01*
X170621428Y-60225942D02*
X170650000Y-60254514D01*
X171164286Y-60397371D02*
X171164286Y-60797371D01*
X171021428Y-60168800D02*
X170878571Y-60597371D01*
X170878571Y-60597371D02*
X171250000Y-60597371D01*
D10*
X145069065Y-48737421D02*
X145069065Y-48212486D01*
X145069065Y-48212486D02*
X145856467Y-48737421D01*
X145856467Y-48737421D02*
X145856467Y-48212486D01*
X145856467Y-47500074D02*
X145856467Y-47950018D01*
X145856467Y-47725046D02*
X145069065Y-47725046D01*
X145069065Y-47725046D02*
X145181551Y-47800037D01*
X145181551Y-47800037D02*
X145256542Y-47875028D01*
X145256542Y-47875028D02*
X145294037Y-47950018D01*
D15*
X188147333Y-49671752D02*
X188128285Y-49690800D01*
X188128285Y-49690800D02*
X188071143Y-49709847D01*
X188071143Y-49709847D02*
X188033047Y-49709847D01*
X188033047Y-49709847D02*
X187975904Y-49690800D01*
X187975904Y-49690800D02*
X187937809Y-49652704D01*
X187937809Y-49652704D02*
X187918762Y-49614609D01*
X187918762Y-49614609D02*
X187899714Y-49538419D01*
X187899714Y-49538419D02*
X187899714Y-49481276D01*
X187899714Y-49481276D02*
X187918762Y-49405085D01*
X187918762Y-49405085D02*
X187937809Y-49366990D01*
X187937809Y-49366990D02*
X187975904Y-49328895D01*
X187975904Y-49328895D02*
X188033047Y-49309847D01*
X188033047Y-49309847D02*
X188071143Y-49309847D01*
X188071143Y-49309847D02*
X188128285Y-49328895D01*
X188128285Y-49328895D02*
X188147333Y-49347942D01*
X188528285Y-49709847D02*
X188299714Y-49709847D01*
X188414000Y-49709847D02*
X188414000Y-49309847D01*
X188414000Y-49309847D02*
X188375904Y-49366990D01*
X188375904Y-49366990D02*
X188337809Y-49405085D01*
X188337809Y-49405085D02*
X188299714Y-49424133D01*
X148733333Y-41966752D02*
X148714285Y-41985800D01*
X148714285Y-41985800D02*
X148657143Y-42004847D01*
X148657143Y-42004847D02*
X148619047Y-42004847D01*
X148619047Y-42004847D02*
X148561904Y-41985800D01*
X148561904Y-41985800D02*
X148523809Y-41947704D01*
X148523809Y-41947704D02*
X148504762Y-41909609D01*
X148504762Y-41909609D02*
X148485714Y-41833419D01*
X148485714Y-41833419D02*
X148485714Y-41776276D01*
X148485714Y-41776276D02*
X148504762Y-41700085D01*
X148504762Y-41700085D02*
X148523809Y-41661990D01*
X148523809Y-41661990D02*
X148561904Y-41623895D01*
X148561904Y-41623895D02*
X148619047Y-41604847D01*
X148619047Y-41604847D02*
X148657143Y-41604847D01*
X148657143Y-41604847D02*
X148714285Y-41623895D01*
X148714285Y-41623895D02*
X148733333Y-41642942D01*
X148885714Y-41642942D02*
X148904762Y-41623895D01*
X148904762Y-41623895D02*
X148942857Y-41604847D01*
X148942857Y-41604847D02*
X149038095Y-41604847D01*
X149038095Y-41604847D02*
X149076190Y-41623895D01*
X149076190Y-41623895D02*
X149095238Y-41642942D01*
X149095238Y-41642942D02*
X149114285Y-41681038D01*
X149114285Y-41681038D02*
X149114285Y-41719133D01*
X149114285Y-41719133D02*
X149095238Y-41776276D01*
X149095238Y-41776276D02*
X148866666Y-42004847D01*
X148866666Y-42004847D02*
X149114285Y-42004847D01*
D16*
X167434828Y-50385416D02*
X167423351Y-50396894D01*
X167423351Y-50396894D02*
X167388918Y-50408371D01*
X167388918Y-50408371D02*
X167365963Y-50408371D01*
X167365963Y-50408371D02*
X167331530Y-50396894D01*
X167331530Y-50396894D02*
X167308575Y-50373938D01*
X167308575Y-50373938D02*
X167297097Y-50350983D01*
X167297097Y-50350983D02*
X167285620Y-50305073D01*
X167285620Y-50305073D02*
X167285620Y-50270640D01*
X167285620Y-50270640D02*
X167297097Y-50224730D01*
X167297097Y-50224730D02*
X167308575Y-50201775D01*
X167308575Y-50201775D02*
X167331530Y-50178820D01*
X167331530Y-50178820D02*
X167365963Y-50167342D01*
X167365963Y-50167342D02*
X167388918Y-50167342D01*
X167388918Y-50167342D02*
X167423351Y-50178820D01*
X167423351Y-50178820D02*
X167434828Y-50190297D01*
X167526649Y-50190297D02*
X167538126Y-50178820D01*
X167538126Y-50178820D02*
X167561082Y-50167342D01*
X167561082Y-50167342D02*
X167618469Y-50167342D01*
X167618469Y-50167342D02*
X167641425Y-50178820D01*
X167641425Y-50178820D02*
X167652902Y-50190297D01*
X167652902Y-50190297D02*
X167664380Y-50213252D01*
X167664380Y-50213252D02*
X167664380Y-50236208D01*
X167664380Y-50236208D02*
X167652902Y-50270640D01*
X167652902Y-50270640D02*
X167515171Y-50408371D01*
X167515171Y-50408371D02*
X167664380Y-50408371D01*
D15*
X189808333Y-53854847D02*
X189675000Y-53664371D01*
X189579762Y-53854847D02*
X189579762Y-53454847D01*
X189579762Y-53454847D02*
X189732143Y-53454847D01*
X189732143Y-53454847D02*
X189770238Y-53473895D01*
X189770238Y-53473895D02*
X189789285Y-53492942D01*
X189789285Y-53492942D02*
X189808333Y-53531038D01*
X189808333Y-53531038D02*
X189808333Y-53588180D01*
X189808333Y-53588180D02*
X189789285Y-53626276D01*
X189789285Y-53626276D02*
X189770238Y-53645323D01*
X189770238Y-53645323D02*
X189732143Y-53664371D01*
X189732143Y-53664371D02*
X189579762Y-53664371D01*
X190189285Y-53854847D02*
X189960714Y-53854847D01*
X190075000Y-53854847D02*
X190075000Y-53454847D01*
X190075000Y-53454847D02*
X190036904Y-53511990D01*
X190036904Y-53511990D02*
X189998809Y-53550085D01*
X189998809Y-53550085D02*
X189960714Y-53569133D01*
D10*
X166308333Y-42004819D02*
X165975000Y-41528628D01*
X165736905Y-42004819D02*
X165736905Y-41004819D01*
X165736905Y-41004819D02*
X166117857Y-41004819D01*
X166117857Y-41004819D02*
X166213095Y-41052438D01*
X166213095Y-41052438D02*
X166260714Y-41100057D01*
X166260714Y-41100057D02*
X166308333Y-41195295D01*
X166308333Y-41195295D02*
X166308333Y-41338152D01*
X166308333Y-41338152D02*
X166260714Y-41433390D01*
X166260714Y-41433390D02*
X166213095Y-41481009D01*
X166213095Y-41481009D02*
X166117857Y-41528628D01*
X166117857Y-41528628D02*
X165736905Y-41528628D01*
X167260714Y-42004819D02*
X166689286Y-42004819D01*
X166975000Y-42004819D02*
X166975000Y-41004819D01*
X166975000Y-41004819D02*
X166879762Y-41147676D01*
X166879762Y-41147676D02*
X166784524Y-41242914D01*
X166784524Y-41242914D02*
X166689286Y-41290533D01*
X149777381Y-70606009D02*
X149920238Y-70653628D01*
X149920238Y-70653628D02*
X149967857Y-70701247D01*
X149967857Y-70701247D02*
X150015476Y-70796485D01*
X150015476Y-70796485D02*
X150015476Y-70939342D01*
X150015476Y-70939342D02*
X149967857Y-71034580D01*
X149967857Y-71034580D02*
X149920238Y-71082200D01*
X149920238Y-71082200D02*
X149825000Y-71129819D01*
X149825000Y-71129819D02*
X149444048Y-71129819D01*
X149444048Y-71129819D02*
X149444048Y-70129819D01*
X149444048Y-70129819D02*
X149777381Y-70129819D01*
X149777381Y-70129819D02*
X149872619Y-70177438D01*
X149872619Y-70177438D02*
X149920238Y-70225057D01*
X149920238Y-70225057D02*
X149967857Y-70320295D01*
X149967857Y-70320295D02*
X149967857Y-70415533D01*
X149967857Y-70415533D02*
X149920238Y-70510771D01*
X149920238Y-70510771D02*
X149872619Y-70558390D01*
X149872619Y-70558390D02*
X149777381Y-70606009D01*
X149777381Y-70606009D02*
X149444048Y-70606009D01*
X150444048Y-70748866D02*
X151205953Y-70748866D01*
X164238095Y-53404819D02*
X164238095Y-54214342D01*
X164238095Y-54214342D02*
X164285714Y-54309580D01*
X164285714Y-54309580D02*
X164333333Y-54357200D01*
X164333333Y-54357200D02*
X164428571Y-54404819D01*
X164428571Y-54404819D02*
X164619047Y-54404819D01*
X164619047Y-54404819D02*
X164714285Y-54357200D01*
X164714285Y-54357200D02*
X164761904Y-54309580D01*
X164761904Y-54309580D02*
X164809523Y-54214342D01*
X164809523Y-54214342D02*
X164809523Y-53404819D01*
X165238095Y-53500057D02*
X165285714Y-53452438D01*
X165285714Y-53452438D02*
X165380952Y-53404819D01*
X165380952Y-53404819D02*
X165619047Y-53404819D01*
X165619047Y-53404819D02*
X165714285Y-53452438D01*
X165714285Y-53452438D02*
X165761904Y-53500057D01*
X165761904Y-53500057D02*
X165809523Y-53595295D01*
X165809523Y-53595295D02*
X165809523Y-53690533D01*
X165809523Y-53690533D02*
X165761904Y-53833390D01*
X165761904Y-53833390D02*
X165190476Y-54404819D01*
X165190476Y-54404819D02*
X165809523Y-54404819D01*
X142195238Y-41532200D02*
X142338095Y-41579819D01*
X142338095Y-41579819D02*
X142576190Y-41579819D01*
X142576190Y-41579819D02*
X142671428Y-41532200D01*
X142671428Y-41532200D02*
X142719047Y-41484580D01*
X142719047Y-41484580D02*
X142766666Y-41389342D01*
X142766666Y-41389342D02*
X142766666Y-41294104D01*
X142766666Y-41294104D02*
X142719047Y-41198866D01*
X142719047Y-41198866D02*
X142671428Y-41151247D01*
X142671428Y-41151247D02*
X142576190Y-41103628D01*
X142576190Y-41103628D02*
X142385714Y-41056009D01*
X142385714Y-41056009D02*
X142290476Y-41008390D01*
X142290476Y-41008390D02*
X142242857Y-40960771D01*
X142242857Y-40960771D02*
X142195238Y-40865533D01*
X142195238Y-40865533D02*
X142195238Y-40770295D01*
X142195238Y-40770295D02*
X142242857Y-40675057D01*
X142242857Y-40675057D02*
X142290476Y-40627438D01*
X142290476Y-40627438D02*
X142385714Y-40579819D01*
X142385714Y-40579819D02*
X142623809Y-40579819D01*
X142623809Y-40579819D02*
X142766666Y-40627438D01*
X143195238Y-41198866D02*
X143957143Y-41198866D01*
X143576190Y-41579819D02*
X143576190Y-40817914D01*
D15*
X152950000Y-43272371D02*
X152750000Y-42986657D01*
X152607143Y-43272371D02*
X152607143Y-42672371D01*
X152607143Y-42672371D02*
X152835714Y-42672371D01*
X152835714Y-42672371D02*
X152892857Y-42700942D01*
X152892857Y-42700942D02*
X152921428Y-42729514D01*
X152921428Y-42729514D02*
X152950000Y-42786657D01*
X152950000Y-42786657D02*
X152950000Y-42872371D01*
X152950000Y-42872371D02*
X152921428Y-42929514D01*
X152921428Y-42929514D02*
X152892857Y-42958085D01*
X152892857Y-42958085D02*
X152835714Y-42986657D01*
X152835714Y-42986657D02*
X152607143Y-42986657D01*
X153178571Y-42729514D02*
X153207143Y-42700942D01*
X153207143Y-42700942D02*
X153264286Y-42672371D01*
X153264286Y-42672371D02*
X153407143Y-42672371D01*
X153407143Y-42672371D02*
X153464286Y-42700942D01*
X153464286Y-42700942D02*
X153492857Y-42729514D01*
X153492857Y-42729514D02*
X153521428Y-42786657D01*
X153521428Y-42786657D02*
X153521428Y-42843800D01*
X153521428Y-42843800D02*
X153492857Y-42929514D01*
X153492857Y-42929514D02*
X153150000Y-43272371D01*
X153150000Y-43272371D02*
X153521428Y-43272371D01*
X142491752Y-54991666D02*
X142510800Y-55010714D01*
X142510800Y-55010714D02*
X142529847Y-55067856D01*
X142529847Y-55067856D02*
X142529847Y-55105952D01*
X142529847Y-55105952D02*
X142510800Y-55163095D01*
X142510800Y-55163095D02*
X142472704Y-55201190D01*
X142472704Y-55201190D02*
X142434609Y-55220237D01*
X142434609Y-55220237D02*
X142358419Y-55239285D01*
X142358419Y-55239285D02*
X142301276Y-55239285D01*
X142301276Y-55239285D02*
X142225085Y-55220237D01*
X142225085Y-55220237D02*
X142186990Y-55201190D01*
X142186990Y-55201190D02*
X142148895Y-55163095D01*
X142148895Y-55163095D02*
X142129847Y-55105952D01*
X142129847Y-55105952D02*
X142129847Y-55067856D01*
X142129847Y-55067856D02*
X142148895Y-55010714D01*
X142148895Y-55010714D02*
X142167942Y-54991666D01*
X142129847Y-54648809D02*
X142129847Y-54724999D01*
X142129847Y-54724999D02*
X142148895Y-54763095D01*
X142148895Y-54763095D02*
X142167942Y-54782142D01*
X142167942Y-54782142D02*
X142225085Y-54820237D01*
X142225085Y-54820237D02*
X142301276Y-54839285D01*
X142301276Y-54839285D02*
X142453657Y-54839285D01*
X142453657Y-54839285D02*
X142491752Y-54820237D01*
X142491752Y-54820237D02*
X142510800Y-54801190D01*
X142510800Y-54801190D02*
X142529847Y-54763095D01*
X142529847Y-54763095D02*
X142529847Y-54686904D01*
X142529847Y-54686904D02*
X142510800Y-54648809D01*
X142510800Y-54648809D02*
X142491752Y-54629761D01*
X142491752Y-54629761D02*
X142453657Y-54610714D01*
X142453657Y-54610714D02*
X142358419Y-54610714D01*
X142358419Y-54610714D02*
X142320323Y-54629761D01*
X142320323Y-54629761D02*
X142301276Y-54648809D01*
X142301276Y-54648809D02*
X142282228Y-54686904D01*
X142282228Y-54686904D02*
X142282228Y-54763095D01*
X142282228Y-54763095D02*
X142301276Y-54801190D01*
X142301276Y-54801190D02*
X142320323Y-54820237D01*
X142320323Y-54820237D02*
X142358419Y-54839285D01*
X138475000Y-45622371D02*
X138275000Y-45336657D01*
X138132143Y-45622371D02*
X138132143Y-45022371D01*
X138132143Y-45022371D02*
X138360714Y-45022371D01*
X138360714Y-45022371D02*
X138417857Y-45050942D01*
X138417857Y-45050942D02*
X138446428Y-45079514D01*
X138446428Y-45079514D02*
X138475000Y-45136657D01*
X138475000Y-45136657D02*
X138475000Y-45222371D01*
X138475000Y-45222371D02*
X138446428Y-45279514D01*
X138446428Y-45279514D02*
X138417857Y-45308085D01*
X138417857Y-45308085D02*
X138360714Y-45336657D01*
X138360714Y-45336657D02*
X138132143Y-45336657D01*
X138675000Y-45022371D02*
X139075000Y-45022371D01*
X139075000Y-45022371D02*
X138817857Y-45622371D01*
D10*
X163727618Y-49163276D02*
X163727618Y-48523276D01*
X163727618Y-48523276D02*
X163879999Y-48523276D01*
X163879999Y-48523276D02*
X163971428Y-48553752D01*
X163971428Y-48553752D02*
X164032380Y-48614704D01*
X164032380Y-48614704D02*
X164062857Y-48675657D01*
X164062857Y-48675657D02*
X164093333Y-48797561D01*
X164093333Y-48797561D02*
X164093333Y-48888990D01*
X164093333Y-48888990D02*
X164062857Y-49010895D01*
X164062857Y-49010895D02*
X164032380Y-49071847D01*
X164032380Y-49071847D02*
X163971428Y-49132800D01*
X163971428Y-49132800D02*
X163879999Y-49163276D01*
X163879999Y-49163276D02*
X163727618Y-49163276D01*
X164337142Y-48584228D02*
X164367618Y-48553752D01*
X164367618Y-48553752D02*
X164428571Y-48523276D01*
X164428571Y-48523276D02*
X164580952Y-48523276D01*
X164580952Y-48523276D02*
X164641904Y-48553752D01*
X164641904Y-48553752D02*
X164672380Y-48584228D01*
X164672380Y-48584228D02*
X164702857Y-48645180D01*
X164702857Y-48645180D02*
X164702857Y-48706133D01*
X164702857Y-48706133D02*
X164672380Y-48797561D01*
X164672380Y-48797561D02*
X164306666Y-49163276D01*
X164306666Y-49163276D02*
X164702857Y-49163276D01*
D13*
X167187142Y-47727960D02*
X167552857Y-47727960D01*
X167369999Y-47910817D02*
X167369999Y-47545102D01*
D10*
X163727618Y-44063276D02*
X163727618Y-43423276D01*
X163727618Y-43423276D02*
X163879999Y-43423276D01*
X163879999Y-43423276D02*
X163971428Y-43453752D01*
X163971428Y-43453752D02*
X164032380Y-43514704D01*
X164032380Y-43514704D02*
X164062857Y-43575657D01*
X164062857Y-43575657D02*
X164093333Y-43697561D01*
X164093333Y-43697561D02*
X164093333Y-43788990D01*
X164093333Y-43788990D02*
X164062857Y-43910895D01*
X164062857Y-43910895D02*
X164032380Y-43971847D01*
X164032380Y-43971847D02*
X163971428Y-44032800D01*
X163971428Y-44032800D02*
X163879999Y-44063276D01*
X163879999Y-44063276D02*
X163727618Y-44063276D01*
X164702857Y-44063276D02*
X164337142Y-44063276D01*
X164519999Y-44063276D02*
X164519999Y-43423276D01*
X164519999Y-43423276D02*
X164459047Y-43514704D01*
X164459047Y-43514704D02*
X164398095Y-43575657D01*
X164398095Y-43575657D02*
X164337142Y-43606133D01*
D13*
X167187142Y-45627960D02*
X167552857Y-45627960D01*
X167369999Y-45810817D02*
X167369999Y-45445102D01*
D10*
X158503824Y-40710127D02*
X158503824Y-41277702D01*
X158503824Y-41277702D02*
X158537211Y-41344476D01*
X158537211Y-41344476D02*
X158570598Y-41377863D01*
X158570598Y-41377863D02*
X158637371Y-41411249D01*
X158637371Y-41411249D02*
X158770918Y-41411249D01*
X158770918Y-41411249D02*
X158837692Y-41377863D01*
X158837692Y-41377863D02*
X158871079Y-41344476D01*
X158871079Y-41344476D02*
X158904465Y-41277702D01*
X158904465Y-41277702D02*
X158904465Y-40710127D01*
X159605588Y-41411249D02*
X159204947Y-41411249D01*
X159405267Y-41411249D02*
X159405267Y-40710127D01*
X159405267Y-40710127D02*
X159338494Y-40810288D01*
X159338494Y-40810288D02*
X159271720Y-40877061D01*
X159271720Y-40877061D02*
X159204947Y-40910448D01*
X192014819Y-47434523D02*
X191014819Y-47434523D01*
X191014819Y-47434523D02*
X191729104Y-47101190D01*
X191729104Y-47101190D02*
X191014819Y-46767857D01*
X191014819Y-46767857D02*
X192014819Y-46767857D01*
X191110057Y-46339285D02*
X191062438Y-46291666D01*
X191062438Y-46291666D02*
X191014819Y-46196428D01*
X191014819Y-46196428D02*
X191014819Y-45958333D01*
X191014819Y-45958333D02*
X191062438Y-45863095D01*
X191062438Y-45863095D02*
X191110057Y-45815476D01*
X191110057Y-45815476D02*
X191205295Y-45767857D01*
X191205295Y-45767857D02*
X191300533Y-45767857D01*
X191300533Y-45767857D02*
X191443390Y-45815476D01*
X191443390Y-45815476D02*
X192014819Y-46386904D01*
X192014819Y-46386904D02*
X192014819Y-45767857D01*
D15*
X150800000Y-41715228D02*
X150771428Y-41743800D01*
X150771428Y-41743800D02*
X150685714Y-41772371D01*
X150685714Y-41772371D02*
X150628571Y-41772371D01*
X150628571Y-41772371D02*
X150542857Y-41743800D01*
X150542857Y-41743800D02*
X150485714Y-41686657D01*
X150485714Y-41686657D02*
X150457143Y-41629514D01*
X150457143Y-41629514D02*
X150428571Y-41515228D01*
X150428571Y-41515228D02*
X150428571Y-41429514D01*
X150428571Y-41429514D02*
X150457143Y-41315228D01*
X150457143Y-41315228D02*
X150485714Y-41258085D01*
X150485714Y-41258085D02*
X150542857Y-41200942D01*
X150542857Y-41200942D02*
X150628571Y-41172371D01*
X150628571Y-41172371D02*
X150685714Y-41172371D01*
X150685714Y-41172371D02*
X150771428Y-41200942D01*
X150771428Y-41200942D02*
X150800000Y-41229514D01*
X151371428Y-41772371D02*
X151028571Y-41772371D01*
X151200000Y-41772371D02*
X151200000Y-41172371D01*
X151200000Y-41172371D02*
X151142857Y-41258085D01*
X151142857Y-41258085D02*
X151085714Y-41315228D01*
X151085714Y-41315228D02*
X151028571Y-41343800D01*
D10*
X189303571Y-60409580D02*
X189255952Y-60457200D01*
X189255952Y-60457200D02*
X189113095Y-60504819D01*
X189113095Y-60504819D02*
X189017857Y-60504819D01*
X189017857Y-60504819D02*
X188875000Y-60457200D01*
X188875000Y-60457200D02*
X188779762Y-60361961D01*
X188779762Y-60361961D02*
X188732143Y-60266723D01*
X188732143Y-60266723D02*
X188684524Y-60076247D01*
X188684524Y-60076247D02*
X188684524Y-59933390D01*
X188684524Y-59933390D02*
X188732143Y-59742914D01*
X188732143Y-59742914D02*
X188779762Y-59647676D01*
X188779762Y-59647676D02*
X188875000Y-59552438D01*
X188875000Y-59552438D02*
X189017857Y-59504819D01*
X189017857Y-59504819D02*
X189113095Y-59504819D01*
X189113095Y-59504819D02*
X189255952Y-59552438D01*
X189255952Y-59552438D02*
X189303571Y-59600057D01*
X190160714Y-59504819D02*
X189970238Y-59504819D01*
X189970238Y-59504819D02*
X189875000Y-59552438D01*
X189875000Y-59552438D02*
X189827381Y-59600057D01*
X189827381Y-59600057D02*
X189732143Y-59742914D01*
X189732143Y-59742914D02*
X189684524Y-59933390D01*
X189684524Y-59933390D02*
X189684524Y-60314342D01*
X189684524Y-60314342D02*
X189732143Y-60409580D01*
X189732143Y-60409580D02*
X189779762Y-60457200D01*
X189779762Y-60457200D02*
X189875000Y-60504819D01*
X189875000Y-60504819D02*
X190065476Y-60504819D01*
X190065476Y-60504819D02*
X190160714Y-60457200D01*
X190160714Y-60457200D02*
X190208333Y-60409580D01*
X190208333Y-60409580D02*
X190255952Y-60314342D01*
X190255952Y-60314342D02*
X190255952Y-60076247D01*
X190255952Y-60076247D02*
X190208333Y-59981009D01*
X190208333Y-59981009D02*
X190160714Y-59933390D01*
X190160714Y-59933390D02*
X190065476Y-59885771D01*
X190065476Y-59885771D02*
X189875000Y-59885771D01*
X189875000Y-59885771D02*
X189779762Y-59933390D01*
X189779762Y-59933390D02*
X189732143Y-59981009D01*
X189732143Y-59981009D02*
X189684524Y-60076247D01*
X191113095Y-60457200D02*
X191017857Y-60504819D01*
X191017857Y-60504819D02*
X190827381Y-60504819D01*
X190827381Y-60504819D02*
X190732143Y-60457200D01*
X190732143Y-60457200D02*
X190684524Y-60409580D01*
X190684524Y-60409580D02*
X190636905Y-60314342D01*
X190636905Y-60314342D02*
X190636905Y-60028628D01*
X190636905Y-60028628D02*
X190684524Y-59933390D01*
X190684524Y-59933390D02*
X190732143Y-59885771D01*
X190732143Y-59885771D02*
X190827381Y-59838152D01*
X190827381Y-59838152D02*
X191017857Y-59838152D01*
X191017857Y-59838152D02*
X191113095Y-59885771D01*
X192065476Y-60504819D02*
X191494048Y-60504819D01*
X191779762Y-60504819D02*
X191779762Y-59504819D01*
X191779762Y-59504819D02*
X191684524Y-59647676D01*
X191684524Y-59647676D02*
X191589286Y-59742914D01*
X191589286Y-59742914D02*
X191494048Y-59790533D01*
D12*
X170252014Y-57078116D02*
X170064538Y-57209350D01*
X170252014Y-57303088D02*
X169858313Y-57303088D01*
X169858313Y-57303088D02*
X169858313Y-57153107D01*
X169858313Y-57153107D02*
X169877061Y-57115612D01*
X169877061Y-57115612D02*
X169895809Y-57096864D01*
X169895809Y-57096864D02*
X169933304Y-57078116D01*
X169933304Y-57078116D02*
X169989547Y-57078116D01*
X169989547Y-57078116D02*
X170027042Y-57096864D01*
X170027042Y-57096864D02*
X170045790Y-57115612D01*
X170045790Y-57115612D02*
X170064538Y-57153107D01*
X170064538Y-57153107D02*
X170064538Y-57303088D01*
X169858313Y-56946883D02*
X169858313Y-56703163D01*
X169858313Y-56703163D02*
X170008295Y-56834397D01*
X170008295Y-56834397D02*
X170008295Y-56778154D01*
X170008295Y-56778154D02*
X170027042Y-56740658D01*
X170027042Y-56740658D02*
X170045790Y-56721911D01*
X170045790Y-56721911D02*
X170083285Y-56703163D01*
X170083285Y-56703163D02*
X170177024Y-56703163D01*
X170177024Y-56703163D02*
X170214519Y-56721911D01*
X170214519Y-56721911D02*
X170233267Y-56740658D01*
X170233267Y-56740658D02*
X170252014Y-56778154D01*
X170252014Y-56778154D02*
X170252014Y-56890640D01*
X170252014Y-56890640D02*
X170233267Y-56928135D01*
X170233267Y-56928135D02*
X170214519Y-56946883D01*
D10*
X167763276Y-56431166D02*
X167458514Y-56644500D01*
X167763276Y-56796881D02*
X167123276Y-56796881D01*
X167123276Y-56796881D02*
X167123276Y-56553071D01*
X167123276Y-56553071D02*
X167153752Y-56492119D01*
X167153752Y-56492119D02*
X167184228Y-56461642D01*
X167184228Y-56461642D02*
X167245180Y-56431166D01*
X167245180Y-56431166D02*
X167336609Y-56431166D01*
X167336609Y-56431166D02*
X167397561Y-56461642D01*
X167397561Y-56461642D02*
X167428038Y-56492119D01*
X167428038Y-56492119D02*
X167458514Y-56553071D01*
X167458514Y-56553071D02*
X167458514Y-56796881D01*
X167336609Y-55882595D02*
X167763276Y-55882595D01*
X167092800Y-56034976D02*
X167549942Y-56187357D01*
X167549942Y-56187357D02*
X167549942Y-55791166D01*
X153145013Y-49123621D02*
X153115016Y-49153618D01*
X153115016Y-49153618D02*
X153025028Y-49183614D01*
X153025028Y-49183614D02*
X152965035Y-49183614D01*
X152965035Y-49183614D02*
X152875046Y-49153618D01*
X152875046Y-49153618D02*
X152815054Y-49093625D01*
X152815054Y-49093625D02*
X152785058Y-49033633D01*
X152785058Y-49033633D02*
X152755061Y-48913648D01*
X152755061Y-48913648D02*
X152755061Y-48823659D01*
X152755061Y-48823659D02*
X152785058Y-48703674D01*
X152785058Y-48703674D02*
X152815054Y-48643681D01*
X152815054Y-48643681D02*
X152875046Y-48583689D01*
X152875046Y-48583689D02*
X152965035Y-48553693D01*
X152965035Y-48553693D02*
X153025028Y-48553693D01*
X153025028Y-48553693D02*
X153115016Y-48583689D01*
X153115016Y-48583689D02*
X153145013Y-48613685D01*
X153354986Y-48553693D02*
X153744937Y-48553693D01*
X153744937Y-48553693D02*
X153534964Y-48793663D01*
X153534964Y-48793663D02*
X153624952Y-48793663D01*
X153624952Y-48793663D02*
X153684945Y-48823659D01*
X153684945Y-48823659D02*
X153714941Y-48853655D01*
X153714941Y-48853655D02*
X153744937Y-48913648D01*
X153744937Y-48913648D02*
X153744937Y-49063629D01*
X153744937Y-49063629D02*
X153714941Y-49123621D01*
X153714941Y-49123621D02*
X153684945Y-49153618D01*
X153684945Y-49153618D02*
X153624952Y-49183614D01*
X153624952Y-49183614D02*
X153444975Y-49183614D01*
X153444975Y-49183614D02*
X153384982Y-49153618D01*
X153384982Y-49153618D02*
X153354986Y-49123621D01*
D15*
X155566667Y-54014895D02*
X155300000Y-53633942D01*
X155109524Y-54014895D02*
X155109524Y-53214895D01*
X155109524Y-53214895D02*
X155414286Y-53214895D01*
X155414286Y-53214895D02*
X155490476Y-53252990D01*
X155490476Y-53252990D02*
X155528571Y-53291085D01*
X155528571Y-53291085D02*
X155566667Y-53367276D01*
X155566667Y-53367276D02*
X155566667Y-53481561D01*
X155566667Y-53481561D02*
X155528571Y-53557752D01*
X155528571Y-53557752D02*
X155490476Y-53595847D01*
X155490476Y-53595847D02*
X155414286Y-53633942D01*
X155414286Y-53633942D02*
X155109524Y-53633942D01*
X155833333Y-53214895D02*
X156366667Y-53214895D01*
X156366667Y-53214895D02*
X156023809Y-54014895D01*
D10*
X151477618Y-53913276D02*
X151477618Y-53273276D01*
X151477618Y-53273276D02*
X151629999Y-53273276D01*
X151629999Y-53273276D02*
X151721428Y-53303752D01*
X151721428Y-53303752D02*
X151782380Y-53364704D01*
X151782380Y-53364704D02*
X151812857Y-53425657D01*
X151812857Y-53425657D02*
X151843333Y-53547561D01*
X151843333Y-53547561D02*
X151843333Y-53638990D01*
X151843333Y-53638990D02*
X151812857Y-53760895D01*
X151812857Y-53760895D02*
X151782380Y-53821847D01*
X151782380Y-53821847D02*
X151721428Y-53882800D01*
X151721428Y-53882800D02*
X151629999Y-53913276D01*
X151629999Y-53913276D02*
X151477618Y-53913276D01*
X152056666Y-53273276D02*
X152452857Y-53273276D01*
X152452857Y-53273276D02*
X152239523Y-53517085D01*
X152239523Y-53517085D02*
X152330952Y-53517085D01*
X152330952Y-53517085D02*
X152391904Y-53547561D01*
X152391904Y-53547561D02*
X152422380Y-53578038D01*
X152422380Y-53578038D02*
X152452857Y-53638990D01*
X152452857Y-53638990D02*
X152452857Y-53791371D01*
X152452857Y-53791371D02*
X152422380Y-53852323D01*
X152422380Y-53852323D02*
X152391904Y-53882800D01*
X152391904Y-53882800D02*
X152330952Y-53913276D01*
X152330952Y-53913276D02*
X152148095Y-53913276D01*
X152148095Y-53913276D02*
X152087142Y-53882800D01*
X152087142Y-53882800D02*
X152056666Y-53852323D01*
D13*
X153742142Y-52382960D02*
X154107857Y-52382960D01*
X153924999Y-52565817D02*
X153924999Y-52200102D01*
D15*
X180495228Y-55999999D02*
X180523800Y-56028571D01*
X180523800Y-56028571D02*
X180552371Y-56114285D01*
X180552371Y-56114285D02*
X180552371Y-56171428D01*
X180552371Y-56171428D02*
X180523800Y-56257142D01*
X180523800Y-56257142D02*
X180466657Y-56314285D01*
X180466657Y-56314285D02*
X180409514Y-56342856D01*
X180409514Y-56342856D02*
X180295228Y-56371428D01*
X180295228Y-56371428D02*
X180209514Y-56371428D01*
X180209514Y-56371428D02*
X180095228Y-56342856D01*
X180095228Y-56342856D02*
X180038085Y-56314285D01*
X180038085Y-56314285D02*
X179980942Y-56257142D01*
X179980942Y-56257142D02*
X179952371Y-56171428D01*
X179952371Y-56171428D02*
X179952371Y-56114285D01*
X179952371Y-56114285D02*
X179980942Y-56028571D01*
X179980942Y-56028571D02*
X180009514Y-55999999D01*
X179952371Y-55457142D02*
X179952371Y-55742856D01*
X179952371Y-55742856D02*
X180238085Y-55771428D01*
X180238085Y-55771428D02*
X180209514Y-55742856D01*
X180209514Y-55742856D02*
X180180942Y-55685714D01*
X180180942Y-55685714D02*
X180180942Y-55542856D01*
X180180942Y-55542856D02*
X180209514Y-55485714D01*
X180209514Y-55485714D02*
X180238085Y-55457142D01*
X180238085Y-55457142D02*
X180295228Y-55428571D01*
X180295228Y-55428571D02*
X180438085Y-55428571D01*
X180438085Y-55428571D02*
X180495228Y-55457142D01*
X180495228Y-55457142D02*
X180523800Y-55485714D01*
X180523800Y-55485714D02*
X180552371Y-55542856D01*
X180552371Y-55542856D02*
X180552371Y-55685714D01*
X180552371Y-55685714D02*
X180523800Y-55742856D01*
X180523800Y-55742856D02*
X180495228Y-55771428D01*
D10*
X176945180Y-47215333D02*
X176945180Y-46739143D01*
X176945180Y-46739143D02*
X177945180Y-46739143D01*
X176945180Y-48072476D02*
X176945180Y-47501048D01*
X176945180Y-47786762D02*
X177945180Y-47786762D01*
X177945180Y-47786762D02*
X177802323Y-47691524D01*
X177802323Y-47691524D02*
X177707085Y-47596286D01*
X177707085Y-47596286D02*
X177659466Y-47501048D01*
X179572380Y-51398276D02*
X179572380Y-51916371D01*
X179572380Y-51916371D02*
X179602857Y-51977323D01*
X179602857Y-51977323D02*
X179633333Y-52007800D01*
X179633333Y-52007800D02*
X179694285Y-52038276D01*
X179694285Y-52038276D02*
X179816190Y-52038276D01*
X179816190Y-52038276D02*
X179877142Y-52007800D01*
X179877142Y-52007800D02*
X179907619Y-51977323D01*
X179907619Y-51977323D02*
X179938095Y-51916371D01*
X179938095Y-51916371D02*
X179938095Y-51398276D01*
X180181904Y-51398276D02*
X180578095Y-51398276D01*
X180578095Y-51398276D02*
X180364761Y-51642085D01*
X180364761Y-51642085D02*
X180456190Y-51642085D01*
X180456190Y-51642085D02*
X180517142Y-51672561D01*
X180517142Y-51672561D02*
X180547618Y-51703038D01*
X180547618Y-51703038D02*
X180578095Y-51763990D01*
X180578095Y-51763990D02*
X180578095Y-51916371D01*
X180578095Y-51916371D02*
X180547618Y-51977323D01*
X180547618Y-51977323D02*
X180517142Y-52007800D01*
X180517142Y-52007800D02*
X180456190Y-52038276D01*
X180456190Y-52038276D02*
X180273333Y-52038276D01*
X180273333Y-52038276D02*
X180212380Y-52007800D01*
X180212380Y-52007800D02*
X180181904Y-51977323D01*
X142802381Y-70606009D02*
X142945238Y-70653628D01*
X142945238Y-70653628D02*
X142992857Y-70701247D01*
X142992857Y-70701247D02*
X143040476Y-70796485D01*
X143040476Y-70796485D02*
X143040476Y-70939342D01*
X143040476Y-70939342D02*
X142992857Y-71034580D01*
X142992857Y-71034580D02*
X142945238Y-71082200D01*
X142945238Y-71082200D02*
X142850000Y-71129819D01*
X142850000Y-71129819D02*
X142469048Y-71129819D01*
X142469048Y-71129819D02*
X142469048Y-70129819D01*
X142469048Y-70129819D02*
X142802381Y-70129819D01*
X142802381Y-70129819D02*
X142897619Y-70177438D01*
X142897619Y-70177438D02*
X142945238Y-70225057D01*
X142945238Y-70225057D02*
X142992857Y-70320295D01*
X142992857Y-70320295D02*
X142992857Y-70415533D01*
X142992857Y-70415533D02*
X142945238Y-70510771D01*
X142945238Y-70510771D02*
X142897619Y-70558390D01*
X142897619Y-70558390D02*
X142802381Y-70606009D01*
X142802381Y-70606009D02*
X142469048Y-70606009D01*
X143469048Y-70748866D02*
X144230953Y-70748866D01*
X143850000Y-71129819D02*
X143850000Y-70367914D01*
X137945238Y-41382200D02*
X138088095Y-41429819D01*
X138088095Y-41429819D02*
X138326190Y-41429819D01*
X138326190Y-41429819D02*
X138421428Y-41382200D01*
X138421428Y-41382200D02*
X138469047Y-41334580D01*
X138469047Y-41334580D02*
X138516666Y-41239342D01*
X138516666Y-41239342D02*
X138516666Y-41144104D01*
X138516666Y-41144104D02*
X138469047Y-41048866D01*
X138469047Y-41048866D02*
X138421428Y-41001247D01*
X138421428Y-41001247D02*
X138326190Y-40953628D01*
X138326190Y-40953628D02*
X138135714Y-40906009D01*
X138135714Y-40906009D02*
X138040476Y-40858390D01*
X138040476Y-40858390D02*
X137992857Y-40810771D01*
X137992857Y-40810771D02*
X137945238Y-40715533D01*
X137945238Y-40715533D02*
X137945238Y-40620295D01*
X137945238Y-40620295D02*
X137992857Y-40525057D01*
X137992857Y-40525057D02*
X138040476Y-40477438D01*
X138040476Y-40477438D02*
X138135714Y-40429819D01*
X138135714Y-40429819D02*
X138373809Y-40429819D01*
X138373809Y-40429819D02*
X138516666Y-40477438D01*
X138945238Y-41048866D02*
X139707143Y-41048866D01*
X142427618Y-45588276D02*
X142427618Y-44948276D01*
X142427618Y-44948276D02*
X142579999Y-44948276D01*
X142579999Y-44948276D02*
X142671428Y-44978752D01*
X142671428Y-44978752D02*
X142732380Y-45039704D01*
X142732380Y-45039704D02*
X142762857Y-45100657D01*
X142762857Y-45100657D02*
X142793333Y-45222561D01*
X142793333Y-45222561D02*
X142793333Y-45313990D01*
X142793333Y-45313990D02*
X142762857Y-45435895D01*
X142762857Y-45435895D02*
X142732380Y-45496847D01*
X142732380Y-45496847D02*
X142671428Y-45557800D01*
X142671428Y-45557800D02*
X142579999Y-45588276D01*
X142579999Y-45588276D02*
X142427618Y-45588276D01*
X143372380Y-44948276D02*
X143067618Y-44948276D01*
X143067618Y-44948276D02*
X143037142Y-45253038D01*
X143037142Y-45253038D02*
X143067618Y-45222561D01*
X143067618Y-45222561D02*
X143128571Y-45192085D01*
X143128571Y-45192085D02*
X143280952Y-45192085D01*
X143280952Y-45192085D02*
X143341904Y-45222561D01*
X143341904Y-45222561D02*
X143372380Y-45253038D01*
X143372380Y-45253038D02*
X143402857Y-45313990D01*
X143402857Y-45313990D02*
X143402857Y-45466371D01*
X143402857Y-45466371D02*
X143372380Y-45527323D01*
X143372380Y-45527323D02*
X143341904Y-45557800D01*
X143341904Y-45557800D02*
X143280952Y-45588276D01*
X143280952Y-45588276D02*
X143128571Y-45588276D01*
X143128571Y-45588276D02*
X143067618Y-45557800D01*
X143067618Y-45557800D02*
X143037142Y-45527323D01*
D13*
X140817142Y-46507960D02*
X141182857Y-46507960D01*
X140999999Y-46690817D02*
X140999999Y-46325102D01*
D15*
X186458333Y-50991752D02*
X186439285Y-51010800D01*
X186439285Y-51010800D02*
X186382143Y-51029847D01*
X186382143Y-51029847D02*
X186344047Y-51029847D01*
X186344047Y-51029847D02*
X186286904Y-51010800D01*
X186286904Y-51010800D02*
X186248809Y-50972704D01*
X186248809Y-50972704D02*
X186229762Y-50934609D01*
X186229762Y-50934609D02*
X186210714Y-50858419D01*
X186210714Y-50858419D02*
X186210714Y-50801276D01*
X186210714Y-50801276D02*
X186229762Y-50725085D01*
X186229762Y-50725085D02*
X186248809Y-50686990D01*
X186248809Y-50686990D02*
X186286904Y-50648895D01*
X186286904Y-50648895D02*
X186344047Y-50629847D01*
X186344047Y-50629847D02*
X186382143Y-50629847D01*
X186382143Y-50629847D02*
X186439285Y-50648895D01*
X186439285Y-50648895D02*
X186458333Y-50667942D01*
X186610714Y-50667942D02*
X186629762Y-50648895D01*
X186629762Y-50648895D02*
X186667857Y-50629847D01*
X186667857Y-50629847D02*
X186763095Y-50629847D01*
X186763095Y-50629847D02*
X186801190Y-50648895D01*
X186801190Y-50648895D02*
X186820238Y-50667942D01*
X186820238Y-50667942D02*
X186839285Y-50706038D01*
X186839285Y-50706038D02*
X186839285Y-50744133D01*
X186839285Y-50744133D02*
X186820238Y-50801276D01*
X186820238Y-50801276D02*
X186591666Y-51029847D01*
X186591666Y-51029847D02*
X186839285Y-51029847D01*
D17*
%TO.C,I1*%
X140002000Y-51705000D02*
G75*
G03*
X140002000Y-51705000I-100000J0D01*
G01*
D18*
X137120000Y-56775000D02*
X139200000Y-56775000D01*
X139200000Y-56775000D02*
X139200000Y-56225000D01*
X134300000Y-49275000D02*
X134300000Y-56775000D01*
X137120000Y-49275000D02*
X139200000Y-49275000D01*
X139200000Y-49275000D02*
X139200000Y-49825000D01*
D13*
%TO.C,O2*%
X191560000Y-68307500D02*
X191560000Y-76847500D01*
X191560000Y-64607500D02*
X191560000Y-62627500D01*
X181200000Y-61747500D02*
X180200000Y-61747500D01*
X176840000Y-62627500D02*
X176840000Y-64607500D01*
X180200000Y-61747500D02*
X180700000Y-62247500D01*
X176840000Y-76847500D02*
X191560000Y-76847500D01*
X180700000Y-62247500D02*
X181200000Y-61747500D01*
X176840000Y-62627500D02*
X191560000Y-62627500D01*
X176840000Y-68307500D02*
X176840000Y-76847500D01*
%TO.C,O1*%
X173685000Y-68307500D02*
X173685000Y-76847500D01*
X173685000Y-64607500D02*
X173685000Y-62627500D01*
X163325000Y-61747500D02*
X162325000Y-61747500D01*
X158965000Y-62627500D02*
X158965000Y-64607500D01*
X162325000Y-61747500D02*
X162825000Y-62247500D01*
X158965000Y-76847500D02*
X173685000Y-76847500D01*
X162825000Y-62247500D02*
X163325000Y-61747500D01*
X158965000Y-62627500D02*
X173685000Y-62627500D01*
X158965000Y-68307500D02*
X158965000Y-76847500D01*
%TO.C,R6*%
X190572936Y-42290000D02*
X191027064Y-42290000D01*
X190572936Y-43760000D02*
X191027064Y-43760000D01*
D18*
%TO.C,Z2*%
X173250000Y-59037500D02*
X173900000Y-59037500D01*
X179150000Y-59037500D02*
X178500000Y-59037500D01*
X179150000Y-59037500D02*
X179150000Y-52162500D01*
X173250000Y-52162500D02*
X173250000Y-59037500D01*
X173900000Y-52162500D02*
X173250000Y-52162500D01*
X179150000Y-52162500D02*
X178500000Y-52162500D01*
D17*
X176300000Y-60600000D02*
G75*
G03*
X176300000Y-60600000I-100000J0D01*
G01*
D18*
%TO.C,R5*%
X184915000Y-48925000D02*
X185135000Y-48925000D01*
X184915000Y-48025000D02*
X185135000Y-48025000D01*
D17*
%TO.C,D4*%
X192325000Y-50587000D02*
X192325000Y-51019000D01*
X190875000Y-50594000D02*
X190875000Y-51012000D01*
D15*
X191600000Y-50670000D02*
X191740000Y-50910000D01*
X191740000Y-50910000D02*
X191450000Y-50910000D01*
X191450000Y-50910000D02*
X191600000Y-50670000D01*
D18*
%TO.C,M2*%
X158945000Y-49945000D02*
X158945000Y-51745000D01*
X162045000Y-51745000D02*
X162045000Y-49945000D01*
D17*
X161545000Y-48535000D02*
G75*
G03*
X161545000Y-48535000I-100000J0D01*
G01*
D19*
%TO.C,M1*%
X142275000Y-48600000D02*
X143075000Y-48600000D01*
X142275000Y-49200000D02*
X142275000Y-48600000D01*
X142275000Y-50800000D02*
X142275000Y-51400000D01*
X142275000Y-51400000D02*
X143075000Y-51400000D01*
D13*
%TO.C,C4*%
X170986252Y-60010000D02*
X170463748Y-60010000D01*
X170986252Y-58540000D02*
X170463748Y-58540000D01*
D18*
%TO.C,Z1*%
X148730000Y-46060000D02*
X148520000Y-46060000D01*
X146170000Y-46060000D02*
X146380000Y-46060000D01*
X146170000Y-46060000D02*
X146170000Y-50390000D01*
X148730000Y-50390000D02*
X148730000Y-46060000D01*
X148520000Y-50390000D02*
X148730000Y-50390000D01*
X146170000Y-50390000D02*
X146380000Y-50390000D01*
D17*
X147550000Y-44225000D02*
G75*
G03*
X147550000Y-44225000I-100000J0D01*
G01*
D13*
%TO.C,C1*%
X189010000Y-52086252D02*
X189010000Y-51563748D01*
X187540000Y-52086252D02*
X187540000Y-51563748D01*
D18*
%TO.C,C2*%
X148370000Y-42600000D02*
X148370000Y-43600000D01*
X149330000Y-43600000D02*
X149330000Y-42600000D01*
X166975000Y-51680000D02*
X167975000Y-51680000D01*
X167975000Y-50720000D02*
X166975000Y-50720000D01*
D13*
%TO.C,R1*%
X189470000Y-52428641D02*
X189470000Y-52121359D01*
X190230000Y-52428641D02*
X190230000Y-52121359D01*
X166850000Y-43016359D02*
X166850000Y-43323641D01*
X166090000Y-43016359D02*
X166090000Y-43323641D01*
%TO.C,B-*%
X148000000Y-69625000D02*
X148000000Y-65225000D01*
X152400000Y-69625000D02*
X148000000Y-69625000D01*
X148000000Y-65225000D02*
X152400000Y-65225000D01*
X152400000Y-65225000D02*
X152400000Y-69625000D01*
D18*
%TO.C,U2*%
X169137500Y-55240000D02*
X167437500Y-55240000D01*
X167437500Y-52110000D02*
X169137500Y-52110000D01*
D17*
X170692500Y-54625000D02*
G75*
G03*
X170692500Y-54625000I-100000J0D01*
G01*
D13*
%TO.C,S+*%
X141900000Y-42000000D02*
X144300000Y-42000000D01*
X141900000Y-44400000D02*
X141900000Y-42000000D01*
X144300000Y-42000000D02*
X144300000Y-44400000D01*
X144300000Y-44400000D02*
X141900000Y-44400000D01*
%TO.C,R2*%
X153880000Y-44917936D02*
X153880000Y-45372064D01*
X152410000Y-44917936D02*
X152410000Y-45372064D01*
%TO.C,R7*%
X138397936Y-46040000D02*
X138852064Y-46040000D01*
X138397936Y-47510000D02*
X138852064Y-47510000D01*
D17*
%TO.C,D2*%
X165257000Y-46670000D02*
X165689000Y-46670000D01*
X165264000Y-48120000D02*
X165682000Y-48120000D01*
D15*
X165340000Y-47395000D02*
X165580000Y-47255000D01*
X165580000Y-47255000D02*
X165580000Y-47545000D01*
X165580000Y-47545000D02*
X165340000Y-47395000D01*
D17*
%TO.C,D1*%
X165257000Y-44570000D02*
X165689000Y-44570000D01*
X165264000Y-46020000D02*
X165682000Y-46020000D01*
D15*
X165340000Y-45295000D02*
X165580000Y-45155000D01*
X165580000Y-45155000D02*
X165580000Y-45445000D01*
X165580000Y-45445000D02*
X165340000Y-45295000D01*
D18*
%TO.C,U1*%
X160720000Y-42220000D02*
X160720000Y-42420000D01*
X157451090Y-42220000D02*
X160720000Y-42220000D01*
X156920000Y-42751090D02*
X157451090Y-42220000D01*
D20*
X156853100Y-41799000D02*
G75*
G03*
X156853100Y-41799000I-165100J0D01*
G01*
D18*
%TO.C,M2*%
X187375000Y-45620000D02*
X187375000Y-47420000D01*
X190475000Y-47420000D02*
X190475000Y-45620000D01*
D17*
X189975000Y-44210000D02*
G75*
G03*
X189975000Y-44210000I-100000J0D01*
G01*
D13*
%TO.C,C1*%
X151660000Y-43413748D02*
X151660000Y-43936252D01*
X150190000Y-43413748D02*
X150190000Y-43936252D01*
D18*
%TO.C,C3*%
X152400000Y-48700000D02*
X151240000Y-48700000D01*
X151240000Y-47390000D02*
X152400000Y-47390000D01*
D13*
%TO.C,R7*%
X156739564Y-52735000D02*
X156285436Y-52735000D01*
X156739564Y-51265000D02*
X156285436Y-51265000D01*
D17*
%TO.C,D3*%
X151812000Y-51325000D02*
X152244000Y-51325000D01*
X151819000Y-52775000D02*
X152237000Y-52775000D01*
D15*
X151895000Y-52050000D02*
X152135000Y-51910000D01*
X152135000Y-51910000D02*
X152135000Y-52200000D01*
X152135000Y-52200000D02*
X151895000Y-52050000D01*
D18*
%TO.C,C5*%
X182785000Y-57825000D02*
X183625000Y-57825000D01*
X182785000Y-55025000D02*
X183625000Y-55025000D01*
D21*
%TO.C,L1*%
X176319800Y-44259800D02*
X175204740Y-44259800D01*
X171745260Y-44259800D02*
X170630200Y-44259800D01*
X170630200Y-44259800D02*
X170630200Y-50254200D01*
X176319800Y-50254200D02*
X176319800Y-44259800D01*
X175204740Y-50254200D02*
X176319800Y-50254200D01*
X170630200Y-50254200D02*
X171745260Y-50254200D01*
X173551200Y-43116800D02*
G75*
G03*
X173551200Y-43116800I-76200J0D01*
G01*
D17*
%TO.C,U3*%
X185555000Y-52800000D02*
G75*
G03*
X185555000Y-52800000I-100000J0D01*
G01*
D13*
%TO.C,B+*%
X141100000Y-69625000D02*
X141100000Y-65225000D01*
X145500000Y-69625000D02*
X141100000Y-69625000D01*
X141100000Y-65225000D02*
X145500000Y-65225000D01*
X145500000Y-65225000D02*
X145500000Y-69625000D01*
%TO.C,S-*%
X137650000Y-42000000D02*
X140050000Y-42000000D01*
X137650000Y-44400000D02*
X137650000Y-42000000D01*
X140050000Y-42000000D02*
X140050000Y-44400000D01*
X140050000Y-44400000D02*
X137650000Y-44400000D01*
D17*
%TO.C,D5*%
X143113000Y-47500000D02*
X142681000Y-47500000D01*
X143106000Y-46050000D02*
X142688000Y-46050000D01*
D15*
X143030000Y-46775000D02*
X142790000Y-46915000D01*
X142790000Y-46915000D02*
X142790000Y-46625000D01*
X142790000Y-46625000D02*
X143030000Y-46775000D01*
D18*
%TO.C,C2*%
X186145000Y-51795000D02*
X186145000Y-52795000D01*
X187105000Y-52795000D02*
X187105000Y-51795000D01*
%TD*%
M02*
