%TF.GenerationSoftware,KiCad,Pcbnew,7.0.8*%
%TF.CreationDate,2024-10-31T12:16:04-07:00*%
%TF.ProjectId,ECE196Team13,45434531-3936-4546-9561-6d31332e6b69,1*%
%TF.SameCoordinates,Original*%
%TF.FileFunction,Soldermask,Top*%
%TF.FilePolarity,Negative*%
%FSLAX46Y46*%
G04 Gerber Fmt 4.6, Leading zero omitted, Abs format (unit mm)*
G04 Created by KiCad (PCBNEW 7.0.8) date 2024-10-31 12:16:04*
%MOMM*%
%LPD*%
G01*
G04 APERTURE LIST*
G04 Aperture macros list*
%AMRoundRect*
0 Rectangle with rounded corners*
0 $1 Rounding radius*
0 $2 $3 $4 $5 $6 $7 $8 $9 X,Y pos of 4 corners*
0 Add a 4 corners polygon primitive as box body*
4,1,4,$2,$3,$4,$5,$6,$7,$8,$9,$2,$3,0*
0 Add four circle primitives for the rounded corners*
1,1,$1+$1,$2,$3*
1,1,$1+$1,$4,$5*
1,1,$1+$1,$6,$7*
1,1,$1+$1,$8,$9*
0 Add four rect primitives between the rounded corners*
20,1,$1+$1,$2,$3,$4,$5,0*
20,1,$1+$1,$4,$5,$6,$7,0*
20,1,$1+$1,$6,$7,$8,$9,0*
20,1,$1+$1,$8,$9,$2,$3,0*%
G04 Aperture macros list end*
%ADD10C,0.010000*%
%ADD11C,1.252400*%
%ADD12RoundRect,0.076200X-0.950000X0.900000X-0.950000X-0.900000X0.950000X-0.900000X0.950000X0.900000X0*%
%ADD13RoundRect,0.076200X-0.675000X0.200000X-0.675000X-0.200000X0.675000X-0.200000X0.675000X0.200000X0*%
%ADD14R,1.524000X1.524000*%
%ADD15C,1.524000*%
%ADD16C,3.500000*%
%ADD17RoundRect,0.250000X-0.262500X-0.450000X0.262500X-0.450000X0.262500X0.450000X-0.262500X0.450000X0*%
%ADD18RoundRect,0.102000X1.800000X-1.000000X1.800000X1.000000X-1.800000X1.000000X-1.800000X-1.000000X0*%
%ADD19RoundRect,0.102000X-0.395000X-0.465000X0.395000X-0.465000X0.395000X0.465000X-0.395000X0.465000X0*%
%ADD20RoundRect,0.102000X-0.600000X0.550000X-0.600000X-0.550000X0.600000X-0.550000X0.600000X0.550000X0*%
%ADD21RoundRect,0.100000X0.100000X-0.130000X0.100000X0.130000X-0.100000X0.130000X-0.100000X-0.130000X0*%
%ADD22RoundRect,0.249500X-0.147500X0.457500X-0.147500X-0.457500X0.147500X-0.457500X0.147500X0.457500X0*%
%ADD23RoundRect,0.102000X-0.450000X-0.400000X0.450000X-0.400000X0.450000X0.400000X-0.450000X0.400000X0*%
%ADD24RoundRect,0.250000X0.250000X0.475000X-0.250000X0.475000X-0.250000X-0.475000X0.250000X-0.475000X0*%
%ADD25RoundRect,0.102000X-0.750000X1.060000X-0.750000X-1.060000X0.750000X-1.060000X0.750000X1.060000X0*%
%ADD26RoundRect,0.250000X0.475000X-0.250000X0.475000X0.250000X-0.475000X0.250000X-0.475000X-0.250000X0*%
%ADD27RoundRect,0.245100X-0.156900X0.126900X-0.156900X-0.126900X0.156900X-0.126900X0.156900X0.126900X0*%
%ADD28RoundRect,0.245100X-0.126900X-0.156900X0.126900X-0.156900X0.126900X0.156900X-0.126900X0.156900X0*%
%ADD29RoundRect,0.135000X0.185000X-0.135000X0.185000X0.135000X-0.185000X0.135000X-0.185000X-0.135000X0*%
%ADD30RoundRect,0.135000X-0.185000X0.135000X-0.185000X-0.135000X0.185000X-0.135000X0.185000X0.135000X0*%
%ADD31R,4.000000X4.000000*%
%ADD32RoundRect,0.249500X0.537500X0.147500X-0.537500X0.147500X-0.537500X-0.147500X0.537500X-0.147500X0*%
%ADD33R,2.000000X2.000000*%
%ADD34RoundRect,0.250000X-0.450000X0.262500X-0.450000X-0.262500X0.450000X-0.262500X0.450000X0.262500X0*%
%ADD35RoundRect,0.102000X-0.550000X-0.600000X0.550000X-0.600000X0.550000X0.600000X-0.550000X0.600000X0*%
%ADD36RoundRect,0.102000X-0.700000X0.300000X-0.700000X-0.300000X0.700000X-0.300000X0.700000X0.300000X0*%
%ADD37RoundRect,0.250000X-0.475000X0.250000X-0.475000X-0.250000X0.475000X-0.250000X0.475000X0.250000X0*%
%ADD38RoundRect,0.100000X-0.130000X-0.100000X0.130000X-0.100000X0.130000X0.100000X-0.130000X0.100000X0*%
%ADD39RoundRect,0.102000X0.300000X-0.270000X0.300000X0.270000X-0.300000X0.270000X-0.300000X-0.270000X0*%
%ADD40RoundRect,0.102000X-0.250000X0.237500X-0.250000X-0.237500X0.250000X-0.237500X0.250000X0.237500X0*%
%ADD41RoundRect,0.102000X0.280000X0.340000X-0.280000X0.340000X-0.280000X-0.340000X0.280000X-0.340000X0*%
%ADD42RoundRect,0.250000X0.262500X0.450000X-0.262500X0.450000X-0.262500X-0.450000X0.262500X-0.450000X0*%
%ADD43RoundRect,0.102000X-0.685000X-1.405000X0.685000X-1.405000X0.685000X1.405000X-0.685000X1.405000X0*%
%ADD44R,2.794000X1.981200*%
%ADD45RoundRect,0.175750X0.611250X0.221250X-0.611250X0.221250X-0.611250X-0.221250X0.611250X-0.221250X0*%
%ADD46RoundRect,0.102000X0.550000X0.600000X-0.550000X0.600000X-0.550000X-0.600000X0.550000X-0.600000X0*%
%ADD47RoundRect,0.245100X0.156900X-0.126900X0.156900X0.126900X-0.156900X0.126900X-0.156900X-0.126900X0*%
G04 APERTURE END LIST*
%TO.C,I1*%
D10*
X136800500Y-57200000D02*
X136799500Y-57231000D01*
X136796500Y-57263000D01*
X136792500Y-57294000D01*
X136786500Y-57325000D01*
X136779500Y-57355000D01*
X136770500Y-57385000D01*
X136760500Y-57415000D01*
X136748500Y-57444000D01*
X136734500Y-57472000D01*
X136719500Y-57500000D01*
X136703500Y-57527000D01*
X136685500Y-57553000D01*
X136666500Y-57578000D01*
X136645500Y-57601000D01*
X136624500Y-57624000D01*
X136601500Y-57646000D01*
X136577500Y-57666000D01*
X136552500Y-57685000D01*
X136526500Y-57703000D01*
X136499500Y-57720000D01*
X136472500Y-57735000D01*
X136444500Y-57748000D01*
X136415500Y-57760000D01*
X136385500Y-57771000D01*
X136355500Y-57780000D01*
X136324500Y-57787000D01*
X136293500Y-57793000D01*
X136262500Y-57797000D01*
X136231500Y-57799000D01*
X136200500Y-57800000D01*
X135299500Y-57800000D01*
X135268500Y-57799000D01*
X135237500Y-57797000D01*
X135206500Y-57793000D01*
X135175500Y-57787000D01*
X135144500Y-57780000D01*
X135114500Y-57771000D01*
X135084500Y-57760000D01*
X135055500Y-57748000D01*
X135027500Y-57735000D01*
X135000500Y-57720000D01*
X134973500Y-57703000D01*
X134947500Y-57685000D01*
X134922500Y-57666000D01*
X134898500Y-57646000D01*
X134875500Y-57624000D01*
X134854500Y-57601000D01*
X134833500Y-57578000D01*
X134814500Y-57553000D01*
X134796500Y-57527000D01*
X134780500Y-57500000D01*
X134765500Y-57472000D01*
X134751500Y-57444000D01*
X134739500Y-57415000D01*
X134729500Y-57385000D01*
X134720500Y-57355000D01*
X134713500Y-57325000D01*
X134707500Y-57294000D01*
X134703500Y-57263000D01*
X134700500Y-57231000D01*
X134699500Y-57200000D01*
X134700000Y-55525000D01*
X136800500Y-55525000D01*
X136800500Y-57200000D01*
G36*
X136800500Y-57200000D02*
G01*
X136799500Y-57231000D01*
X136796500Y-57263000D01*
X136792500Y-57294000D01*
X136786500Y-57325000D01*
X136779500Y-57355000D01*
X136770500Y-57385000D01*
X136760500Y-57415000D01*
X136748500Y-57444000D01*
X136734500Y-57472000D01*
X136719500Y-57500000D01*
X136703500Y-57527000D01*
X136685500Y-57553000D01*
X136666500Y-57578000D01*
X136645500Y-57601000D01*
X136624500Y-57624000D01*
X136601500Y-57646000D01*
X136577500Y-57666000D01*
X136552500Y-57685000D01*
X136526500Y-57703000D01*
X136499500Y-57720000D01*
X136472500Y-57735000D01*
X136444500Y-57748000D01*
X136415500Y-57760000D01*
X136385500Y-57771000D01*
X136355500Y-57780000D01*
X136324500Y-57787000D01*
X136293500Y-57793000D01*
X136262500Y-57797000D01*
X136231500Y-57799000D01*
X136200500Y-57800000D01*
X135299500Y-57800000D01*
X135268500Y-57799000D01*
X135237500Y-57797000D01*
X135206500Y-57793000D01*
X135175500Y-57787000D01*
X135144500Y-57780000D01*
X135114500Y-57771000D01*
X135084500Y-57760000D01*
X135055500Y-57748000D01*
X135027500Y-57735000D01*
X135000500Y-57720000D01*
X134973500Y-57703000D01*
X134947500Y-57685000D01*
X134922500Y-57666000D01*
X134898500Y-57646000D01*
X134875500Y-57624000D01*
X134854500Y-57601000D01*
X134833500Y-57578000D01*
X134814500Y-57553000D01*
X134796500Y-57527000D01*
X134780500Y-57500000D01*
X134765500Y-57472000D01*
X134751500Y-57444000D01*
X134739500Y-57415000D01*
X134729500Y-57385000D01*
X134720500Y-57355000D01*
X134713500Y-57325000D01*
X134707500Y-57294000D01*
X134703500Y-57263000D01*
X134700500Y-57231000D01*
X134699500Y-57200000D01*
X134700000Y-55525000D01*
X136800500Y-55525000D01*
X136800500Y-57200000D01*
G37*
X136231500Y-48251000D02*
X136262500Y-48253000D01*
X136293500Y-48257000D01*
X136324500Y-48263000D01*
X136355500Y-48270000D01*
X136385500Y-48279000D01*
X136415500Y-48290000D01*
X136444500Y-48302000D01*
X136472500Y-48315000D01*
X136499500Y-48330000D01*
X136526500Y-48347000D01*
X136552500Y-48365000D01*
X136577500Y-48384000D01*
X136601500Y-48404000D01*
X136624500Y-48426000D01*
X136645500Y-48449000D01*
X136666500Y-48472000D01*
X136685500Y-48497000D01*
X136703500Y-48523000D01*
X136719500Y-48550000D01*
X136734500Y-48578000D01*
X136748500Y-48606000D01*
X136760500Y-48635000D01*
X136770500Y-48665000D01*
X136779500Y-48695000D01*
X136786500Y-48725000D01*
X136792500Y-48756000D01*
X136796500Y-48787000D01*
X136799500Y-48819000D01*
X136800500Y-48850000D01*
X136800000Y-50525000D01*
X134699500Y-50525000D01*
X134699500Y-48850000D01*
X134700500Y-48819000D01*
X134703500Y-48787000D01*
X134707500Y-48756000D01*
X134713500Y-48725000D01*
X134720500Y-48695000D01*
X134729500Y-48665000D01*
X134739500Y-48635000D01*
X134751500Y-48606000D01*
X134765500Y-48578000D01*
X134780500Y-48550000D01*
X134796500Y-48523000D01*
X134814500Y-48497000D01*
X134833500Y-48472000D01*
X134854500Y-48449000D01*
X134875500Y-48426000D01*
X134898500Y-48404000D01*
X134922500Y-48384000D01*
X134947500Y-48365000D01*
X134973500Y-48347000D01*
X135000500Y-48330000D01*
X135027500Y-48315000D01*
X135055500Y-48302000D01*
X135084500Y-48290000D01*
X135114500Y-48279000D01*
X135144500Y-48270000D01*
X135175500Y-48263000D01*
X135206500Y-48257000D01*
X135237500Y-48253000D01*
X135268500Y-48251000D01*
X135299500Y-48250000D01*
X136200500Y-48250000D01*
X136231500Y-48251000D01*
G36*
X136231500Y-48251000D02*
G01*
X136262500Y-48253000D01*
X136293500Y-48257000D01*
X136324500Y-48263000D01*
X136355500Y-48270000D01*
X136385500Y-48279000D01*
X136415500Y-48290000D01*
X136444500Y-48302000D01*
X136472500Y-48315000D01*
X136499500Y-48330000D01*
X136526500Y-48347000D01*
X136552500Y-48365000D01*
X136577500Y-48384000D01*
X136601500Y-48404000D01*
X136624500Y-48426000D01*
X136645500Y-48449000D01*
X136666500Y-48472000D01*
X136685500Y-48497000D01*
X136703500Y-48523000D01*
X136719500Y-48550000D01*
X136734500Y-48578000D01*
X136748500Y-48606000D01*
X136760500Y-48635000D01*
X136770500Y-48665000D01*
X136779500Y-48695000D01*
X136786500Y-48725000D01*
X136792500Y-48756000D01*
X136796500Y-48787000D01*
X136799500Y-48819000D01*
X136800500Y-48850000D01*
X136800000Y-50525000D01*
X134699500Y-50525000D01*
X134699500Y-48850000D01*
X134700500Y-48819000D01*
X134703500Y-48787000D01*
X134707500Y-48756000D01*
X134713500Y-48725000D01*
X134720500Y-48695000D01*
X134729500Y-48665000D01*
X134739500Y-48635000D01*
X134751500Y-48606000D01*
X134765500Y-48578000D01*
X134780500Y-48550000D01*
X134796500Y-48523000D01*
X134814500Y-48497000D01*
X134833500Y-48472000D01*
X134854500Y-48449000D01*
X134875500Y-48426000D01*
X134898500Y-48404000D01*
X134922500Y-48384000D01*
X134947500Y-48365000D01*
X134973500Y-48347000D01*
X135000500Y-48330000D01*
X135027500Y-48315000D01*
X135055500Y-48302000D01*
X135084500Y-48290000D01*
X135114500Y-48279000D01*
X135144500Y-48270000D01*
X135175500Y-48263000D01*
X135206500Y-48257000D01*
X135237500Y-48253000D01*
X135268500Y-48251000D01*
X135299500Y-48250000D01*
X136200500Y-48250000D01*
X136231500Y-48251000D01*
G37*
%TD*%
D11*
%TO.C,I1*%
X138750000Y-55250000D03*
X138750000Y-50800000D03*
D12*
X135750000Y-54175000D03*
X135750000Y-51875000D03*
D13*
X138425000Y-54325000D03*
X138425000Y-53675000D03*
X138425000Y-53025000D03*
X138425000Y-52375000D03*
X138425000Y-51725000D03*
%TD*%
D14*
%TO.C,O2*%
X180700000Y-63747500D03*
D15*
X183200000Y-63747500D03*
X185200000Y-63747500D03*
X187700000Y-63747500D03*
D16*
X190770000Y-66457500D03*
X177630000Y-66457500D03*
%TD*%
D14*
%TO.C,O1*%
X162825000Y-63747500D03*
D15*
X165325000Y-63747500D03*
X167325000Y-63747500D03*
X169825000Y-63747500D03*
D16*
X172895000Y-66457500D03*
X159755000Y-66457500D03*
%TD*%
D17*
%TO.C,R6*%
X189887500Y-43025000D03*
X191712500Y-43025000D03*
%TD*%
D18*
%TO.C,Z2*%
X176200000Y-52200000D03*
X176200000Y-59000000D03*
%TD*%
D19*
%TO.C,R5*%
X185845000Y-48475000D03*
X184205000Y-48475000D03*
%TD*%
D20*
%TO.C,D4*%
X191600000Y-49750000D03*
X191600000Y-51850000D03*
%TD*%
D21*
%TO.C,C6*%
X156125000Y-64900000D03*
X156125000Y-64260000D03*
%TD*%
D22*
%TO.C,M2*%
X161445000Y-49590000D03*
X159545000Y-49590000D03*
X160495000Y-52100000D03*
%TD*%
D23*
%TO.C,M1*%
X143975000Y-50950000D03*
X143975000Y-49050000D03*
X141875000Y-50000000D03*
%TD*%
D24*
%TO.C,C4*%
X171675000Y-59275000D03*
X169775000Y-59275000D03*
%TD*%
D25*
%TO.C,Z1*%
X147450000Y-50340000D03*
X147450000Y-46110000D03*
%TD*%
D26*
%TO.C,C1*%
X188275000Y-50875000D03*
X188275000Y-52775000D03*
%TD*%
D27*
%TO.C,C2*%
X148850000Y-42670000D03*
X148850000Y-43530000D03*
%TD*%
D28*
%TO.C,C2*%
X167045000Y-51200000D03*
X167905000Y-51200000D03*
%TD*%
D29*
%TO.C,R1*%
X189850000Y-52785000D03*
X189850000Y-51765000D03*
%TD*%
D30*
%TO.C,R1*%
X166470000Y-42660000D03*
X166470000Y-43680000D03*
%TD*%
D31*
%TO.C,B-*%
X150200000Y-67425000D03*
%TD*%
D32*
%TO.C,U2*%
X169457500Y-54625000D03*
X169457500Y-53675000D03*
X169457500Y-52725000D03*
X167117500Y-52725000D03*
X167117500Y-53675000D03*
X167117500Y-54625000D03*
%TD*%
D33*
%TO.C,S+*%
X143100000Y-43200000D03*
%TD*%
D34*
%TO.C,R2*%
X153145000Y-44232500D03*
X153145000Y-46057500D03*
%TD*%
D21*
%TO.C,C6*%
X141650000Y-54330000D03*
X141650000Y-54970000D03*
%TD*%
D17*
%TO.C,R7*%
X137712500Y-46775000D03*
X139537500Y-46775000D03*
%TD*%
D35*
%TO.C,D2*%
X164420000Y-47395000D03*
X166520000Y-47395000D03*
%TD*%
%TO.C,D1*%
X164420000Y-45295000D03*
X166520000Y-45295000D03*
%TD*%
D36*
%TO.C,U1*%
X156020000Y-42815000D03*
X156020000Y-44085000D03*
X156020000Y-45355000D03*
X156020000Y-46625000D03*
X161420000Y-46625000D03*
X161420000Y-45355000D03*
X161420000Y-44085000D03*
X161420000Y-42815000D03*
%TD*%
D22*
%TO.C,M2*%
X189875000Y-45265000D03*
X187975000Y-45265000D03*
X188925000Y-47775000D03*
%TD*%
D37*
%TO.C,C1*%
X150925000Y-42725000D03*
X150925000Y-44625000D03*
%TD*%
D38*
%TO.C,C6c1*%
X190695000Y-61100000D03*
X190055000Y-61100000D03*
%TD*%
D39*
%TO.C,R3*%
X170925000Y-57207000D03*
X170925000Y-56343000D03*
%TD*%
D40*
%TO.C,R4*%
X168350000Y-56338000D03*
X168350000Y-57362000D03*
%TD*%
D41*
%TO.C,C3*%
X152280000Y-48045000D03*
X151360000Y-48045000D03*
%TD*%
D42*
%TO.C,R7*%
X157425000Y-52000000D03*
X155600000Y-52000000D03*
%TD*%
D35*
%TO.C,D3*%
X150975000Y-52050000D03*
X153075000Y-52050000D03*
%TD*%
D43*
%TO.C,C5*%
X184625000Y-56425000D03*
X181785000Y-56425000D03*
%TD*%
D44*
%TO.C,L1*%
X173475000Y-45225000D03*
X173475000Y-49289000D03*
%TD*%
D45*
%TO.C,U3*%
X181835000Y-52800000D03*
X181835000Y-50900000D03*
X184185000Y-50900000D03*
X184185000Y-51850000D03*
X184185000Y-52800000D03*
%TD*%
D31*
%TO.C,B+*%
X143300000Y-67425000D03*
%TD*%
D33*
%TO.C,S-*%
X138850000Y-43200000D03*
%TD*%
D46*
%TO.C,D5*%
X143950000Y-46775000D03*
X141850000Y-46775000D03*
%TD*%
D47*
%TO.C,C2*%
X186625000Y-51865000D03*
X186625000Y-52725000D03*
%TD*%
M02*
