%TF.GenerationSoftware,KiCad,Pcbnew,7.0.8*%
%TF.CreationDate,2024-10-30T19:04:05-07:00*%
%TF.ProjectId,ECE196Team13,45434531-3936-4546-9561-6d31332e6b69,1*%
%TF.SameCoordinates,Original*%
%TF.FileFunction,Legend,Top*%
%TF.FilePolarity,Positive*%
%FSLAX46Y46*%
G04 Gerber Fmt 4.6, Leading zero omitted, Abs format (unit mm)*
G04 Created by KiCad (PCBNEW 7.0.8) date 2024-10-30 19:04:05*
%MOMM*%
%LPD*%
G01*
G04 APERTURE LIST*
%ADD10C,0.150000*%
%ADD11C,0.098425*%
%ADD12C,0.120000*%
%ADD13C,0.080000*%
%ADD14C,0.100000*%
%ADD15C,0.060257*%
%ADD16C,0.076200*%
%ADD17C,0.127000*%
%ADD18C,0.200000*%
%ADD19C,0.203200*%
%ADD20C,0.330200*%
%ADD21C,0.152400*%
G04 APERTURE END LIST*
D10*
X136843750Y-40175000D02*
X144856250Y-40175000D01*
X144856250Y-44625000D01*
X136843750Y-44625000D01*
X136843750Y-40175000D01*
X142700000Y-55575000D02*
X155200000Y-55575000D01*
X155200000Y-62550000D01*
X142700000Y-62550000D01*
X142700000Y-55575000D01*
X151678152Y-45575125D02*
X150249580Y-45575125D01*
X183299874Y-47753152D02*
X183299874Y-46324580D01*
X183024874Y-45553152D02*
X183024874Y-44124580D01*
X150650125Y-47489038D02*
X150650125Y-48631895D01*
X142428152Y-53700125D02*
X140999580Y-53700125D01*
X173021847Y-60224874D02*
X174450419Y-60224874D01*
X192813152Y-58385125D02*
X191384580Y-58385125D01*
X149460961Y-44120363D02*
X148318104Y-44120363D01*
X172553152Y-53175125D02*
X171124580Y-53175125D01*
X188733234Y-44666308D02*
X188499703Y-44332692D01*
X188332895Y-44666308D02*
X188332895Y-43965714D01*
X188332895Y-43965714D02*
X188599788Y-43965714D01*
X188599788Y-43965714D02*
X188666511Y-43999076D01*
X188666511Y-43999076D02*
X188699872Y-44032437D01*
X188699872Y-44032437D02*
X188733234Y-44099161D01*
X188733234Y-44099161D02*
X188733234Y-44199245D01*
X188733234Y-44199245D02*
X188699872Y-44265969D01*
X188699872Y-44265969D02*
X188666511Y-44299330D01*
X188666511Y-44299330D02*
X188599788Y-44332692D01*
X188599788Y-44332692D02*
X188332895Y-44332692D01*
X189333743Y-43965714D02*
X189200297Y-43965714D01*
X189200297Y-43965714D02*
X189133573Y-43999076D01*
X189133573Y-43999076D02*
X189100212Y-44032437D01*
X189100212Y-44032437D02*
X189033489Y-44132522D01*
X189033489Y-44132522D02*
X189000127Y-44265969D01*
X189000127Y-44265969D02*
X189000127Y-44532862D01*
X189000127Y-44532862D02*
X189033489Y-44599585D01*
X189033489Y-44599585D02*
X189066850Y-44632947D01*
X189066850Y-44632947D02*
X189133573Y-44666308D01*
X189133573Y-44666308D02*
X189267020Y-44666308D01*
X189267020Y-44666308D02*
X189333743Y-44632947D01*
X189333743Y-44632947D02*
X189367105Y-44599585D01*
X189367105Y-44599585D02*
X189400466Y-44532862D01*
X189400466Y-44532862D02*
X189400466Y-44366054D01*
X189400466Y-44366054D02*
X189367105Y-44299330D01*
X189367105Y-44299330D02*
X189333743Y-44265969D01*
X189333743Y-44265969D02*
X189267020Y-44232607D01*
X189267020Y-44232607D02*
X189133573Y-44232607D01*
X189133573Y-44232607D02*
X189066850Y-44265969D01*
X189066850Y-44265969D02*
X189033489Y-44299330D01*
X189033489Y-44299330D02*
X189000127Y-44366054D01*
D11*
X186609383Y-49402014D02*
X186478149Y-49214538D01*
X186384411Y-49402014D02*
X186384411Y-49008313D01*
X186384411Y-49008313D02*
X186534392Y-49008313D01*
X186534392Y-49008313D02*
X186571888Y-49027061D01*
X186571888Y-49027061D02*
X186590635Y-49045809D01*
X186590635Y-49045809D02*
X186609383Y-49083304D01*
X186609383Y-49083304D02*
X186609383Y-49139547D01*
X186609383Y-49139547D02*
X186590635Y-49177042D01*
X186590635Y-49177042D02*
X186571888Y-49195790D01*
X186571888Y-49195790D02*
X186534392Y-49214538D01*
X186534392Y-49214538D02*
X186384411Y-49214538D01*
X186965589Y-49008313D02*
X186778112Y-49008313D01*
X186778112Y-49008313D02*
X186759364Y-49195790D01*
X186759364Y-49195790D02*
X186778112Y-49177042D01*
X186778112Y-49177042D02*
X186815607Y-49158295D01*
X186815607Y-49158295D02*
X186909346Y-49158295D01*
X186909346Y-49158295D02*
X186946841Y-49177042D01*
X186946841Y-49177042D02*
X186965589Y-49195790D01*
X186965589Y-49195790D02*
X186984336Y-49233285D01*
X186984336Y-49233285D02*
X186984336Y-49327024D01*
X186984336Y-49327024D02*
X186965589Y-49364519D01*
X186965589Y-49364519D02*
X186946841Y-49383267D01*
X186946841Y-49383267D02*
X186909346Y-49402014D01*
X186909346Y-49402014D02*
X186815607Y-49402014D01*
X186815607Y-49402014D02*
X186778112Y-49383267D01*
X186778112Y-49383267D02*
X186759364Y-49364519D01*
D10*
X191919676Y-50881666D02*
X191919676Y-51186428D01*
X191919676Y-51186428D02*
X191279676Y-51186428D01*
X191493009Y-50394047D02*
X191919676Y-50394047D01*
X191249200Y-50546428D02*
X191706342Y-50698809D01*
X191706342Y-50698809D02*
X191706342Y-50302618D01*
D12*
X189757960Y-52857857D02*
X189757960Y-52492143D01*
X189940817Y-52675000D02*
X189575102Y-52675000D01*
D10*
X175109580Y-59286666D02*
X175157200Y-59334285D01*
X175157200Y-59334285D02*
X175204819Y-59477142D01*
X175204819Y-59477142D02*
X175204819Y-59572380D01*
X175204819Y-59572380D02*
X175157200Y-59715237D01*
X175157200Y-59715237D02*
X175061961Y-59810475D01*
X175061961Y-59810475D02*
X174966723Y-59858094D01*
X174966723Y-59858094D02*
X174776247Y-59905713D01*
X174776247Y-59905713D02*
X174633390Y-59905713D01*
X174633390Y-59905713D02*
X174442914Y-59858094D01*
X174442914Y-59858094D02*
X174347676Y-59810475D01*
X174347676Y-59810475D02*
X174252438Y-59715237D01*
X174252438Y-59715237D02*
X174204819Y-59572380D01*
X174204819Y-59572380D02*
X174204819Y-59477142D01*
X174204819Y-59477142D02*
X174252438Y-59334285D01*
X174252438Y-59334285D02*
X174300057Y-59286666D01*
X174204819Y-58429523D02*
X174204819Y-58619999D01*
X174204819Y-58619999D02*
X174252438Y-58715237D01*
X174252438Y-58715237D02*
X174300057Y-58762856D01*
X174300057Y-58762856D02*
X174442914Y-58858094D01*
X174442914Y-58858094D02*
X174633390Y-58905713D01*
X174633390Y-58905713D02*
X175014342Y-58905713D01*
X175014342Y-58905713D02*
X175109580Y-58858094D01*
X175109580Y-58858094D02*
X175157200Y-58810475D01*
X175157200Y-58810475D02*
X175204819Y-58715237D01*
X175204819Y-58715237D02*
X175204819Y-58524761D01*
X175204819Y-58524761D02*
X175157200Y-58429523D01*
X175157200Y-58429523D02*
X175109580Y-58381904D01*
X175109580Y-58381904D02*
X175014342Y-58334285D01*
X175014342Y-58334285D02*
X174776247Y-58334285D01*
X174776247Y-58334285D02*
X174681009Y-58381904D01*
X174681009Y-58381904D02*
X174633390Y-58429523D01*
X174633390Y-58429523D02*
X174585771Y-58524761D01*
X174585771Y-58524761D02*
X174585771Y-58715237D01*
X174585771Y-58715237D02*
X174633390Y-58810475D01*
X174633390Y-58810475D02*
X174681009Y-58858094D01*
X174681009Y-58858094D02*
X174776247Y-58905713D01*
X159715476Y-54254819D02*
X159715476Y-53254819D01*
X159715476Y-53254819D02*
X160048809Y-53969104D01*
X160048809Y-53969104D02*
X160382142Y-53254819D01*
X160382142Y-53254819D02*
X160382142Y-54254819D01*
X160810714Y-53350057D02*
X160858333Y-53302438D01*
X160858333Y-53302438D02*
X160953571Y-53254819D01*
X160953571Y-53254819D02*
X161191666Y-53254819D01*
X161191666Y-53254819D02*
X161286904Y-53302438D01*
X161286904Y-53302438D02*
X161334523Y-53350057D01*
X161334523Y-53350057D02*
X161382142Y-53445295D01*
X161382142Y-53445295D02*
X161382142Y-53540533D01*
X161382142Y-53540533D02*
X161334523Y-53683390D01*
X161334523Y-53683390D02*
X160763095Y-54254819D01*
X160763095Y-54254819D02*
X161382142Y-54254819D01*
D13*
X142460691Y-52162087D02*
X142460691Y-51762087D01*
X142460691Y-51762087D02*
X142594024Y-52047801D01*
X142594024Y-52047801D02*
X142727357Y-51762087D01*
X142727357Y-51762087D02*
X142727357Y-52162087D01*
X143127357Y-52162087D02*
X142898786Y-52162087D01*
X143013072Y-52162087D02*
X143013072Y-51762087D01*
X143013072Y-51762087D02*
X142974976Y-51819230D01*
X142974976Y-51819230D02*
X142936881Y-51857325D01*
X142936881Y-51857325D02*
X142898786Y-51876373D01*
D14*
X164700000Y-54140228D02*
X164671428Y-54168800D01*
X164671428Y-54168800D02*
X164585714Y-54197371D01*
X164585714Y-54197371D02*
X164528571Y-54197371D01*
X164528571Y-54197371D02*
X164442857Y-54168800D01*
X164442857Y-54168800D02*
X164385714Y-54111657D01*
X164385714Y-54111657D02*
X164357143Y-54054514D01*
X164357143Y-54054514D02*
X164328571Y-53940228D01*
X164328571Y-53940228D02*
X164328571Y-53854514D01*
X164328571Y-53854514D02*
X164357143Y-53740228D01*
X164357143Y-53740228D02*
X164385714Y-53683085D01*
X164385714Y-53683085D02*
X164442857Y-53625942D01*
X164442857Y-53625942D02*
X164528571Y-53597371D01*
X164528571Y-53597371D02*
X164585714Y-53597371D01*
X164585714Y-53597371D02*
X164671428Y-53625942D01*
X164671428Y-53625942D02*
X164700000Y-53654514D01*
X165214286Y-53797371D02*
X165214286Y-54197371D01*
X165071428Y-53568800D02*
X164928571Y-53997371D01*
X164928571Y-53997371D02*
X165300000Y-53997371D01*
D10*
X145856467Y-48681177D02*
X145069065Y-48681177D01*
X145069065Y-48681177D02*
X145069065Y-48493700D01*
X145069065Y-48493700D02*
X145106560Y-48381214D01*
X145106560Y-48381214D02*
X145181551Y-48306224D01*
X145181551Y-48306224D02*
X145256542Y-48268728D01*
X145256542Y-48268728D02*
X145406523Y-48231233D01*
X145406523Y-48231233D02*
X145519009Y-48231233D01*
X145519009Y-48231233D02*
X145668990Y-48268728D01*
X145668990Y-48268728D02*
X145743981Y-48306224D01*
X145743981Y-48306224D02*
X145818972Y-48381214D01*
X145818972Y-48381214D02*
X145856467Y-48493700D01*
X145856467Y-48493700D02*
X145856467Y-48681177D01*
X145856467Y-47481326D02*
X145856467Y-47931270D01*
X145856467Y-47706298D02*
X145069065Y-47706298D01*
X145069065Y-47706298D02*
X145181551Y-47781289D01*
X145181551Y-47781289D02*
X145256542Y-47856280D01*
X145256542Y-47856280D02*
X145294037Y-47931270D01*
D14*
X186208333Y-46266752D02*
X186189285Y-46285800D01*
X186189285Y-46285800D02*
X186132143Y-46304847D01*
X186132143Y-46304847D02*
X186094047Y-46304847D01*
X186094047Y-46304847D02*
X186036904Y-46285800D01*
X186036904Y-46285800D02*
X185998809Y-46247704D01*
X185998809Y-46247704D02*
X185979762Y-46209609D01*
X185979762Y-46209609D02*
X185960714Y-46133419D01*
X185960714Y-46133419D02*
X185960714Y-46076276D01*
X185960714Y-46076276D02*
X185979762Y-46000085D01*
X185979762Y-46000085D02*
X185998809Y-45961990D01*
X185998809Y-45961990D02*
X186036904Y-45923895D01*
X186036904Y-45923895D02*
X186094047Y-45904847D01*
X186094047Y-45904847D02*
X186132143Y-45904847D01*
X186132143Y-45904847D02*
X186189285Y-45923895D01*
X186189285Y-45923895D02*
X186208333Y-45942942D01*
X186589285Y-46304847D02*
X186360714Y-46304847D01*
X186475000Y-46304847D02*
X186475000Y-45904847D01*
X186475000Y-45904847D02*
X186436904Y-45961990D01*
X186436904Y-45961990D02*
X186398809Y-46000085D01*
X186398809Y-46000085D02*
X186360714Y-46019133D01*
X148361905Y-41966752D02*
X148342857Y-41985800D01*
X148342857Y-41985800D02*
X148285715Y-42004847D01*
X148285715Y-42004847D02*
X148247619Y-42004847D01*
X148247619Y-42004847D02*
X148190476Y-41985800D01*
X148190476Y-41985800D02*
X148152381Y-41947704D01*
X148152381Y-41947704D02*
X148133334Y-41909609D01*
X148133334Y-41909609D02*
X148114286Y-41833419D01*
X148114286Y-41833419D02*
X148114286Y-41776276D01*
X148114286Y-41776276D02*
X148133334Y-41700085D01*
X148133334Y-41700085D02*
X148152381Y-41661990D01*
X148152381Y-41661990D02*
X148190476Y-41623895D01*
X148190476Y-41623895D02*
X148247619Y-41604847D01*
X148247619Y-41604847D02*
X148285715Y-41604847D01*
X148285715Y-41604847D02*
X148342857Y-41623895D01*
X148342857Y-41623895D02*
X148361905Y-41642942D01*
X148514286Y-41642942D02*
X148533334Y-41623895D01*
X148533334Y-41623895D02*
X148571429Y-41604847D01*
X148571429Y-41604847D02*
X148666667Y-41604847D01*
X148666667Y-41604847D02*
X148704762Y-41623895D01*
X148704762Y-41623895D02*
X148723810Y-41642942D01*
X148723810Y-41642942D02*
X148742857Y-41681038D01*
X148742857Y-41681038D02*
X148742857Y-41719133D01*
X148742857Y-41719133D02*
X148723810Y-41776276D01*
X148723810Y-41776276D02*
X148495238Y-42004847D01*
X148495238Y-42004847D02*
X148742857Y-42004847D01*
X149085714Y-42004847D02*
X149085714Y-41795323D01*
X149085714Y-41795323D02*
X149066667Y-41757228D01*
X149066667Y-41757228D02*
X149028571Y-41738180D01*
X149028571Y-41738180D02*
X148952381Y-41738180D01*
X148952381Y-41738180D02*
X148914286Y-41757228D01*
X149085714Y-41985800D02*
X149047619Y-42004847D01*
X149047619Y-42004847D02*
X148952381Y-42004847D01*
X148952381Y-42004847D02*
X148914286Y-41985800D01*
X148914286Y-41985800D02*
X148895238Y-41947704D01*
X148895238Y-41947704D02*
X148895238Y-41909609D01*
X148895238Y-41909609D02*
X148914286Y-41871514D01*
X148914286Y-41871514D02*
X148952381Y-41852466D01*
X148952381Y-41852466D02*
X149047619Y-41852466D01*
X149047619Y-41852466D02*
X149085714Y-41833419D01*
X149485714Y-42004847D02*
X149257143Y-42004847D01*
X149371429Y-42004847D02*
X149371429Y-41604847D01*
X149371429Y-41604847D02*
X149333333Y-41661990D01*
X149333333Y-41661990D02*
X149295238Y-41700085D01*
X149295238Y-41700085D02*
X149257143Y-41719133D01*
D15*
X164059828Y-50160416D02*
X164048351Y-50171894D01*
X164048351Y-50171894D02*
X164013918Y-50183371D01*
X164013918Y-50183371D02*
X163990963Y-50183371D01*
X163990963Y-50183371D02*
X163956530Y-50171894D01*
X163956530Y-50171894D02*
X163933575Y-50148938D01*
X163933575Y-50148938D02*
X163922097Y-50125983D01*
X163922097Y-50125983D02*
X163910620Y-50080073D01*
X163910620Y-50080073D02*
X163910620Y-50045640D01*
X163910620Y-50045640D02*
X163922097Y-49999730D01*
X163922097Y-49999730D02*
X163933575Y-49976775D01*
X163933575Y-49976775D02*
X163956530Y-49953820D01*
X163956530Y-49953820D02*
X163990963Y-49942342D01*
X163990963Y-49942342D02*
X164013918Y-49942342D01*
X164013918Y-49942342D02*
X164048351Y-49953820D01*
X164048351Y-49953820D02*
X164059828Y-49965297D01*
X164151649Y-49965297D02*
X164163126Y-49953820D01*
X164163126Y-49953820D02*
X164186082Y-49942342D01*
X164186082Y-49942342D02*
X164243469Y-49942342D01*
X164243469Y-49942342D02*
X164266425Y-49953820D01*
X164266425Y-49953820D02*
X164277902Y-49965297D01*
X164277902Y-49965297D02*
X164289380Y-49988252D01*
X164289380Y-49988252D02*
X164289380Y-50011208D01*
X164289380Y-50011208D02*
X164277902Y-50045640D01*
X164277902Y-50045640D02*
X164140171Y-50183371D01*
X164140171Y-50183371D02*
X164289380Y-50183371D01*
D14*
X188604847Y-51388094D02*
X188414371Y-51521427D01*
X188604847Y-51616665D02*
X188204847Y-51616665D01*
X188204847Y-51616665D02*
X188204847Y-51464284D01*
X188204847Y-51464284D02*
X188223895Y-51426189D01*
X188223895Y-51426189D02*
X188242942Y-51407142D01*
X188242942Y-51407142D02*
X188281038Y-51388094D01*
X188281038Y-51388094D02*
X188338180Y-51388094D01*
X188338180Y-51388094D02*
X188376276Y-51407142D01*
X188376276Y-51407142D02*
X188395323Y-51426189D01*
X188395323Y-51426189D02*
X188414371Y-51464284D01*
X188414371Y-51464284D02*
X188414371Y-51616665D01*
X188604847Y-51007142D02*
X188604847Y-51235713D01*
X188604847Y-51121427D02*
X188204847Y-51121427D01*
X188204847Y-51121427D02*
X188261990Y-51159523D01*
X188261990Y-51159523D02*
X188300085Y-51197618D01*
X188300085Y-51197618D02*
X188319133Y-51235713D01*
X188604847Y-50835713D02*
X188204847Y-50835713D01*
X188357228Y-50835713D02*
X188338180Y-50797618D01*
X188338180Y-50797618D02*
X188338180Y-50721428D01*
X188338180Y-50721428D02*
X188357228Y-50683332D01*
X188357228Y-50683332D02*
X188376276Y-50664285D01*
X188376276Y-50664285D02*
X188414371Y-50645237D01*
X188414371Y-50645237D02*
X188528657Y-50645237D01*
X188528657Y-50645237D02*
X188566752Y-50664285D01*
X188566752Y-50664285D02*
X188585800Y-50683332D01*
X188585800Y-50683332D02*
X188604847Y-50721428D01*
X188604847Y-50721428D02*
X188604847Y-50797618D01*
X188604847Y-50797618D02*
X188585800Y-50835713D01*
X188604847Y-50264285D02*
X188604847Y-50492856D01*
X188604847Y-50378570D02*
X188204847Y-50378570D01*
X188204847Y-50378570D02*
X188261990Y-50416666D01*
X188261990Y-50416666D02*
X188300085Y-50454761D01*
X188300085Y-50454761D02*
X188319133Y-50492856D01*
D10*
X165379761Y-42004819D02*
X165046428Y-41528628D01*
X164808333Y-42004819D02*
X164808333Y-41004819D01*
X164808333Y-41004819D02*
X165189285Y-41004819D01*
X165189285Y-41004819D02*
X165284523Y-41052438D01*
X165284523Y-41052438D02*
X165332142Y-41100057D01*
X165332142Y-41100057D02*
X165379761Y-41195295D01*
X165379761Y-41195295D02*
X165379761Y-41338152D01*
X165379761Y-41338152D02*
X165332142Y-41433390D01*
X165332142Y-41433390D02*
X165284523Y-41481009D01*
X165284523Y-41481009D02*
X165189285Y-41528628D01*
X165189285Y-41528628D02*
X164808333Y-41528628D01*
X166332142Y-42004819D02*
X165760714Y-42004819D01*
X166046428Y-42004819D02*
X166046428Y-41004819D01*
X166046428Y-41004819D02*
X165951190Y-41147676D01*
X165951190Y-41147676D02*
X165855952Y-41242914D01*
X165855952Y-41242914D02*
X165760714Y-41290533D01*
X167189285Y-42004819D02*
X167189285Y-41481009D01*
X167189285Y-41481009D02*
X167141666Y-41385771D01*
X167141666Y-41385771D02*
X167046428Y-41338152D01*
X167046428Y-41338152D02*
X166855952Y-41338152D01*
X166855952Y-41338152D02*
X166760714Y-41385771D01*
X167189285Y-41957200D02*
X167094047Y-42004819D01*
X167094047Y-42004819D02*
X166855952Y-42004819D01*
X166855952Y-42004819D02*
X166760714Y-41957200D01*
X166760714Y-41957200D02*
X166713095Y-41861961D01*
X166713095Y-41861961D02*
X166713095Y-41766723D01*
X166713095Y-41766723D02*
X166760714Y-41671485D01*
X166760714Y-41671485D02*
X166855952Y-41623866D01*
X166855952Y-41623866D02*
X167094047Y-41623866D01*
X167094047Y-41623866D02*
X167189285Y-41576247D01*
X168189285Y-42004819D02*
X167617857Y-42004819D01*
X167903571Y-42004819D02*
X167903571Y-41004819D01*
X167903571Y-41004819D02*
X167808333Y-41147676D01*
X167808333Y-41147676D02*
X167713095Y-41242914D01*
X167713095Y-41242914D02*
X167617857Y-41290533D01*
X151263095Y-61079819D02*
X151834523Y-61079819D01*
X151548809Y-62079819D02*
X151548809Y-61079819D01*
X152167857Y-62079819D02*
X152167857Y-61079819D01*
X152167857Y-61079819D02*
X152548809Y-61079819D01*
X152548809Y-61079819D02*
X152644047Y-61127438D01*
X152644047Y-61127438D02*
X152691666Y-61175057D01*
X152691666Y-61175057D02*
X152739285Y-61270295D01*
X152739285Y-61270295D02*
X152739285Y-61413152D01*
X152739285Y-61413152D02*
X152691666Y-61508390D01*
X152691666Y-61508390D02*
X152644047Y-61556009D01*
X152644047Y-61556009D02*
X152548809Y-61603628D01*
X152548809Y-61603628D02*
X152167857Y-61603628D01*
X153596428Y-61413152D02*
X153596428Y-62079819D01*
X153358333Y-61032200D02*
X153120238Y-61746485D01*
X153120238Y-61746485D02*
X153739285Y-61746485D01*
X169163095Y-49329819D02*
X169163095Y-50139342D01*
X169163095Y-50139342D02*
X169210714Y-50234580D01*
X169210714Y-50234580D02*
X169258333Y-50282200D01*
X169258333Y-50282200D02*
X169353571Y-50329819D01*
X169353571Y-50329819D02*
X169544047Y-50329819D01*
X169544047Y-50329819D02*
X169639285Y-50282200D01*
X169639285Y-50282200D02*
X169686904Y-50234580D01*
X169686904Y-50234580D02*
X169734523Y-50139342D01*
X169734523Y-50139342D02*
X169734523Y-49329819D01*
X170163095Y-49425057D02*
X170210714Y-49377438D01*
X170210714Y-49377438D02*
X170305952Y-49329819D01*
X170305952Y-49329819D02*
X170544047Y-49329819D01*
X170544047Y-49329819D02*
X170639285Y-49377438D01*
X170639285Y-49377438D02*
X170686904Y-49425057D01*
X170686904Y-49425057D02*
X170734523Y-49520295D01*
X170734523Y-49520295D02*
X170734523Y-49615533D01*
X170734523Y-49615533D02*
X170686904Y-49758390D01*
X170686904Y-49758390D02*
X170115476Y-50329819D01*
X170115476Y-50329819D02*
X170734523Y-50329819D01*
X141838095Y-40579819D02*
X142409523Y-40579819D01*
X142123809Y-41579819D02*
X142123809Y-40579819D01*
X142742857Y-41579819D02*
X142742857Y-40579819D01*
X142742857Y-40579819D02*
X143123809Y-40579819D01*
X143123809Y-40579819D02*
X143219047Y-40627438D01*
X143219047Y-40627438D02*
X143266666Y-40675057D01*
X143266666Y-40675057D02*
X143314285Y-40770295D01*
X143314285Y-40770295D02*
X143314285Y-40913152D01*
X143314285Y-40913152D02*
X143266666Y-41008390D01*
X143266666Y-41008390D02*
X143219047Y-41056009D01*
X143219047Y-41056009D02*
X143123809Y-41103628D01*
X143123809Y-41103628D02*
X142742857Y-41103628D01*
X144266666Y-41579819D02*
X143695238Y-41579819D01*
X143980952Y-41579819D02*
X143980952Y-40579819D01*
X143980952Y-40579819D02*
X143885714Y-40722676D01*
X143885714Y-40722676D02*
X143790476Y-40817914D01*
X143790476Y-40817914D02*
X143695238Y-40865533D01*
D14*
X152950000Y-43272371D02*
X152750000Y-42986657D01*
X152607143Y-43272371D02*
X152607143Y-42672371D01*
X152607143Y-42672371D02*
X152835714Y-42672371D01*
X152835714Y-42672371D02*
X152892857Y-42700942D01*
X152892857Y-42700942D02*
X152921428Y-42729514D01*
X152921428Y-42729514D02*
X152950000Y-42786657D01*
X152950000Y-42786657D02*
X152950000Y-42872371D01*
X152950000Y-42872371D02*
X152921428Y-42929514D01*
X152921428Y-42929514D02*
X152892857Y-42958085D01*
X152892857Y-42958085D02*
X152835714Y-42986657D01*
X152835714Y-42986657D02*
X152607143Y-42986657D01*
X153178571Y-42729514D02*
X153207143Y-42700942D01*
X153207143Y-42700942D02*
X153264286Y-42672371D01*
X153264286Y-42672371D02*
X153407143Y-42672371D01*
X153407143Y-42672371D02*
X153464286Y-42700942D01*
X153464286Y-42700942D02*
X153492857Y-42729514D01*
X153492857Y-42729514D02*
X153521428Y-42786657D01*
X153521428Y-42786657D02*
X153521428Y-42843800D01*
X153521428Y-42843800D02*
X153492857Y-42929514D01*
X153492857Y-42929514D02*
X153150000Y-43272371D01*
X153150000Y-43272371D02*
X153521428Y-43272371D01*
X142566752Y-55038094D02*
X142585800Y-55057142D01*
X142585800Y-55057142D02*
X142604847Y-55114284D01*
X142604847Y-55114284D02*
X142604847Y-55152380D01*
X142604847Y-55152380D02*
X142585800Y-55209523D01*
X142585800Y-55209523D02*
X142547704Y-55247618D01*
X142547704Y-55247618D02*
X142509609Y-55266665D01*
X142509609Y-55266665D02*
X142433419Y-55285713D01*
X142433419Y-55285713D02*
X142376276Y-55285713D01*
X142376276Y-55285713D02*
X142300085Y-55266665D01*
X142300085Y-55266665D02*
X142261990Y-55247618D01*
X142261990Y-55247618D02*
X142223895Y-55209523D01*
X142223895Y-55209523D02*
X142204847Y-55152380D01*
X142204847Y-55152380D02*
X142204847Y-55114284D01*
X142204847Y-55114284D02*
X142223895Y-55057142D01*
X142223895Y-55057142D02*
X142242942Y-55038094D01*
X142204847Y-54695237D02*
X142204847Y-54771427D01*
X142204847Y-54771427D02*
X142223895Y-54809523D01*
X142223895Y-54809523D02*
X142242942Y-54828570D01*
X142242942Y-54828570D02*
X142300085Y-54866665D01*
X142300085Y-54866665D02*
X142376276Y-54885713D01*
X142376276Y-54885713D02*
X142528657Y-54885713D01*
X142528657Y-54885713D02*
X142566752Y-54866665D01*
X142566752Y-54866665D02*
X142585800Y-54847618D01*
X142585800Y-54847618D02*
X142604847Y-54809523D01*
X142604847Y-54809523D02*
X142604847Y-54733332D01*
X142604847Y-54733332D02*
X142585800Y-54695237D01*
X142585800Y-54695237D02*
X142566752Y-54676189D01*
X142566752Y-54676189D02*
X142528657Y-54657142D01*
X142528657Y-54657142D02*
X142433419Y-54657142D01*
X142433419Y-54657142D02*
X142395323Y-54676189D01*
X142395323Y-54676189D02*
X142376276Y-54695237D01*
X142376276Y-54695237D02*
X142357228Y-54733332D01*
X142357228Y-54733332D02*
X142357228Y-54809523D01*
X142357228Y-54809523D02*
X142376276Y-54847618D01*
X142376276Y-54847618D02*
X142395323Y-54866665D01*
X142395323Y-54866665D02*
X142433419Y-54885713D01*
X142604847Y-54314285D02*
X142395323Y-54314285D01*
X142395323Y-54314285D02*
X142357228Y-54333332D01*
X142357228Y-54333332D02*
X142338180Y-54371428D01*
X142338180Y-54371428D02*
X142338180Y-54447618D01*
X142338180Y-54447618D02*
X142357228Y-54485713D01*
X142585800Y-54314285D02*
X142604847Y-54352380D01*
X142604847Y-54352380D02*
X142604847Y-54447618D01*
X142604847Y-54447618D02*
X142585800Y-54485713D01*
X142585800Y-54485713D02*
X142547704Y-54504761D01*
X142547704Y-54504761D02*
X142509609Y-54504761D01*
X142509609Y-54504761D02*
X142471514Y-54485713D01*
X142471514Y-54485713D02*
X142452466Y-54447618D01*
X142452466Y-54447618D02*
X142452466Y-54352380D01*
X142452466Y-54352380D02*
X142433419Y-54314285D01*
X142604847Y-53914285D02*
X142604847Y-54142856D01*
X142604847Y-54028570D02*
X142204847Y-54028570D01*
X142204847Y-54028570D02*
X142261990Y-54066666D01*
X142261990Y-54066666D02*
X142300085Y-54104761D01*
X142300085Y-54104761D02*
X142319133Y-54142856D01*
X137917857Y-45622371D02*
X137717857Y-45336657D01*
X137575000Y-45622371D02*
X137575000Y-45022371D01*
X137575000Y-45022371D02*
X137803571Y-45022371D01*
X137803571Y-45022371D02*
X137860714Y-45050942D01*
X137860714Y-45050942D02*
X137889285Y-45079514D01*
X137889285Y-45079514D02*
X137917857Y-45136657D01*
X137917857Y-45136657D02*
X137917857Y-45222371D01*
X137917857Y-45222371D02*
X137889285Y-45279514D01*
X137889285Y-45279514D02*
X137860714Y-45308085D01*
X137860714Y-45308085D02*
X137803571Y-45336657D01*
X137803571Y-45336657D02*
X137575000Y-45336657D01*
X138117857Y-45022371D02*
X138517857Y-45022371D01*
X138517857Y-45022371D02*
X138260714Y-45622371D01*
X139003572Y-45622371D02*
X139003572Y-45308085D01*
X139003572Y-45308085D02*
X138975000Y-45250942D01*
X138975000Y-45250942D02*
X138917857Y-45222371D01*
X138917857Y-45222371D02*
X138803572Y-45222371D01*
X138803572Y-45222371D02*
X138746429Y-45250942D01*
X139003572Y-45593800D02*
X138946429Y-45622371D01*
X138946429Y-45622371D02*
X138803572Y-45622371D01*
X138803572Y-45622371D02*
X138746429Y-45593800D01*
X138746429Y-45593800D02*
X138717857Y-45536657D01*
X138717857Y-45536657D02*
X138717857Y-45479514D01*
X138717857Y-45479514D02*
X138746429Y-45422371D01*
X138746429Y-45422371D02*
X138803572Y-45393800D01*
X138803572Y-45393800D02*
X138946429Y-45393800D01*
X138946429Y-45393800D02*
X139003572Y-45365228D01*
X139603571Y-45622371D02*
X139260714Y-45622371D01*
X139432143Y-45622371D02*
X139432143Y-45022371D01*
X139432143Y-45022371D02*
X139375000Y-45108085D01*
X139375000Y-45108085D02*
X139317857Y-45165228D01*
X139317857Y-45165228D02*
X139260714Y-45193800D01*
D10*
X165363333Y-49258276D02*
X165058571Y-49258276D01*
X165058571Y-49258276D02*
X165058571Y-48618276D01*
X165546190Y-48679228D02*
X165576666Y-48648752D01*
X165576666Y-48648752D02*
X165637619Y-48618276D01*
X165637619Y-48618276D02*
X165790000Y-48618276D01*
X165790000Y-48618276D02*
X165850952Y-48648752D01*
X165850952Y-48648752D02*
X165881428Y-48679228D01*
X165881428Y-48679228D02*
X165911905Y-48740180D01*
X165911905Y-48740180D02*
X165911905Y-48801133D01*
X165911905Y-48801133D02*
X165881428Y-48892561D01*
X165881428Y-48892561D02*
X165515714Y-49258276D01*
X165515714Y-49258276D02*
X165911905Y-49258276D01*
D12*
X167187142Y-47727960D02*
X167552857Y-47727960D01*
X167369999Y-47910817D02*
X167369999Y-47545102D01*
D10*
X164788333Y-44033276D02*
X164483571Y-44033276D01*
X164483571Y-44033276D02*
X164483571Y-43393276D01*
X165336905Y-44033276D02*
X164971190Y-44033276D01*
X165154047Y-44033276D02*
X165154047Y-43393276D01*
X165154047Y-43393276D02*
X165093095Y-43484704D01*
X165093095Y-43484704D02*
X165032143Y-43545657D01*
X165032143Y-43545657D02*
X164971190Y-43576133D01*
D12*
X167187142Y-45627960D02*
X167552857Y-45627960D01*
X167369999Y-45810817D02*
X167369999Y-45445102D01*
D10*
X175779819Y-64371428D02*
X175779819Y-64180952D01*
X175779819Y-64180952D02*
X175827438Y-64085714D01*
X175827438Y-64085714D02*
X175922676Y-63990476D01*
X175922676Y-63990476D02*
X176113152Y-63942857D01*
X176113152Y-63942857D02*
X176446485Y-63942857D01*
X176446485Y-63942857D02*
X176636961Y-63990476D01*
X176636961Y-63990476D02*
X176732200Y-64085714D01*
X176732200Y-64085714D02*
X176779819Y-64180952D01*
X176779819Y-64180952D02*
X176779819Y-64371428D01*
X176779819Y-64371428D02*
X176732200Y-64466666D01*
X176732200Y-64466666D02*
X176636961Y-64561904D01*
X176636961Y-64561904D02*
X176446485Y-64609523D01*
X176446485Y-64609523D02*
X176113152Y-64609523D01*
X176113152Y-64609523D02*
X175922676Y-64561904D01*
X175922676Y-64561904D02*
X175827438Y-64466666D01*
X175827438Y-64466666D02*
X175779819Y-64371428D01*
X176779819Y-62990476D02*
X176779819Y-63561904D01*
X176779819Y-63276190D02*
X175779819Y-63276190D01*
X175779819Y-63276190D02*
X175922676Y-63371428D01*
X175922676Y-63371428D02*
X176017914Y-63466666D01*
X176017914Y-63466666D02*
X176065533Y-63561904D01*
X193379819Y-64771428D02*
X193379819Y-64580952D01*
X193379819Y-64580952D02*
X193427438Y-64485714D01*
X193427438Y-64485714D02*
X193522676Y-64390476D01*
X193522676Y-64390476D02*
X193713152Y-64342857D01*
X193713152Y-64342857D02*
X194046485Y-64342857D01*
X194046485Y-64342857D02*
X194236961Y-64390476D01*
X194236961Y-64390476D02*
X194332200Y-64485714D01*
X194332200Y-64485714D02*
X194379819Y-64580952D01*
X194379819Y-64580952D02*
X194379819Y-64771428D01*
X194379819Y-64771428D02*
X194332200Y-64866666D01*
X194332200Y-64866666D02*
X194236961Y-64961904D01*
X194236961Y-64961904D02*
X194046485Y-65009523D01*
X194046485Y-65009523D02*
X193713152Y-65009523D01*
X193713152Y-65009523D02*
X193522676Y-64961904D01*
X193522676Y-64961904D02*
X193427438Y-64866666D01*
X193427438Y-64866666D02*
X193379819Y-64771428D01*
X193475057Y-63961904D02*
X193427438Y-63914285D01*
X193427438Y-63914285D02*
X193379819Y-63819047D01*
X193379819Y-63819047D02*
X193379819Y-63580952D01*
X193379819Y-63580952D02*
X193427438Y-63485714D01*
X193427438Y-63485714D02*
X193475057Y-63438095D01*
X193475057Y-63438095D02*
X193570295Y-63390476D01*
X193570295Y-63390476D02*
X193665533Y-63390476D01*
X193665533Y-63390476D02*
X193808390Y-63438095D01*
X193808390Y-63438095D02*
X194379819Y-64009523D01*
X194379819Y-64009523D02*
X194379819Y-63390476D01*
X175936905Y-50892319D02*
X175936905Y-49892319D01*
X175936905Y-49892319D02*
X176175000Y-49892319D01*
X176175000Y-49892319D02*
X176317857Y-49939938D01*
X176317857Y-49939938D02*
X176413095Y-50035176D01*
X176413095Y-50035176D02*
X176460714Y-50130414D01*
X176460714Y-50130414D02*
X176508333Y-50320890D01*
X176508333Y-50320890D02*
X176508333Y-50463747D01*
X176508333Y-50463747D02*
X176460714Y-50654223D01*
X176460714Y-50654223D02*
X176413095Y-50749461D01*
X176413095Y-50749461D02*
X176317857Y-50844700D01*
X176317857Y-50844700D02*
X176175000Y-50892319D01*
X176175000Y-50892319D02*
X175936905Y-50892319D01*
X176889286Y-49987557D02*
X176936905Y-49939938D01*
X176936905Y-49939938D02*
X177032143Y-49892319D01*
X177032143Y-49892319D02*
X177270238Y-49892319D01*
X177270238Y-49892319D02*
X177365476Y-49939938D01*
X177365476Y-49939938D02*
X177413095Y-49987557D01*
X177413095Y-49987557D02*
X177460714Y-50082795D01*
X177460714Y-50082795D02*
X177460714Y-50178033D01*
X177460714Y-50178033D02*
X177413095Y-50320890D01*
X177413095Y-50320890D02*
X176841667Y-50892319D01*
X176841667Y-50892319D02*
X177460714Y-50892319D01*
X158503824Y-40710127D02*
X158503824Y-41277702D01*
X158503824Y-41277702D02*
X158537211Y-41344476D01*
X158537211Y-41344476D02*
X158570598Y-41377863D01*
X158570598Y-41377863D02*
X158637371Y-41411249D01*
X158637371Y-41411249D02*
X158770918Y-41411249D01*
X158770918Y-41411249D02*
X158837692Y-41377863D01*
X158837692Y-41377863D02*
X158871079Y-41344476D01*
X158871079Y-41344476D02*
X158904465Y-41277702D01*
X158904465Y-41277702D02*
X158904465Y-40710127D01*
X159605588Y-41411249D02*
X159204947Y-41411249D01*
X159405267Y-41411249D02*
X159405267Y-40710127D01*
X159405267Y-40710127D02*
X159338494Y-40810288D01*
X159338494Y-40810288D02*
X159271720Y-40877061D01*
X159271720Y-40877061D02*
X159204947Y-40910448D01*
X192014819Y-47434523D02*
X191014819Y-47434523D01*
X191014819Y-47434523D02*
X191729104Y-47101190D01*
X191729104Y-47101190D02*
X191014819Y-46767857D01*
X191014819Y-46767857D02*
X192014819Y-46767857D01*
X191110057Y-46339285D02*
X191062438Y-46291666D01*
X191062438Y-46291666D02*
X191014819Y-46196428D01*
X191014819Y-46196428D02*
X191014819Y-45958333D01*
X191014819Y-45958333D02*
X191062438Y-45863095D01*
X191062438Y-45863095D02*
X191110057Y-45815476D01*
X191110057Y-45815476D02*
X191205295Y-45767857D01*
X191205295Y-45767857D02*
X191300533Y-45767857D01*
X191300533Y-45767857D02*
X191443390Y-45815476D01*
X191443390Y-45815476D02*
X192014819Y-46386904D01*
X192014819Y-46386904D02*
X192014819Y-45767857D01*
D14*
X150242857Y-41715228D02*
X150214285Y-41743800D01*
X150214285Y-41743800D02*
X150128571Y-41772371D01*
X150128571Y-41772371D02*
X150071428Y-41772371D01*
X150071428Y-41772371D02*
X149985714Y-41743800D01*
X149985714Y-41743800D02*
X149928571Y-41686657D01*
X149928571Y-41686657D02*
X149900000Y-41629514D01*
X149900000Y-41629514D02*
X149871428Y-41515228D01*
X149871428Y-41515228D02*
X149871428Y-41429514D01*
X149871428Y-41429514D02*
X149900000Y-41315228D01*
X149900000Y-41315228D02*
X149928571Y-41258085D01*
X149928571Y-41258085D02*
X149985714Y-41200942D01*
X149985714Y-41200942D02*
X150071428Y-41172371D01*
X150071428Y-41172371D02*
X150128571Y-41172371D01*
X150128571Y-41172371D02*
X150214285Y-41200942D01*
X150214285Y-41200942D02*
X150242857Y-41229514D01*
X150814285Y-41772371D02*
X150471428Y-41772371D01*
X150642857Y-41772371D02*
X150642857Y-41172371D01*
X150642857Y-41172371D02*
X150585714Y-41258085D01*
X150585714Y-41258085D02*
X150528571Y-41315228D01*
X150528571Y-41315228D02*
X150471428Y-41343800D01*
X151328572Y-41772371D02*
X151328572Y-41458085D01*
X151328572Y-41458085D02*
X151300000Y-41400942D01*
X151300000Y-41400942D02*
X151242857Y-41372371D01*
X151242857Y-41372371D02*
X151128572Y-41372371D01*
X151128572Y-41372371D02*
X151071429Y-41400942D01*
X151328572Y-41743800D02*
X151271429Y-41772371D01*
X151271429Y-41772371D02*
X151128572Y-41772371D01*
X151128572Y-41772371D02*
X151071429Y-41743800D01*
X151071429Y-41743800D02*
X151042857Y-41686657D01*
X151042857Y-41686657D02*
X151042857Y-41629514D01*
X151042857Y-41629514D02*
X151071429Y-41572371D01*
X151071429Y-41572371D02*
X151128572Y-41543800D01*
X151128572Y-41543800D02*
X151271429Y-41543800D01*
X151271429Y-41543800D02*
X151328572Y-41515228D01*
X151928571Y-41772371D02*
X151585714Y-41772371D01*
X151757143Y-41772371D02*
X151757143Y-41172371D01*
X151757143Y-41172371D02*
X151700000Y-41258085D01*
X151700000Y-41258085D02*
X151642857Y-41315228D01*
X151642857Y-41315228D02*
X151585714Y-41343800D01*
D10*
X191369580Y-59621666D02*
X191417200Y-59669285D01*
X191417200Y-59669285D02*
X191464819Y-59812142D01*
X191464819Y-59812142D02*
X191464819Y-59907380D01*
X191464819Y-59907380D02*
X191417200Y-60050237D01*
X191417200Y-60050237D02*
X191321961Y-60145475D01*
X191321961Y-60145475D02*
X191226723Y-60193094D01*
X191226723Y-60193094D02*
X191036247Y-60240713D01*
X191036247Y-60240713D02*
X190893390Y-60240713D01*
X190893390Y-60240713D02*
X190702914Y-60193094D01*
X190702914Y-60193094D02*
X190607676Y-60145475D01*
X190607676Y-60145475D02*
X190512438Y-60050237D01*
X190512438Y-60050237D02*
X190464819Y-59907380D01*
X190464819Y-59907380D02*
X190464819Y-59812142D01*
X190464819Y-59812142D02*
X190512438Y-59669285D01*
X190512438Y-59669285D02*
X190560057Y-59621666D01*
X190464819Y-58764523D02*
X190464819Y-58954999D01*
X190464819Y-58954999D02*
X190512438Y-59050237D01*
X190512438Y-59050237D02*
X190560057Y-59097856D01*
X190560057Y-59097856D02*
X190702914Y-59193094D01*
X190702914Y-59193094D02*
X190893390Y-59240713D01*
X190893390Y-59240713D02*
X191274342Y-59240713D01*
X191274342Y-59240713D02*
X191369580Y-59193094D01*
X191369580Y-59193094D02*
X191417200Y-59145475D01*
X191417200Y-59145475D02*
X191464819Y-59050237D01*
X191464819Y-59050237D02*
X191464819Y-58859761D01*
X191464819Y-58859761D02*
X191417200Y-58764523D01*
X191417200Y-58764523D02*
X191369580Y-58716904D01*
X191369580Y-58716904D02*
X191274342Y-58669285D01*
X191274342Y-58669285D02*
X191036247Y-58669285D01*
X191036247Y-58669285D02*
X190941009Y-58716904D01*
X190941009Y-58716904D02*
X190893390Y-58764523D01*
X190893390Y-58764523D02*
X190845771Y-58859761D01*
X190845771Y-58859761D02*
X190845771Y-59050237D01*
X190845771Y-59050237D02*
X190893390Y-59145475D01*
X190893390Y-59145475D02*
X190941009Y-59193094D01*
X190941009Y-59193094D02*
X191036247Y-59240713D01*
D11*
X169027014Y-55190616D02*
X168839538Y-55321850D01*
X169027014Y-55415588D02*
X168633313Y-55415588D01*
X168633313Y-55415588D02*
X168633313Y-55265607D01*
X168633313Y-55265607D02*
X168652061Y-55228112D01*
X168652061Y-55228112D02*
X168670809Y-55209364D01*
X168670809Y-55209364D02*
X168708304Y-55190616D01*
X168708304Y-55190616D02*
X168764547Y-55190616D01*
X168764547Y-55190616D02*
X168802042Y-55209364D01*
X168802042Y-55209364D02*
X168820790Y-55228112D01*
X168820790Y-55228112D02*
X168839538Y-55265607D01*
X168839538Y-55265607D02*
X168839538Y-55415588D01*
X168633313Y-55059383D02*
X168633313Y-54815663D01*
X168633313Y-54815663D02*
X168783295Y-54946897D01*
X168783295Y-54946897D02*
X168783295Y-54890654D01*
X168783295Y-54890654D02*
X168802042Y-54853158D01*
X168802042Y-54853158D02*
X168820790Y-54834411D01*
X168820790Y-54834411D02*
X168858285Y-54815663D01*
X168858285Y-54815663D02*
X168952024Y-54815663D01*
X168952024Y-54815663D02*
X168989519Y-54834411D01*
X168989519Y-54834411D02*
X169008267Y-54853158D01*
X169008267Y-54853158D02*
X169027014Y-54890654D01*
X169027014Y-54890654D02*
X169027014Y-55003140D01*
X169027014Y-55003140D02*
X169008267Y-55040635D01*
X169008267Y-55040635D02*
X168989519Y-55059383D01*
D10*
X166363276Y-54531666D02*
X166058514Y-54745000D01*
X166363276Y-54897381D02*
X165723276Y-54897381D01*
X165723276Y-54897381D02*
X165723276Y-54653571D01*
X165723276Y-54653571D02*
X165753752Y-54592619D01*
X165753752Y-54592619D02*
X165784228Y-54562142D01*
X165784228Y-54562142D02*
X165845180Y-54531666D01*
X165845180Y-54531666D02*
X165936609Y-54531666D01*
X165936609Y-54531666D02*
X165997561Y-54562142D01*
X165997561Y-54562142D02*
X166028038Y-54592619D01*
X166028038Y-54592619D02*
X166058514Y-54653571D01*
X166058514Y-54653571D02*
X166058514Y-54897381D01*
X165936609Y-53983095D02*
X166363276Y-53983095D01*
X165692800Y-54135476D02*
X166149942Y-54287857D01*
X166149942Y-54287857D02*
X166149942Y-53891666D01*
X153145013Y-49123621D02*
X153115016Y-49153618D01*
X153115016Y-49153618D02*
X153025028Y-49183614D01*
X153025028Y-49183614D02*
X152965035Y-49183614D01*
X152965035Y-49183614D02*
X152875046Y-49153618D01*
X152875046Y-49153618D02*
X152815054Y-49093625D01*
X152815054Y-49093625D02*
X152785058Y-49033633D01*
X152785058Y-49033633D02*
X152755061Y-48913648D01*
X152755061Y-48913648D02*
X152755061Y-48823659D01*
X152755061Y-48823659D02*
X152785058Y-48703674D01*
X152785058Y-48703674D02*
X152815054Y-48643681D01*
X152815054Y-48643681D02*
X152875046Y-48583689D01*
X152875046Y-48583689D02*
X152965035Y-48553693D01*
X152965035Y-48553693D02*
X153025028Y-48553693D01*
X153025028Y-48553693D02*
X153115016Y-48583689D01*
X153115016Y-48583689D02*
X153145013Y-48613685D01*
X153354986Y-48553693D02*
X153744937Y-48553693D01*
X153744937Y-48553693D02*
X153534964Y-48793663D01*
X153534964Y-48793663D02*
X153624952Y-48793663D01*
X153624952Y-48793663D02*
X153684945Y-48823659D01*
X153684945Y-48823659D02*
X153714941Y-48853655D01*
X153714941Y-48853655D02*
X153744937Y-48913648D01*
X153744937Y-48913648D02*
X153744937Y-49063629D01*
X153744937Y-49063629D02*
X153714941Y-49123621D01*
X153714941Y-49123621D02*
X153684945Y-49153618D01*
X153684945Y-49153618D02*
X153624952Y-49183614D01*
X153624952Y-49183614D02*
X153444975Y-49183614D01*
X153444975Y-49183614D02*
X153384982Y-49153618D01*
X153384982Y-49153618D02*
X153354986Y-49123621D01*
D14*
X154823809Y-54014895D02*
X154557142Y-53633942D01*
X154366666Y-54014895D02*
X154366666Y-53214895D01*
X154366666Y-53214895D02*
X154671428Y-53214895D01*
X154671428Y-53214895D02*
X154747618Y-53252990D01*
X154747618Y-53252990D02*
X154785713Y-53291085D01*
X154785713Y-53291085D02*
X154823809Y-53367276D01*
X154823809Y-53367276D02*
X154823809Y-53481561D01*
X154823809Y-53481561D02*
X154785713Y-53557752D01*
X154785713Y-53557752D02*
X154747618Y-53595847D01*
X154747618Y-53595847D02*
X154671428Y-53633942D01*
X154671428Y-53633942D02*
X154366666Y-53633942D01*
X155090475Y-53214895D02*
X155623809Y-53214895D01*
X155623809Y-53214895D02*
X155280951Y-54014895D01*
X155928571Y-54014895D02*
X155928571Y-53214895D01*
X155928571Y-53519657D02*
X156004761Y-53481561D01*
X156004761Y-53481561D02*
X156157142Y-53481561D01*
X156157142Y-53481561D02*
X156233333Y-53519657D01*
X156233333Y-53519657D02*
X156271428Y-53557752D01*
X156271428Y-53557752D02*
X156309523Y-53633942D01*
X156309523Y-53633942D02*
X156309523Y-53862514D01*
X156309523Y-53862514D02*
X156271428Y-53938704D01*
X156271428Y-53938704D02*
X156233333Y-53976800D01*
X156233333Y-53976800D02*
X156157142Y-54014895D01*
X156157142Y-54014895D02*
X156004761Y-54014895D01*
X156004761Y-54014895D02*
X155928571Y-53976800D01*
X157071428Y-54014895D02*
X156614285Y-54014895D01*
X156842857Y-54014895D02*
X156842857Y-53214895D01*
X156842857Y-53214895D02*
X156766666Y-53329180D01*
X156766666Y-53329180D02*
X156690476Y-53405371D01*
X156690476Y-53405371D02*
X156614285Y-53443466D01*
D10*
X136404819Y-47751189D02*
X135404819Y-47751189D01*
X136404819Y-46751190D02*
X136404819Y-47322618D01*
X136404819Y-47036904D02*
X135404819Y-47036904D01*
X135404819Y-47036904D02*
X135547676Y-47132142D01*
X135547676Y-47132142D02*
X135642914Y-47227380D01*
X135642914Y-47227380D02*
X135690533Y-47322618D01*
X151843333Y-53913276D02*
X151538571Y-53913276D01*
X151538571Y-53913276D02*
X151538571Y-53273276D01*
X151995714Y-53273276D02*
X152391905Y-53273276D01*
X152391905Y-53273276D02*
X152178571Y-53517085D01*
X152178571Y-53517085D02*
X152270000Y-53517085D01*
X152270000Y-53517085D02*
X152330952Y-53547561D01*
X152330952Y-53547561D02*
X152361428Y-53578038D01*
X152361428Y-53578038D02*
X152391905Y-53638990D01*
X152391905Y-53638990D02*
X152391905Y-53791371D01*
X152391905Y-53791371D02*
X152361428Y-53852323D01*
X152361428Y-53852323D02*
X152330952Y-53882800D01*
X152330952Y-53882800D02*
X152270000Y-53913276D01*
X152270000Y-53913276D02*
X152087143Y-53913276D01*
X152087143Y-53913276D02*
X152026190Y-53882800D01*
X152026190Y-53882800D02*
X151995714Y-53852323D01*
D12*
X153742142Y-52382960D02*
X154107857Y-52382960D01*
X153924999Y-52565817D02*
X153924999Y-52200102D01*
D14*
X179800000Y-49340228D02*
X179771428Y-49368800D01*
X179771428Y-49368800D02*
X179685714Y-49397371D01*
X179685714Y-49397371D02*
X179628571Y-49397371D01*
X179628571Y-49397371D02*
X179542857Y-49368800D01*
X179542857Y-49368800D02*
X179485714Y-49311657D01*
X179485714Y-49311657D02*
X179457143Y-49254514D01*
X179457143Y-49254514D02*
X179428571Y-49140228D01*
X179428571Y-49140228D02*
X179428571Y-49054514D01*
X179428571Y-49054514D02*
X179457143Y-48940228D01*
X179457143Y-48940228D02*
X179485714Y-48883085D01*
X179485714Y-48883085D02*
X179542857Y-48825942D01*
X179542857Y-48825942D02*
X179628571Y-48797371D01*
X179628571Y-48797371D02*
X179685714Y-48797371D01*
X179685714Y-48797371D02*
X179771428Y-48825942D01*
X179771428Y-48825942D02*
X179800000Y-48854514D01*
X180342857Y-48797371D02*
X180057143Y-48797371D01*
X180057143Y-48797371D02*
X180028571Y-49083085D01*
X180028571Y-49083085D02*
X180057143Y-49054514D01*
X180057143Y-49054514D02*
X180114286Y-49025942D01*
X180114286Y-49025942D02*
X180257143Y-49025942D01*
X180257143Y-49025942D02*
X180314286Y-49054514D01*
X180314286Y-49054514D02*
X180342857Y-49083085D01*
X180342857Y-49083085D02*
X180371428Y-49140228D01*
X180371428Y-49140228D02*
X180371428Y-49283085D01*
X180371428Y-49283085D02*
X180342857Y-49340228D01*
X180342857Y-49340228D02*
X180314286Y-49368800D01*
X180314286Y-49368800D02*
X180257143Y-49397371D01*
X180257143Y-49397371D02*
X180114286Y-49397371D01*
X180114286Y-49397371D02*
X180057143Y-49368800D01*
X180057143Y-49368800D02*
X180028571Y-49340228D01*
D10*
X171145380Y-42629819D02*
X170669190Y-42629819D01*
X170669190Y-42629819D02*
X170669190Y-41629819D01*
X172002523Y-42629819D02*
X171431095Y-42629819D01*
X171716809Y-42629819D02*
X171716809Y-41629819D01*
X171716809Y-41629819D02*
X171621571Y-41772676D01*
X171621571Y-41772676D02*
X171526333Y-41867914D01*
X171526333Y-41867914D02*
X171431095Y-41915533D01*
X172335857Y-42629819D02*
X172859666Y-41963152D01*
X172335857Y-41963152D02*
X172859666Y-42629819D01*
X173764428Y-42629819D02*
X173193000Y-42629819D01*
X173478714Y-42629819D02*
X173478714Y-41629819D01*
X173478714Y-41629819D02*
X173383476Y-41772676D01*
X173383476Y-41772676D02*
X173288238Y-41867914D01*
X173288238Y-41867914D02*
X173193000Y-41915533D01*
X185512380Y-53873276D02*
X185512380Y-54391371D01*
X185512380Y-54391371D02*
X185542857Y-54452323D01*
X185542857Y-54452323D02*
X185573333Y-54482800D01*
X185573333Y-54482800D02*
X185634285Y-54513276D01*
X185634285Y-54513276D02*
X185756190Y-54513276D01*
X185756190Y-54513276D02*
X185817142Y-54482800D01*
X185817142Y-54482800D02*
X185847619Y-54452323D01*
X185847619Y-54452323D02*
X185878095Y-54391371D01*
X185878095Y-54391371D02*
X185878095Y-53873276D01*
X186121904Y-53873276D02*
X186518095Y-53873276D01*
X186518095Y-53873276D02*
X186304761Y-54117085D01*
X186304761Y-54117085D02*
X186396190Y-54117085D01*
X186396190Y-54117085D02*
X186457142Y-54147561D01*
X186457142Y-54147561D02*
X186487618Y-54178038D01*
X186487618Y-54178038D02*
X186518095Y-54238990D01*
X186518095Y-54238990D02*
X186518095Y-54391371D01*
X186518095Y-54391371D02*
X186487618Y-54452323D01*
X186487618Y-54452323D02*
X186457142Y-54482800D01*
X186457142Y-54482800D02*
X186396190Y-54513276D01*
X186396190Y-54513276D02*
X186213333Y-54513276D01*
X186213333Y-54513276D02*
X186152380Y-54482800D01*
X186152380Y-54482800D02*
X186121904Y-54452323D01*
X144288095Y-61079819D02*
X144859523Y-61079819D01*
X144573809Y-62079819D02*
X144573809Y-61079819D01*
X145192857Y-62079819D02*
X145192857Y-61079819D01*
X145192857Y-61079819D02*
X145573809Y-61079819D01*
X145573809Y-61079819D02*
X145669047Y-61127438D01*
X145669047Y-61127438D02*
X145716666Y-61175057D01*
X145716666Y-61175057D02*
X145764285Y-61270295D01*
X145764285Y-61270295D02*
X145764285Y-61413152D01*
X145764285Y-61413152D02*
X145716666Y-61508390D01*
X145716666Y-61508390D02*
X145669047Y-61556009D01*
X145669047Y-61556009D02*
X145573809Y-61603628D01*
X145573809Y-61603628D02*
X145192857Y-61603628D01*
X146097619Y-61079819D02*
X146716666Y-61079819D01*
X146716666Y-61079819D02*
X146383333Y-61460771D01*
X146383333Y-61460771D02*
X146526190Y-61460771D01*
X146526190Y-61460771D02*
X146621428Y-61508390D01*
X146621428Y-61508390D02*
X146669047Y-61556009D01*
X146669047Y-61556009D02*
X146716666Y-61651247D01*
X146716666Y-61651247D02*
X146716666Y-61889342D01*
X146716666Y-61889342D02*
X146669047Y-61984580D01*
X146669047Y-61984580D02*
X146621428Y-62032200D01*
X146621428Y-62032200D02*
X146526190Y-62079819D01*
X146526190Y-62079819D02*
X146240476Y-62079819D01*
X146240476Y-62079819D02*
X146145238Y-62032200D01*
X146145238Y-62032200D02*
X146097619Y-61984580D01*
X137588095Y-40429819D02*
X138159523Y-40429819D01*
X137873809Y-41429819D02*
X137873809Y-40429819D01*
X138492857Y-41429819D02*
X138492857Y-40429819D01*
X138492857Y-40429819D02*
X138873809Y-40429819D01*
X138873809Y-40429819D02*
X138969047Y-40477438D01*
X138969047Y-40477438D02*
X139016666Y-40525057D01*
X139016666Y-40525057D02*
X139064285Y-40620295D01*
X139064285Y-40620295D02*
X139064285Y-40763152D01*
X139064285Y-40763152D02*
X139016666Y-40858390D01*
X139016666Y-40858390D02*
X138969047Y-40906009D01*
X138969047Y-40906009D02*
X138873809Y-40953628D01*
X138873809Y-40953628D02*
X138492857Y-40953628D01*
X139445238Y-40525057D02*
X139492857Y-40477438D01*
X139492857Y-40477438D02*
X139588095Y-40429819D01*
X139588095Y-40429819D02*
X139826190Y-40429819D01*
X139826190Y-40429819D02*
X139921428Y-40477438D01*
X139921428Y-40477438D02*
X139969047Y-40525057D01*
X139969047Y-40525057D02*
X140016666Y-40620295D01*
X140016666Y-40620295D02*
X140016666Y-40715533D01*
X140016666Y-40715533D02*
X139969047Y-40858390D01*
X139969047Y-40858390D02*
X139397619Y-41429819D01*
X139397619Y-41429819D02*
X140016666Y-41429819D01*
X142793333Y-45588276D02*
X142488571Y-45588276D01*
X142488571Y-45588276D02*
X142488571Y-44948276D01*
X143311428Y-44948276D02*
X143006666Y-44948276D01*
X143006666Y-44948276D02*
X142976190Y-45253038D01*
X142976190Y-45253038D02*
X143006666Y-45222561D01*
X143006666Y-45222561D02*
X143067619Y-45192085D01*
X143067619Y-45192085D02*
X143220000Y-45192085D01*
X143220000Y-45192085D02*
X143280952Y-45222561D01*
X143280952Y-45222561D02*
X143311428Y-45253038D01*
X143311428Y-45253038D02*
X143341905Y-45313990D01*
X143341905Y-45313990D02*
X143341905Y-45466371D01*
X143341905Y-45466371D02*
X143311428Y-45527323D01*
X143311428Y-45527323D02*
X143280952Y-45557800D01*
X143280952Y-45557800D02*
X143220000Y-45588276D01*
X143220000Y-45588276D02*
X143067619Y-45588276D01*
X143067619Y-45588276D02*
X143006666Y-45557800D01*
X143006666Y-45557800D02*
X142976190Y-45527323D01*
D12*
X140817142Y-46507960D02*
X141182857Y-46507960D01*
X140999999Y-46690817D02*
X140999999Y-46325102D01*
D14*
X185508333Y-47741752D02*
X185489285Y-47760800D01*
X185489285Y-47760800D02*
X185432143Y-47779847D01*
X185432143Y-47779847D02*
X185394047Y-47779847D01*
X185394047Y-47779847D02*
X185336904Y-47760800D01*
X185336904Y-47760800D02*
X185298809Y-47722704D01*
X185298809Y-47722704D02*
X185279762Y-47684609D01*
X185279762Y-47684609D02*
X185260714Y-47608419D01*
X185260714Y-47608419D02*
X185260714Y-47551276D01*
X185260714Y-47551276D02*
X185279762Y-47475085D01*
X185279762Y-47475085D02*
X185298809Y-47436990D01*
X185298809Y-47436990D02*
X185336904Y-47398895D01*
X185336904Y-47398895D02*
X185394047Y-47379847D01*
X185394047Y-47379847D02*
X185432143Y-47379847D01*
X185432143Y-47379847D02*
X185489285Y-47398895D01*
X185489285Y-47398895D02*
X185508333Y-47417942D01*
X185660714Y-47417942D02*
X185679762Y-47398895D01*
X185679762Y-47398895D02*
X185717857Y-47379847D01*
X185717857Y-47379847D02*
X185813095Y-47379847D01*
X185813095Y-47379847D02*
X185851190Y-47398895D01*
X185851190Y-47398895D02*
X185870238Y-47417942D01*
X185870238Y-47417942D02*
X185889285Y-47456038D01*
X185889285Y-47456038D02*
X185889285Y-47494133D01*
X185889285Y-47494133D02*
X185870238Y-47551276D01*
X185870238Y-47551276D02*
X185641666Y-47779847D01*
X185641666Y-47779847D02*
X185889285Y-47779847D01*
D16*
%TO.C,R6*%
X189714000Y-43140000D02*
G75*
G03*
X189587000Y-43013000I-126999J1D01*
G01*
X188063000Y-43013000D02*
G75*
G03*
X187936000Y-43140000I-1J-126999D01*
G01*
X189587000Y-43902000D02*
G75*
G03*
X189714000Y-43775000I0J127000D01*
G01*
X187936000Y-43775000D02*
G75*
G03*
X188063000Y-43902000I127000J0D01*
G01*
D17*
%TO.C,R5*%
X184785000Y-49325000D02*
X184565000Y-49325000D01*
X184785000Y-48425000D02*
X184565000Y-48425000D01*
D18*
%TO.C,L4*%
X190750000Y-50562000D02*
X190750000Y-50994000D01*
X189300000Y-50569000D02*
X189300000Y-50987000D01*
D14*
X190025000Y-50645000D02*
X190165000Y-50885000D01*
X190165000Y-50885000D02*
X189875000Y-50885000D01*
X189875000Y-50885000D02*
X190025000Y-50645000D01*
D17*
%TO.C,M2*%
X158945000Y-49945000D02*
X158945000Y-51745000D01*
X162045000Y-51745000D02*
X162045000Y-49945000D01*
D18*
X161545000Y-48535000D02*
G75*
G03*
X161545000Y-48535000I-100000J0D01*
G01*
D19*
%TO.C,M1*%
X142275000Y-48600000D02*
X143075000Y-48600000D01*
X142275000Y-49200000D02*
X142275000Y-48600000D01*
X142275000Y-50800000D02*
X142275000Y-51400000D01*
X142275000Y-51400000D02*
X143075000Y-51400000D01*
D12*
%TO.C,C4*%
X163140000Y-56411252D02*
X163140000Y-55888748D01*
X164610000Y-56411252D02*
X164610000Y-55888748D01*
D17*
%TO.C,D1*%
X148730000Y-46060000D02*
X148520000Y-46060000D01*
X146170000Y-46060000D02*
X146380000Y-46060000D01*
X146170000Y-46060000D02*
X146170000Y-50390000D01*
X148730000Y-50390000D02*
X148730000Y-46060000D01*
X148520000Y-50390000D02*
X148730000Y-50390000D01*
X146170000Y-50390000D02*
X146380000Y-50390000D01*
D18*
X147550000Y-44225000D02*
G75*
G03*
X147550000Y-44225000I-100000J0D01*
G01*
D12*
%TO.C,C1*%
X185036252Y-45585000D02*
X184513748Y-45585000D01*
X185036252Y-44115000D02*
X184513748Y-44115000D01*
D17*
%TO.C,C2a1*%
X148370000Y-42600000D02*
X148370000Y-43600000D01*
X149330000Y-43600000D02*
X149330000Y-42600000D01*
%TO.C,C2*%
X164775000Y-50235000D02*
X165775000Y-50235000D01*
X165775000Y-49275000D02*
X164775000Y-49275000D01*
D12*
%TO.C,R1b1*%
X187620000Y-52453641D02*
X187620000Y-52146359D01*
X188380000Y-52453641D02*
X188380000Y-52146359D01*
%TO.C,R1a1*%
X166850000Y-43016359D02*
X166850000Y-43323641D01*
X166090000Y-43016359D02*
X166090000Y-43323641D01*
%TO.C,TP4*%
X150200000Y-60575000D02*
X150200000Y-56175000D01*
X154600000Y-60575000D02*
X150200000Y-60575000D01*
X150200000Y-56175000D02*
X154600000Y-56175000D01*
X154600000Y-56175000D02*
X154600000Y-60575000D01*
D17*
%TO.C,U2*%
X169325000Y-53552500D02*
X167625000Y-53552500D01*
X167625000Y-50422500D02*
X169325000Y-50422500D01*
D18*
X170880000Y-52937500D02*
G75*
G03*
X170880000Y-52937500I-100000J0D01*
G01*
D12*
%TO.C,TP1*%
X141900000Y-42000000D02*
X144300000Y-42000000D01*
X141900000Y-44400000D02*
X141900000Y-42000000D01*
X144300000Y-42000000D02*
X144300000Y-44400000D01*
X144300000Y-44400000D02*
X141900000Y-44400000D01*
%TO.C,R2*%
X153880000Y-44917936D02*
X153880000Y-45372064D01*
X152410000Y-44917936D02*
X152410000Y-45372064D01*
%TO.C,R7a1*%
X138397936Y-46040000D02*
X138852064Y-46040000D01*
X138397936Y-47510000D02*
X138852064Y-47510000D01*
D18*
%TO.C,L2*%
X165257000Y-46670000D02*
X165689000Y-46670000D01*
X165264000Y-48120000D02*
X165682000Y-48120000D01*
D14*
X165340000Y-47395000D02*
X165580000Y-47255000D01*
X165580000Y-47255000D02*
X165580000Y-47545000D01*
X165580000Y-47545000D02*
X165340000Y-47395000D01*
D18*
%TO.C,L1*%
X165257000Y-44570000D02*
X165689000Y-44570000D01*
X165264000Y-46020000D02*
X165682000Y-46020000D01*
D14*
X165340000Y-45295000D02*
X165580000Y-45155000D01*
X165580000Y-45155000D02*
X165580000Y-45445000D01*
X165580000Y-45445000D02*
X165340000Y-45295000D01*
D12*
%TO.C,O1*%
X172825000Y-61605000D02*
X172825000Y-60850000D01*
X172825000Y-61605000D02*
X164025000Y-61605000D01*
X174570000Y-64775000D02*
X174570000Y-65825000D01*
X162280000Y-64775000D02*
X162280000Y-65825000D01*
%TO.C,O2*%
X190275000Y-61655000D02*
X190275000Y-60900000D01*
X190275000Y-61655000D02*
X181475000Y-61655000D01*
X192020000Y-64825000D02*
X192020000Y-65875000D01*
X179730000Y-64825000D02*
X179730000Y-65875000D01*
D17*
%TO.C,D2*%
X180000000Y-55475000D02*
X180000000Y-54825000D01*
X180000000Y-49575000D02*
X180000000Y-50225000D01*
X180000000Y-49575000D02*
X173125000Y-49575000D01*
X173125000Y-55475000D02*
X180000000Y-55475000D01*
X173125000Y-54825000D02*
X173125000Y-55475000D01*
X173125000Y-49575000D02*
X173125000Y-50225000D01*
D18*
X181662500Y-52525000D02*
G75*
G03*
X181662500Y-52525000I-100000J0D01*
G01*
D17*
%TO.C,U1*%
X160720000Y-42220000D02*
X160720000Y-42420000D01*
X157451090Y-42220000D02*
X160720000Y-42220000D01*
X156920000Y-42751090D02*
X157451090Y-42220000D01*
D20*
X156853100Y-41799000D02*
G75*
G03*
X156853100Y-41799000I-165100J0D01*
G01*
D17*
%TO.C,M2*%
X187375000Y-45620000D02*
X187375000Y-47420000D01*
X190475000Y-47420000D02*
X190475000Y-45620000D01*
D18*
X189975000Y-44210000D02*
G75*
G03*
X189975000Y-44210000I-100000J0D01*
G01*
D12*
%TO.C,C1a1*%
X151660000Y-43413748D02*
X151660000Y-43936252D01*
X150190000Y-43413748D02*
X150190000Y-43936252D01*
D17*
%TO.C,C3*%
X152400000Y-48700000D02*
X151240000Y-48700000D01*
X151240000Y-47390000D02*
X152400000Y-47390000D01*
D12*
%TO.C,R7b1*%
X156739564Y-52735000D02*
X156285436Y-52735000D01*
X156739564Y-51265000D02*
X156285436Y-51265000D01*
D17*
%TO.C,I1*%
X139200000Y-49275000D02*
X139200000Y-49825000D01*
X137120000Y-49275000D02*
X139200000Y-49275000D01*
X134300000Y-49275000D02*
X134300000Y-56775000D01*
X139200000Y-56775000D02*
X139200000Y-56225000D01*
X137120000Y-56775000D02*
X139200000Y-56775000D01*
D18*
X140002000Y-51705000D02*
G75*
G03*
X140002000Y-51705000I-100000J0D01*
G01*
%TO.C,L3*%
X151812000Y-51325000D02*
X152244000Y-51325000D01*
X151819000Y-52775000D02*
X152237000Y-52775000D01*
D14*
X151895000Y-52050000D02*
X152135000Y-51910000D01*
X152135000Y-51910000D02*
X152135000Y-52200000D01*
X152135000Y-52200000D02*
X151895000Y-52050000D01*
D17*
%TO.C,C5*%
X179025000Y-46620000D02*
X179025000Y-45780000D01*
X181825000Y-46620000D02*
X181825000Y-45780000D01*
D21*
%TO.C,L1x1*%
X169070800Y-43255200D02*
X169070800Y-44370260D01*
X169070800Y-47829740D02*
X169070800Y-48944800D01*
X169070800Y-48944800D02*
X175065200Y-48944800D01*
X175065200Y-43255200D02*
X169070800Y-43255200D01*
X175065200Y-44370260D02*
X175065200Y-43255200D01*
X175065200Y-48944800D02*
X175065200Y-47829740D01*
X168004000Y-46100000D02*
G75*
G03*
X168004000Y-46100000I-76200J0D01*
G01*
D18*
%TO.C,U3*%
X187220000Y-52800000D02*
G75*
G03*
X187220000Y-52800000I-100000J0D01*
G01*
D12*
%TO.C,TP3*%
X143300000Y-60575000D02*
X143300000Y-56175000D01*
X147700000Y-60575000D02*
X143300000Y-60575000D01*
X143300000Y-56175000D02*
X147700000Y-56175000D01*
X147700000Y-56175000D02*
X147700000Y-60575000D01*
%TO.C,TP2*%
X137650000Y-42000000D02*
X140050000Y-42000000D01*
X137650000Y-44400000D02*
X137650000Y-42000000D01*
X140050000Y-42000000D02*
X140050000Y-44400000D01*
X140050000Y-44400000D02*
X137650000Y-44400000D01*
D18*
%TO.C,L5*%
X143113000Y-47500000D02*
X142681000Y-47500000D01*
X143106000Y-46050000D02*
X142688000Y-46050000D01*
D14*
X143030000Y-46775000D02*
X142790000Y-46915000D01*
X142790000Y-46915000D02*
X142790000Y-46625000D01*
X142790000Y-46625000D02*
X143030000Y-46775000D01*
D17*
%TO.C,C2*%
X184780000Y-46545000D02*
X183780000Y-46545000D01*
X183780000Y-47505000D02*
X184780000Y-47505000D01*
%TD*%
M02*
