%TF.GenerationSoftware,KiCad,Pcbnew,7.0.8*%
%TF.CreationDate,2024-10-30T19:04:05-07:00*%
%TF.ProjectId,ECE196Team13,45434531-3936-4546-9561-6d31332e6b69,1*%
%TF.SameCoordinates,Original*%
%TF.FileFunction,Copper,L1,Top*%
%TF.FilePolarity,Positive*%
%FSLAX46Y46*%
G04 Gerber Fmt 4.6, Leading zero omitted, Abs format (unit mm)*
G04 Created by KiCad (PCBNEW 7.0.8) date 2024-10-30 19:04:05*
%MOMM*%
%LPD*%
G01*
G04 APERTURE LIST*
G04 Aperture macros list*
%AMRoundRect*
0 Rectangle with rounded corners*
0 $1 Rounding radius*
0 $2 $3 $4 $5 $6 $7 $8 $9 X,Y pos of 4 corners*
0 Add a 4 corners polygon primitive as box body*
4,1,4,$2,$3,$4,$5,$6,$7,$8,$9,$2,$3,0*
0 Add four circle primitives for the rounded corners*
1,1,$1+$1,$2,$3*
1,1,$1+$1,$4,$5*
1,1,$1+$1,$6,$7*
1,1,$1+$1,$8,$9*
0 Add four rect primitives between the rounded corners*
20,1,$1+$1,$2,$3,$4,$5,0*
20,1,$1+$1,$4,$5,$6,$7,0*
20,1,$1+$1,$6,$7,$8,$9,0*
20,1,$1+$1,$8,$9,$2,$3,0*%
G04 Aperture macros list end*
%TA.AperFunction,EtchedComponent*%
%ADD10C,0.010000*%
%TD*%
%TA.AperFunction,SMDPad,CuDef*%
%ADD11RoundRect,0.158750X-0.158750X0.158750X-0.158750X-0.158750X0.158750X-0.158750X0.158750X0.158750X0*%
%TD*%
%TA.AperFunction,SMDPad,CuDef*%
%ADD12R,0.790000X0.930000*%
%TD*%
%TA.AperFunction,SMDPad,CuDef*%
%ADD13R,1.200000X1.100000*%
%TD*%
%TA.AperFunction,SMDPad,CuDef*%
%ADD14RoundRect,0.100000X-0.100000X0.130000X-0.100000X-0.130000X0.100000X-0.130000X0.100000X0.130000X0*%
%TD*%
%TA.AperFunction,SMDPad,CuDef*%
%ADD15RoundRect,0.147500X-0.147500X0.457500X-0.147500X-0.457500X0.147500X-0.457500X0.147500X0.457500X0*%
%TD*%
%TA.AperFunction,SMDPad,CuDef*%
%ADD16R,0.900000X0.800000*%
%TD*%
%TA.AperFunction,SMDPad,CuDef*%
%ADD17RoundRect,0.250000X0.475000X-0.250000X0.475000X0.250000X-0.475000X0.250000X-0.475000X-0.250000X0*%
%TD*%
%TA.AperFunction,SMDPad,CuDef*%
%ADD18R,1.500000X2.120000*%
%TD*%
%TA.AperFunction,SMDPad,CuDef*%
%ADD19RoundRect,0.250000X0.250000X0.475000X-0.250000X0.475000X-0.250000X-0.475000X0.250000X-0.475000X0*%
%TD*%
%TA.AperFunction,SMDPad,CuDef*%
%ADD20RoundRect,0.143100X-0.156900X0.126900X-0.156900X-0.126900X0.156900X-0.126900X0.156900X0.126900X0*%
%TD*%
%TA.AperFunction,SMDPad,CuDef*%
%ADD21RoundRect,0.143100X-0.126900X-0.156900X0.126900X-0.156900X0.126900X0.156900X-0.126900X0.156900X0*%
%TD*%
%TA.AperFunction,SMDPad,CuDef*%
%ADD22RoundRect,0.135000X0.185000X-0.135000X0.185000X0.135000X-0.185000X0.135000X-0.185000X-0.135000X0*%
%TD*%
%TA.AperFunction,SMDPad,CuDef*%
%ADD23RoundRect,0.135000X-0.185000X0.135000X-0.185000X-0.135000X0.185000X-0.135000X0.185000X0.135000X0*%
%TD*%
%TA.AperFunction,SMDPad,CuDef*%
%ADD24R,4.000000X4.000000*%
%TD*%
%TA.AperFunction,SMDPad,CuDef*%
%ADD25RoundRect,0.147500X0.537500X0.147500X-0.537500X0.147500X-0.537500X-0.147500X0.537500X-0.147500X0*%
%TD*%
%TA.AperFunction,SMDPad,CuDef*%
%ADD26R,2.000000X2.000000*%
%TD*%
%TA.AperFunction,SMDPad,CuDef*%
%ADD27RoundRect,0.250000X-0.450000X0.262500X-0.450000X-0.262500X0.450000X-0.262500X0.450000X0.262500X0*%
%TD*%
%TA.AperFunction,SMDPad,CuDef*%
%ADD28RoundRect,0.100000X0.100000X-0.130000X0.100000X0.130000X-0.100000X0.130000X-0.100000X-0.130000X0*%
%TD*%
%TA.AperFunction,SMDPad,CuDef*%
%ADD29RoundRect,0.250000X-0.262500X-0.450000X0.262500X-0.450000X0.262500X0.450000X-0.262500X0.450000X0*%
%TD*%
%TA.AperFunction,SMDPad,CuDef*%
%ADD30R,1.100000X1.200000*%
%TD*%
%TA.AperFunction,SMDPad,CuDef*%
%ADD31R,1.100000X2.500000*%
%TD*%
%TA.AperFunction,ComponentPad*%
%ADD32O,1.900000X3.500000*%
%TD*%
%TA.AperFunction,SMDPad,CuDef*%
%ADD33R,2.000000X3.600000*%
%TD*%
%TA.AperFunction,SMDPad,CuDef*%
%ADD34R,1.400000X0.600000*%
%TD*%
%TA.AperFunction,SMDPad,CuDef*%
%ADD35RoundRect,0.250000X-0.475000X0.250000X-0.475000X-0.250000X0.475000X-0.250000X0.475000X0.250000X0*%
%TD*%
%TA.AperFunction,SMDPad,CuDef*%
%ADD36R,0.600000X0.540000*%
%TD*%
%TA.AperFunction,SMDPad,CuDef*%
%ADD37R,0.500000X0.475000*%
%TD*%
%TA.AperFunction,SMDPad,CuDef*%
%ADD38R,0.560000X0.680000*%
%TD*%
%TA.AperFunction,SMDPad,CuDef*%
%ADD39RoundRect,0.250000X0.262500X0.450000X-0.262500X0.450000X-0.262500X-0.450000X0.262500X-0.450000X0*%
%TD*%
%TA.AperFunction,SMDPad,CuDef*%
%ADD40R,1.350000X0.400000*%
%TD*%
%TA.AperFunction,ComponentPad*%
%ADD41O,1.900000X1.010000*%
%TD*%
%TA.AperFunction,SMDPad,CuDef*%
%ADD42R,1.900000X1.800000*%
%TD*%
%TA.AperFunction,ComponentPad*%
%ADD43C,1.100000*%
%TD*%
%TA.AperFunction,SMDPad,CuDef*%
%ADD44R,2.810000X1.370000*%
%TD*%
%TA.AperFunction,SMDPad,CuDef*%
%ADD45R,1.981200X2.794000*%
%TD*%
%TA.AperFunction,SMDPad,CuDef*%
%ADD46RoundRect,0.073750X0.611250X0.221250X-0.611250X0.221250X-0.611250X-0.221250X0.611250X-0.221250X0*%
%TD*%
%TA.AperFunction,SMDPad,CuDef*%
%ADD47RoundRect,0.143100X0.126900X0.156900X-0.126900X0.156900X-0.126900X-0.156900X0.126900X-0.156900X0*%
%TD*%
%TA.AperFunction,ViaPad*%
%ADD48C,0.800000*%
%TD*%
%TA.AperFunction,Conductor*%
%ADD49C,0.750000*%
%TD*%
%TA.AperFunction,Conductor*%
%ADD50C,0.250000*%
%TD*%
%TA.AperFunction,Conductor*%
%ADD51C,0.600000*%
%TD*%
%TA.AperFunction,Conductor*%
%ADD52C,0.700000*%
%TD*%
%TA.AperFunction,Conductor*%
%ADD53C,0.500000*%
%TD*%
%TA.AperFunction,Conductor*%
%ADD54C,0.400000*%
%TD*%
%TA.AperFunction,Conductor*%
%ADD55C,1.000000*%
%TD*%
%TA.AperFunction,Conductor*%
%ADD56C,1.500000*%
%TD*%
G04 APERTURE END LIST*
%TO.C,I1*%
D10*
X136226500Y-48351000D02*
X136252500Y-48353000D01*
X136278500Y-48356000D01*
X136303500Y-48361000D01*
X136329500Y-48367000D01*
X136354500Y-48374000D01*
X136379500Y-48383000D01*
X136403500Y-48393000D01*
X136426500Y-48404000D01*
X136449500Y-48417000D01*
X136472500Y-48431000D01*
X136493500Y-48445000D01*
X136514500Y-48461000D01*
X136534500Y-48478000D01*
X136553500Y-48496000D01*
X136571500Y-48515000D01*
X136588500Y-48535000D01*
X136604500Y-48556000D01*
X136619500Y-48578000D01*
X136633500Y-48600000D01*
X136645500Y-48623000D01*
X136656500Y-48647000D01*
X136666500Y-48671000D01*
X136675500Y-48695000D01*
X136682500Y-48721000D01*
X136689500Y-48746000D01*
X136693500Y-48772000D01*
X136697500Y-48798000D01*
X136699500Y-48824000D01*
X136699500Y-48850000D01*
X136700000Y-50425000D01*
X136699500Y-50425000D01*
X134799500Y-50425000D01*
X134799500Y-48850000D01*
X134800500Y-48824000D01*
X134802500Y-48798000D01*
X134806500Y-48772000D01*
X134810500Y-48746000D01*
X134817500Y-48721000D01*
X134824500Y-48695000D01*
X134833500Y-48671000D01*
X134843500Y-48647000D01*
X134854500Y-48623000D01*
X134866500Y-48600000D01*
X134880500Y-48578000D01*
X134895500Y-48556000D01*
X134911500Y-48535000D01*
X134928500Y-48515000D01*
X134946500Y-48496000D01*
X134965500Y-48478000D01*
X134985500Y-48461000D01*
X135006500Y-48445000D01*
X135027500Y-48431000D01*
X135049500Y-48417000D01*
X135073500Y-48404000D01*
X135096500Y-48393000D01*
X135120500Y-48383000D01*
X135145500Y-48374000D01*
X135170500Y-48367000D01*
X135196500Y-48361000D01*
X135221500Y-48356000D01*
X135247500Y-48353000D01*
X135273500Y-48351000D01*
X135299500Y-48350000D01*
X136200500Y-48350000D01*
X136226500Y-48351000D01*
%TA.AperFunction,EtchedComponent*%
G36*
X136226500Y-48351000D02*
G01*
X136252500Y-48353000D01*
X136278500Y-48356000D01*
X136303500Y-48361000D01*
X136329500Y-48367000D01*
X136354500Y-48374000D01*
X136379500Y-48383000D01*
X136403500Y-48393000D01*
X136426500Y-48404000D01*
X136449500Y-48417000D01*
X136472500Y-48431000D01*
X136493500Y-48445000D01*
X136514500Y-48461000D01*
X136534500Y-48478000D01*
X136553500Y-48496000D01*
X136571500Y-48515000D01*
X136588500Y-48535000D01*
X136604500Y-48556000D01*
X136619500Y-48578000D01*
X136633500Y-48600000D01*
X136645500Y-48623000D01*
X136656500Y-48647000D01*
X136666500Y-48671000D01*
X136675500Y-48695000D01*
X136682500Y-48721000D01*
X136689500Y-48746000D01*
X136693500Y-48772000D01*
X136697500Y-48798000D01*
X136699500Y-48824000D01*
X136699500Y-48850000D01*
X136700000Y-50425000D01*
X136699500Y-50425000D01*
X134799500Y-50425000D01*
X134799500Y-48850000D01*
X134800500Y-48824000D01*
X134802500Y-48798000D01*
X134806500Y-48772000D01*
X134810500Y-48746000D01*
X134817500Y-48721000D01*
X134824500Y-48695000D01*
X134833500Y-48671000D01*
X134843500Y-48647000D01*
X134854500Y-48623000D01*
X134866500Y-48600000D01*
X134880500Y-48578000D01*
X134895500Y-48556000D01*
X134911500Y-48535000D01*
X134928500Y-48515000D01*
X134946500Y-48496000D01*
X134965500Y-48478000D01*
X134985500Y-48461000D01*
X135006500Y-48445000D01*
X135027500Y-48431000D01*
X135049500Y-48417000D01*
X135073500Y-48404000D01*
X135096500Y-48393000D01*
X135120500Y-48383000D01*
X135145500Y-48374000D01*
X135170500Y-48367000D01*
X135196500Y-48361000D01*
X135221500Y-48356000D01*
X135247500Y-48353000D01*
X135273500Y-48351000D01*
X135299500Y-48350000D01*
X136200500Y-48350000D01*
X136226500Y-48351000D01*
G37*
%TD.AperFunction*%
X136699500Y-57200000D02*
X136699500Y-57226000D01*
X136697500Y-57252000D01*
X136693500Y-57278000D01*
X136689500Y-57304000D01*
X136682500Y-57329000D01*
X136675500Y-57355000D01*
X136666500Y-57379000D01*
X136656500Y-57403000D01*
X136645500Y-57427000D01*
X136633500Y-57450000D01*
X136619500Y-57472000D01*
X136604500Y-57494000D01*
X136588500Y-57515000D01*
X136571500Y-57535000D01*
X136553500Y-57554000D01*
X136534500Y-57572000D01*
X136514500Y-57589000D01*
X136493500Y-57605000D01*
X136472500Y-57619000D01*
X136449500Y-57633000D01*
X136426500Y-57646000D01*
X136403500Y-57657000D01*
X136379500Y-57667000D01*
X136354500Y-57676000D01*
X136329500Y-57683000D01*
X136303500Y-57689000D01*
X136278500Y-57694000D01*
X136252500Y-57697000D01*
X136226500Y-57699000D01*
X136200500Y-57700000D01*
X135299500Y-57700000D01*
X135273500Y-57699000D01*
X135247500Y-57697000D01*
X135221500Y-57694000D01*
X135196500Y-57689000D01*
X135170500Y-57683000D01*
X135145500Y-57676000D01*
X135120500Y-57667000D01*
X135096500Y-57657000D01*
X135073500Y-57646000D01*
X135049500Y-57633000D01*
X135027500Y-57619000D01*
X135006500Y-57605000D01*
X134985500Y-57589000D01*
X134965500Y-57572000D01*
X134946500Y-57554000D01*
X134928500Y-57535000D01*
X134911500Y-57515000D01*
X134895500Y-57494000D01*
X134880500Y-57472000D01*
X134866500Y-57450000D01*
X134854500Y-57427000D01*
X134843500Y-57403000D01*
X134833500Y-57379000D01*
X134824500Y-57355000D01*
X134817500Y-57329000D01*
X134810500Y-57304000D01*
X134806500Y-57278000D01*
X134802500Y-57252000D01*
X134800500Y-57226000D01*
X134799500Y-57200000D01*
X134800000Y-55625000D01*
X136699500Y-55625000D01*
X136699500Y-57200000D01*
%TA.AperFunction,EtchedComponent*%
G36*
X136699500Y-57200000D02*
G01*
X136699500Y-57226000D01*
X136697500Y-57252000D01*
X136693500Y-57278000D01*
X136689500Y-57304000D01*
X136682500Y-57329000D01*
X136675500Y-57355000D01*
X136666500Y-57379000D01*
X136656500Y-57403000D01*
X136645500Y-57427000D01*
X136633500Y-57450000D01*
X136619500Y-57472000D01*
X136604500Y-57494000D01*
X136588500Y-57515000D01*
X136571500Y-57535000D01*
X136553500Y-57554000D01*
X136534500Y-57572000D01*
X136514500Y-57589000D01*
X136493500Y-57605000D01*
X136472500Y-57619000D01*
X136449500Y-57633000D01*
X136426500Y-57646000D01*
X136403500Y-57657000D01*
X136379500Y-57667000D01*
X136354500Y-57676000D01*
X136329500Y-57683000D01*
X136303500Y-57689000D01*
X136278500Y-57694000D01*
X136252500Y-57697000D01*
X136226500Y-57699000D01*
X136200500Y-57700000D01*
X135299500Y-57700000D01*
X135273500Y-57699000D01*
X135247500Y-57697000D01*
X135221500Y-57694000D01*
X135196500Y-57689000D01*
X135170500Y-57683000D01*
X135145500Y-57676000D01*
X135120500Y-57667000D01*
X135096500Y-57657000D01*
X135073500Y-57646000D01*
X135049500Y-57633000D01*
X135027500Y-57619000D01*
X135006500Y-57605000D01*
X134985500Y-57589000D01*
X134965500Y-57572000D01*
X134946500Y-57554000D01*
X134928500Y-57535000D01*
X134911500Y-57515000D01*
X134895500Y-57494000D01*
X134880500Y-57472000D01*
X134866500Y-57450000D01*
X134854500Y-57427000D01*
X134843500Y-57403000D01*
X134833500Y-57379000D01*
X134824500Y-57355000D01*
X134817500Y-57329000D01*
X134810500Y-57304000D01*
X134806500Y-57278000D01*
X134802500Y-57252000D01*
X134800500Y-57226000D01*
X134799500Y-57200000D01*
X134800000Y-55625000D01*
X136699500Y-55625000D01*
X136699500Y-57200000D01*
G37*
%TD.AperFunction*%
%TD*%
D11*
%TO.P,R6,1*%
%TO.N,+BATT*%
X189269500Y-43457500D03*
%TO.P,R6,2*%
%TO.N,GND*%
X188380500Y-43457500D03*
%TD*%
D12*
%TO.P,R5,1*%
%TO.N,Net-(U3-ISET)*%
X185495000Y-48875000D03*
%TO.P,R5,2*%
%TO.N,GND*%
X183855000Y-48875000D03*
%TD*%
D13*
%TO.P,L4,1,K*%
%TO.N,Net-(L4-K)*%
X190025000Y-49725000D03*
%TO.P,L4,2,A*%
%TO.N,Net-(L4-A)*%
X190025000Y-51825000D03*
%TD*%
D14*
%TO.P,C6,1*%
%TO.N,GND*%
X173700000Y-58800000D03*
%TO.P,C6,2*%
%TO.N,Net-(O1-Shield)*%
X173700000Y-59440000D03*
%TD*%
D15*
%TO.P,M2,1*%
%TO.N,+BATT*%
X161445000Y-49590000D03*
%TO.P,M2,2*%
%TO.N,GND*%
X159545000Y-49590000D03*
%TO.P,M2,3*%
%TO.N,-BATT*%
X160495000Y-52100000D03*
%TD*%
D16*
%TO.P,M1,1*%
%TO.N,Net-(I1-VBUS)*%
X143975000Y-50950000D03*
%TO.P,M1,2*%
%TO.N,+6V*%
X143975000Y-49050000D03*
%TO.P,M1,3*%
%TO.N,Net-(U1-VIN)*%
X141875000Y-50000000D03*
%TD*%
D17*
%TO.P,C4,1*%
%TO.N,Net-(U3-EN)*%
X163875000Y-57100000D03*
%TO.P,C4,2*%
%TO.N,GND*%
X163875000Y-55200000D03*
%TD*%
D18*
%TO.P,D1,A*%
%TO.N,Net-(I1-VBUS)*%
X147450000Y-50340000D03*
%TO.P,D1,C*%
%TO.N,Net-(U1-VIN)*%
X147450000Y-46110000D03*
%TD*%
D19*
%TO.P,C1,1*%
%TO.N,Net-(O1-GND)*%
X185725000Y-44850000D03*
%TO.P,C1,2*%
%TO.N,GND*%
X183825000Y-44850000D03*
%TD*%
D20*
%TO.P,C2a1,1*%
%TO.N,Net-(U1-VIN)*%
X148850000Y-42670000D03*
%TO.P,C2a1,2*%
%TO.N,GND*%
X148850000Y-43530000D03*
%TD*%
D21*
%TO.P,C2,1*%
%TO.N,+BATT*%
X164845000Y-49755000D03*
%TO.P,C2,2*%
%TO.N,GND*%
X165705000Y-49755000D03*
%TD*%
D22*
%TO.P,R1b1,1*%
%TO.N,Net-(O1-GND)*%
X188000000Y-52810000D03*
%TO.P,R1b1,2*%
%TO.N,Net-(L4-A)*%
X188000000Y-51790000D03*
%TD*%
D23*
%TO.P,R1a1,1*%
%TO.N,Net-(U1-VIN)*%
X166470000Y-42660000D03*
%TO.P,R1a1,2*%
%TO.N,Net-(L1-A)*%
X166470000Y-43680000D03*
%TD*%
D24*
%TO.P,TP4,1,1*%
%TO.N,-BATT*%
X152400000Y-58375000D03*
%TD*%
D25*
%TO.P,U2,1,SW*%
%TO.N,Net-(U2-SW)*%
X169645000Y-52937500D03*
%TO.P,U2,2,GND*%
%TO.N,GND*%
X169645000Y-51987500D03*
%TO.P,U2,3,FB*%
%TO.N,Net-(U2-FB)*%
X169645000Y-51037500D03*
%TO.P,U2,4,EN*%
%TO.N,+BATT*%
X167305000Y-51037500D03*
%TO.P,U2,5,IN*%
X167305000Y-51987500D03*
%TO.P,U2,6,NC*%
%TO.N,unconnected-(U2-NC-Pad6)*%
X167305000Y-52937500D03*
%TD*%
D26*
%TO.P,TP1,1,1*%
%TO.N,+6V*%
X143100000Y-43200000D03*
%TD*%
D27*
%TO.P,R2,1*%
%TO.N,Net-(U1-ISET)*%
X153145000Y-44232500D03*
%TO.P,R2,2*%
%TO.N,GND*%
X153145000Y-46057500D03*
%TD*%
D28*
%TO.P,C6a1,1*%
%TO.N,Net-(C6a1-Pad1)*%
X141650000Y-54970000D03*
%TO.P,C6a1,2*%
%TO.N,GND*%
X141650000Y-54330000D03*
%TD*%
D29*
%TO.P,R7a1,1*%
%TO.N,Net-(R7a1-Pad1)*%
X137712500Y-46775000D03*
%TO.P,R7a1,2*%
%TO.N,Net-(L5-A)*%
X139537500Y-46775000D03*
%TD*%
D30*
%TO.P,L2,1,K*%
%TO.N,Net-(L2-K)*%
X164420000Y-47395000D03*
%TO.P,L2,2,A*%
%TO.N,Net-(L1-A)*%
X166520000Y-47395000D03*
%TD*%
%TO.P,L1,1,K*%
%TO.N,Net-(L1-K)*%
X164420000Y-45295000D03*
%TO.P,L1,2,A*%
%TO.N,Net-(L1-A)*%
X166520000Y-45295000D03*
%TD*%
D31*
%TO.P,O1,1,VBUS*%
%TO.N,GND*%
X171925000Y-59975000D03*
%TO.P,O1,2,D-*%
%TO.N,unconnected-(O1-D--Pad2)*%
X169425000Y-59975000D03*
%TO.P,O1,3,D+*%
%TO.N,unconnected-(O1-D+-Pad3)*%
X167425000Y-59975000D03*
%TO.P,O1,4,GND*%
%TO.N,Net-(O1-GND)*%
X164925000Y-59975000D03*
D32*
%TO.P,O1,5,Shield*%
%TO.N,Net-(O1-Shield)*%
X174125000Y-62725000D03*
X162725000Y-62725000D03*
%TD*%
D31*
%TO.P,O2,1,VBUS*%
%TO.N,GND*%
X189375000Y-60025000D03*
%TO.P,O2,2,D-*%
%TO.N,unconnected-(O2-D--Pad2)*%
X186875000Y-60025000D03*
%TO.P,O2,3,D+*%
%TO.N,unconnected-(O2-D+-Pad3)*%
X184875000Y-60025000D03*
%TO.P,O2,4,GND*%
%TO.N,Net-(O1-GND)*%
X182375000Y-60025000D03*
D32*
%TO.P,O2,5,Shield*%
%TO.N,Net-(O2-Shield)*%
X191575000Y-62775000D03*
X180175000Y-62775000D03*
%TD*%
D33*
%TO.P,D2,A*%
%TO.N,Net-(U2-SW)*%
X173162500Y-52525000D03*
%TO.P,D2,C*%
%TO.N,Net-(U3-EN)*%
X179962500Y-52525000D03*
%TD*%
D34*
%TO.P,U1,1,TEMP*%
%TO.N,GND*%
X156020000Y-42815000D03*
%TO.P,U1,2,ISET*%
%TO.N,Net-(U1-ISET)*%
X156020000Y-44085000D03*
%TO.P,U1,3,GND*%
%TO.N,GND*%
X156020000Y-45355000D03*
%TO.P,U1,4,VIN*%
%TO.N,Net-(U1-VIN)*%
X156020000Y-46625000D03*
%TO.P,U1,5,BAT*%
%TO.N,+BATT*%
X161420000Y-46625000D03*
%TO.P,U1,6,~{DONE}*%
%TO.N,Net-(L2-K)*%
X161420000Y-45355000D03*
%TO.P,U1,7,~{CHRG}*%
%TO.N,Net-(L1-K)*%
X161420000Y-44085000D03*
%TO.P,U1,8,FB*%
%TO.N,+BATT*%
X161420000Y-42815000D03*
%TD*%
D15*
%TO.P,M2,1*%
%TO.N,+BATT*%
X189875000Y-45265000D03*
%TO.P,M2,2*%
%TO.N,GND*%
X187975000Y-45265000D03*
%TO.P,M2,3*%
%TO.N,Net-(L4-K)*%
X188925000Y-47775000D03*
%TD*%
D35*
%TO.P,C1a1,1*%
%TO.N,Net-(U1-VIN)*%
X150925000Y-42725000D03*
%TO.P,C1a1,2*%
%TO.N,GND*%
X150925000Y-44625000D03*
%TD*%
D28*
%TO.P,C6,1*%
%TO.N,Net-(O2-Shield)*%
X192060000Y-59775000D03*
%TO.P,C6,2*%
%TO.N,GND*%
X192060000Y-59135000D03*
%TD*%
D36*
%TO.P,R3,1*%
%TO.N,Net-(U3-EN)*%
X169700000Y-55319500D03*
%TO.P,R3,2*%
%TO.N,Net-(U2-FB)*%
X169700000Y-54455500D03*
%TD*%
D37*
%TO.P,R4,1*%
%TO.N,Net-(U2-FB)*%
X166950000Y-54438500D03*
%TO.P,R4,2*%
%TO.N,GND*%
X166950000Y-55462500D03*
%TD*%
D38*
%TO.P,C3,1*%
%TO.N,+BATT*%
X152280000Y-48045000D03*
%TO.P,C3,2*%
%TO.N,GND*%
X151360000Y-48045000D03*
%TD*%
D39*
%TO.P,R7b1,1*%
%TO.N,-BATT*%
X157425000Y-52000000D03*
%TO.P,R7b1,2*%
%TO.N,Net-(L3-A)*%
X155600000Y-52000000D03*
%TD*%
D40*
%TO.P,I1,1,VBUS*%
%TO.N,Net-(I1-VBUS)*%
X138425000Y-51725000D03*
%TO.P,I1,2,D-*%
%TO.N,unconnected-(I1-D--Pad2)*%
X138425000Y-52375000D03*
%TO.P,I1,3,D+*%
%TO.N,unconnected-(I1-D+-Pad3)*%
X138425000Y-53025000D03*
%TO.P,I1,4,ID*%
%TO.N,unconnected-(I1-ID-Pad4)*%
X138425000Y-53675000D03*
%TO.P,I1,5,GND*%
%TO.N,GND*%
X138425000Y-54325000D03*
D41*
%TO.P,I1,S1,SHIELD*%
%TO.N,Net-(C6a1-Pad1)*%
X135750000Y-48850000D03*
D42*
%TO.P,I1,S2,SHIELD*%
X135750000Y-51875000D03*
%TO.P,I1,S3,SHIELD*%
X135750000Y-54175000D03*
D41*
%TO.P,I1,S4,SHIELD*%
X135750000Y-57200000D03*
D43*
%TO.P,I1,S5,SHIELD*%
X138750000Y-50800000D03*
%TO.P,I1,S6,SHIELD*%
X138750000Y-55250000D03*
%TD*%
D30*
%TO.P,L3,1,K*%
%TO.N,+BATT*%
X150975000Y-52050000D03*
%TO.P,L3,2,A*%
%TO.N,Net-(L3-A)*%
X153075000Y-52050000D03*
%TD*%
D44*
%TO.P,C5,1*%
%TO.N,Net-(U3-EN)*%
X180425000Y-47620000D03*
%TO.P,C5,2*%
%TO.N,GND*%
X180425000Y-44780000D03*
%TD*%
D45*
%TO.P,L1x1,1,1*%
%TO.N,+BATT*%
X170036000Y-46100000D03*
%TO.P,L1x1,2,2*%
%TO.N,Net-(U2-SW)*%
X174100000Y-46100000D03*
%TD*%
D46*
%TO.P,U3,1,OUT*%
%TO.N,Net-(O1-GND)*%
X185850000Y-52800000D03*
%TO.P,U3,2,GND*%
%TO.N,GND*%
X185850000Y-51850000D03*
%TO.P,U3,3,ISET*%
%TO.N,Net-(U3-ISET)*%
X185850000Y-50900000D03*
%TO.P,U3,4,EN*%
%TO.N,Net-(U3-EN)*%
X183500000Y-50900000D03*
%TO.P,U3,5,IN*%
X183500000Y-52800000D03*
%TD*%
D24*
%TO.P,TP3,1,1*%
%TO.N,+BATT*%
X145500000Y-58375000D03*
%TD*%
D26*
%TO.P,TP2,1,1*%
%TO.N,Net-(R7a1-Pad1)*%
X138850000Y-43200000D03*
%TD*%
D30*
%TO.P,L5,1,K*%
%TO.N,+6V*%
X143950000Y-46775000D03*
%TO.P,L5,2,A*%
%TO.N,Net-(L5-A)*%
X141850000Y-46775000D03*
%TD*%
D47*
%TO.P,C2,1*%
%TO.N,Net-(O1-GND)*%
X184710000Y-47025000D03*
%TO.P,C2,2*%
%TO.N,GND*%
X183850000Y-47025000D03*
%TD*%
D48*
%TO.N,GND*%
X163925000Y-53100000D03*
X158175000Y-49525000D03*
X143150000Y-54250000D03*
X166770000Y-49755000D03*
X154500000Y-45350000D03*
X182725000Y-47825000D03*
X190900000Y-57925000D03*
X180350000Y-43150000D03*
X151425000Y-46100000D03*
X174850000Y-60300000D03*
X185850000Y-43500000D03*
X183825000Y-46100000D03*
X187825000Y-50125000D03*
X165737500Y-55475000D03*
X149450000Y-44700000D03*
%TD*%
D49*
%TO.N,Net-(O1-GND)*%
X185850000Y-52800000D02*
X182550000Y-56100000D01*
X182550000Y-56100000D02*
X182550000Y-57625000D01*
X182550000Y-57625000D02*
X182575000Y-57650000D01*
%TO.N,+BATT*%
X168925000Y-44989000D02*
X170036000Y-46100000D01*
%TO.N,GND*%
X163925000Y-53100000D02*
X163925000Y-55150000D01*
D50*
X163925000Y-55150000D02*
X163875000Y-55200000D01*
D51*
%TO.N,Net-(U3-EN)*%
X169700000Y-55319500D02*
X168444500Y-56575000D01*
X168444500Y-56575000D02*
X164400000Y-56575000D01*
X164400000Y-56575000D02*
X163875000Y-57100000D01*
D50*
%TO.N,Net-(U1-VIN)*%
X158795000Y-42545000D02*
X158795000Y-45620000D01*
X151875000Y-41775000D02*
X150925000Y-42725000D01*
X166470000Y-42660000D02*
X163435000Y-42660000D01*
X163435000Y-42660000D02*
X162695000Y-41920000D01*
X148850000Y-42670000D02*
X150870000Y-42670000D01*
X147450000Y-42825000D02*
X147450000Y-46110000D01*
X150870000Y-42670000D02*
X150925000Y-42725000D01*
X162695000Y-41920000D02*
X159420000Y-41920000D01*
X159275000Y-41775000D02*
X151875000Y-41775000D01*
X145050000Y-50000000D02*
X147450000Y-47600000D01*
X159420000Y-41920000D02*
X158795000Y-42545000D01*
X147605000Y-42670000D02*
X147450000Y-42825000D01*
X159420000Y-41920000D02*
X159275000Y-41775000D01*
X157790000Y-46625000D02*
X156020000Y-46625000D01*
X141875000Y-50000000D02*
X145050000Y-50000000D01*
X147450000Y-47600000D02*
X147450000Y-46110000D01*
X158795000Y-45620000D02*
X157790000Y-46625000D01*
X148850000Y-42670000D02*
X147605000Y-42670000D01*
%TO.N,GND*%
X190925000Y-59135000D02*
X190265000Y-59135000D01*
X150925000Y-45500000D02*
X151470000Y-46045000D01*
X174850000Y-59125000D02*
X174850000Y-60300000D01*
X156020000Y-45355000D02*
X154505000Y-45355000D01*
X154495000Y-45355000D02*
X153847500Y-45355000D01*
X151470000Y-46045000D02*
X151482500Y-46057500D01*
X190900000Y-59110000D02*
X190925000Y-59135000D01*
X151360000Y-48045000D02*
X151360000Y-46155000D01*
X159530000Y-49575000D02*
X159545000Y-49590000D01*
X185850000Y-43500000D02*
X185825000Y-43525000D01*
D52*
X180425000Y-44780000D02*
X180425000Y-43225000D01*
D50*
X156020000Y-45355000D02*
X157010000Y-45355000D01*
X153847500Y-45355000D02*
X153145000Y-46057500D01*
X174525000Y-58800000D02*
X174850000Y-59125000D01*
X173100000Y-58800000D02*
X171925000Y-59975000D01*
D53*
X185825000Y-43525000D02*
X184100000Y-43525000D01*
X182725000Y-47825000D02*
X183800000Y-47825000D01*
D50*
X156890000Y-42815000D02*
X156020000Y-42815000D01*
D53*
X186900000Y-51850000D02*
X187825000Y-50925000D01*
X183825000Y-43800000D02*
X183825000Y-44850000D01*
X183850000Y-47025000D02*
X183850000Y-47775000D01*
D50*
X148850000Y-44100000D02*
X149450000Y-44700000D01*
D53*
X185850000Y-51850000D02*
X186900000Y-51850000D01*
D50*
X188380500Y-43457500D02*
X188350000Y-43457500D01*
D53*
X183825000Y-46100000D02*
X183825000Y-47000000D01*
D50*
X180205000Y-45000000D02*
X180425000Y-44780000D01*
X150925000Y-44625000D02*
X150925000Y-45500000D01*
X138450000Y-54350000D02*
X138425000Y-54325000D01*
X151415000Y-46100000D02*
X151425000Y-46100000D01*
D53*
X184100000Y-43525000D02*
X183825000Y-43800000D01*
D50*
X157010000Y-45355000D02*
X157195000Y-45170000D01*
X157195000Y-45170000D02*
X157195000Y-43120000D01*
D53*
X166962500Y-55475000D02*
X165737500Y-55475000D01*
D50*
X158175000Y-49525000D02*
X158165000Y-49535000D01*
X141650000Y-54330000D02*
X141730000Y-54250000D01*
X189375000Y-59475000D02*
X189375000Y-60025000D01*
D53*
X165705000Y-49755000D02*
X166770000Y-49755000D01*
D50*
X141630000Y-54350000D02*
X138450000Y-54350000D01*
X173700000Y-58800000D02*
X173100000Y-58800000D01*
D53*
X183825000Y-44850000D02*
X183825000Y-46100000D01*
D50*
X141730000Y-54250000D02*
X143150000Y-54250000D01*
X151425000Y-46100000D02*
X151425000Y-46090000D01*
X151425000Y-46090000D02*
X151470000Y-46045000D01*
X158185000Y-49535000D02*
X158175000Y-49525000D01*
X190900000Y-57925000D02*
X190900000Y-59110000D01*
D53*
X187975000Y-43863000D02*
X188380500Y-43457500D01*
X187975000Y-45265000D02*
X187975000Y-43863000D01*
D50*
X183800000Y-47825000D02*
X183850000Y-47775000D01*
X154505000Y-45355000D02*
X154500000Y-45350000D01*
X149525000Y-44625000D02*
X149450000Y-44700000D01*
X151482500Y-46057500D02*
X153145000Y-46057500D01*
X173700000Y-58800000D02*
X174525000Y-58800000D01*
X141650000Y-54330000D02*
X141630000Y-54350000D01*
X151360000Y-46155000D02*
X151415000Y-46100000D01*
D53*
X187637000Y-43525000D02*
X185875000Y-43525000D01*
D50*
X183850000Y-48870000D02*
X183855000Y-48875000D01*
X192060000Y-59135000D02*
X190925000Y-59135000D01*
X157195000Y-43120000D02*
X156890000Y-42815000D01*
X154500000Y-45350000D02*
X154495000Y-45355000D01*
D53*
X187975000Y-43863000D02*
X187637000Y-43525000D01*
X183850000Y-47775000D02*
X183850000Y-48870000D01*
D50*
X150925000Y-44625000D02*
X149525000Y-44625000D01*
X180425000Y-43225000D02*
X180350000Y-43150000D01*
X148850000Y-43530000D02*
X148850000Y-44100000D01*
D53*
X187825000Y-50925000D02*
X187825000Y-50125000D01*
D50*
X183825000Y-47000000D02*
X183850000Y-47025000D01*
D49*
X159445000Y-49535000D02*
X158185000Y-49535000D01*
D50*
X159545000Y-49590000D02*
X159545000Y-49595000D01*
X190265000Y-59135000D02*
X189375000Y-60025000D01*
X185875000Y-43525000D02*
X185850000Y-43500000D01*
%TO.N,Net-(O1-GND)*%
X182075000Y-60325000D02*
X182375000Y-60025000D01*
D53*
X184710000Y-52210000D02*
X185300000Y-52800000D01*
X185725000Y-44850000D02*
X185725000Y-46010000D01*
X185725000Y-46010000D02*
X184710000Y-47025000D01*
D49*
X182575000Y-57650000D02*
X182575000Y-59825000D01*
D50*
X185300000Y-52800000D02*
X185850000Y-52800000D01*
D49*
X182575000Y-59825000D02*
X182375000Y-60025000D01*
D50*
X185850000Y-52800000D02*
X185860000Y-52810000D01*
D49*
X167250000Y-57650000D02*
X164925000Y-59975000D01*
X182575000Y-57650000D02*
X167250000Y-57650000D01*
D52*
X185860000Y-52810000D02*
X188000000Y-52810000D01*
D53*
X184710000Y-47025000D02*
X184710000Y-52210000D01*
D49*
%TO.N,-BATT*%
X157425000Y-53350000D02*
X152400000Y-58375000D01*
D50*
X160395000Y-52000000D02*
X160495000Y-52100000D01*
D49*
X157425000Y-52000000D02*
X157425000Y-53350000D01*
D54*
X157425000Y-52000000D02*
X160395000Y-52000000D01*
D55*
%TO.N,Net-(U3-EN)*%
X183500000Y-50900000D02*
X183500000Y-52800000D01*
D56*
X179962500Y-52525000D02*
X183225000Y-52525000D01*
D51*
X169712500Y-55332000D02*
X169700000Y-55319500D01*
D50*
X183225000Y-52525000D02*
X183500000Y-52800000D01*
D51*
X177155500Y-55332000D02*
X179962500Y-52525000D01*
D50*
X180425000Y-47620000D02*
X180425000Y-47825000D01*
X183387500Y-52912500D02*
X183500000Y-52800000D01*
D55*
X180425000Y-47825000D02*
X183500000Y-50900000D01*
D51*
X177155500Y-55332000D02*
X169712500Y-55332000D01*
D54*
%TO.N,Net-(C6a1-Pad1)*%
X141650000Y-54970000D02*
X141650000Y-55325000D01*
X141650000Y-55325000D02*
X140850000Y-56125000D01*
X140850000Y-56125000D02*
X137700000Y-56125000D01*
X137700000Y-56125000D02*
X135750000Y-54175000D01*
D50*
%TO.N,Net-(O1-Shield)*%
X173700000Y-62300000D02*
X174125000Y-62725000D01*
X173700000Y-59440000D02*
X173700000Y-62300000D01*
X162750000Y-62825000D02*
X162725000Y-62850000D01*
%TO.N,Net-(O2-Shield)*%
X192060000Y-62290000D02*
X191575000Y-62775000D01*
X192060000Y-59775000D02*
X192060000Y-62290000D01*
D54*
%TO.N,Net-(I1-VBUS)*%
X143175000Y-51750000D02*
X138450000Y-51750000D01*
D50*
X138450000Y-51750000D02*
X138425000Y-51725000D01*
D54*
X143975000Y-50950000D02*
X146840000Y-50950000D01*
X143975000Y-50950000D02*
X143175000Y-51750000D01*
D50*
X146840000Y-50950000D02*
X147450000Y-50340000D01*
D55*
%TO.N,Net-(U2-SW)*%
X175875000Y-49812500D02*
X173162500Y-52525000D01*
D49*
X169645000Y-52937500D02*
X172750000Y-52937500D01*
D50*
X172750000Y-52937500D02*
X173162500Y-52525000D01*
D55*
X175875000Y-46225000D02*
X175875000Y-49812500D01*
X174225000Y-46225000D02*
X175875000Y-46225000D01*
D50*
X172737500Y-52950000D02*
X173162500Y-52525000D01*
D49*
X174100000Y-46100000D02*
X174225000Y-46225000D01*
D50*
%TO.N,Net-(L1-K)*%
X163210000Y-44085000D02*
X161420000Y-44085000D01*
X164420000Y-45295000D02*
X163210000Y-44085000D01*
X161430000Y-44095000D02*
X161420000Y-44085000D01*
%TO.N,Net-(L1-A)*%
X166470000Y-45245000D02*
X166520000Y-45295000D01*
X166520000Y-47395000D02*
X166520000Y-45295000D01*
X166470000Y-43680000D02*
X166470000Y-45245000D01*
%TO.N,Net-(L2-K)*%
X163070000Y-45770000D02*
X162655000Y-45355000D01*
X164420000Y-47395000D02*
X163545000Y-47395000D01*
X163070000Y-46920000D02*
X163070000Y-45770000D01*
X162655000Y-45355000D02*
X161420000Y-45355000D01*
X163545000Y-47395000D02*
X163070000Y-46920000D01*
%TO.N,Net-(L3-A)*%
X155550000Y-52050000D02*
X155600000Y-52000000D01*
X153075000Y-52050000D02*
X155550000Y-52050000D01*
D53*
%TO.N,Net-(L4-K)*%
X188925000Y-48625000D02*
X188925000Y-47775000D01*
X190025000Y-49725000D02*
X188925000Y-48625000D01*
%TO.N,Net-(L4-A)*%
X188000000Y-51790000D02*
X189990000Y-51790000D01*
D50*
X189990000Y-51790000D02*
X190025000Y-51825000D01*
%TO.N,Net-(R7a1-Pad1)*%
X137775000Y-46712500D02*
X137712500Y-46775000D01*
D49*
X138850000Y-43200000D02*
X137775000Y-44275000D01*
X137775000Y-44275000D02*
X137775000Y-46712500D01*
D50*
%TO.N,Net-(L5-A)*%
X141850000Y-46775000D02*
X139537500Y-46775000D01*
D49*
%TO.N,+BATT*%
X167305000Y-51987500D02*
X167305000Y-51037500D01*
X168350000Y-49867500D02*
X168350000Y-47786000D01*
D54*
X152280000Y-50745000D02*
X150975000Y-52050000D01*
D53*
X165125000Y-50975000D02*
X167242500Y-50975000D01*
D54*
X161420000Y-42815000D02*
X160500000Y-42815000D01*
D49*
X168350000Y-47786000D02*
X170036000Y-46100000D01*
X169125000Y-42275000D02*
X168925000Y-42475000D01*
D53*
X164845000Y-50695000D02*
X165125000Y-50975000D01*
D49*
X167305000Y-51037500D02*
X166775000Y-51037500D01*
D54*
X161445000Y-49590000D02*
X164680000Y-49590000D01*
X161445000Y-49590000D02*
X161445000Y-46650000D01*
D49*
X189269500Y-43457500D02*
X189875000Y-44063000D01*
D54*
X159050000Y-46625000D02*
X161420000Y-46625000D01*
X160195000Y-43120000D02*
X160195000Y-45480000D01*
X157630000Y-48045000D02*
X159050000Y-46625000D01*
X160500000Y-42815000D02*
X160195000Y-43120000D01*
X152280000Y-48045000D02*
X152280000Y-50745000D01*
D49*
X189269500Y-43457500D02*
X189269500Y-42944500D01*
D50*
X167242500Y-50975000D02*
X167305000Y-51037500D01*
D54*
X160195000Y-45480000D02*
X159050000Y-46625000D01*
D49*
X189875000Y-44063000D02*
X189875000Y-45265000D01*
D50*
X161445000Y-46650000D02*
X161420000Y-46625000D01*
D49*
X188600000Y-42275000D02*
X169125000Y-42275000D01*
X189269500Y-42944500D02*
X188600000Y-42275000D01*
D50*
X145500000Y-58375000D02*
X145500000Y-57525000D01*
X164845000Y-49755000D02*
X164725000Y-49875000D01*
D53*
X164845000Y-49755000D02*
X164845000Y-50695000D01*
D54*
X152280000Y-48045000D02*
X157630000Y-48045000D01*
D49*
X167242500Y-50975000D02*
X168350000Y-49867500D01*
D54*
X164680000Y-49590000D02*
X164845000Y-49755000D01*
D52*
X145500000Y-57525000D02*
X150975000Y-52050000D01*
D50*
X170036000Y-46169000D02*
X170036000Y-46100000D01*
D49*
X168925000Y-42475000D02*
X168925000Y-44989000D01*
D50*
%TO.N,Net-(U1-ISET)*%
X153292500Y-44085000D02*
X153145000Y-44232500D01*
X156020000Y-44085000D02*
X153292500Y-44085000D01*
D53*
%TO.N,Net-(U2-FB)*%
X168400000Y-54437500D02*
X169682000Y-54437500D01*
D50*
X166951000Y-54437500D02*
X166950000Y-54438500D01*
X169682000Y-54437500D02*
X169700000Y-54455500D01*
D53*
X168400000Y-54437500D02*
X166951000Y-54437500D01*
D54*
X169645000Y-51037500D02*
X168575000Y-51037500D01*
X168400000Y-51212500D02*
X168400000Y-54437500D01*
X168575000Y-51037500D02*
X168400000Y-51212500D01*
D53*
%TO.N,Net-(U3-ISET)*%
X185495000Y-50545000D02*
X185850000Y-50900000D01*
X185495000Y-48875000D02*
X185495000Y-50545000D01*
D50*
%TO.N,+6V*%
X143100000Y-43200000D02*
X143100000Y-43350000D01*
D54*
X143950000Y-46775000D02*
X143950000Y-49025000D01*
D50*
X144000000Y-46725000D02*
X143950000Y-46775000D01*
D49*
X144000000Y-44250000D02*
X144000000Y-46725000D01*
D50*
X143950000Y-49025000D02*
X143975000Y-49050000D01*
D49*
X143100000Y-43350000D02*
X144000000Y-44250000D01*
%TD*%
M02*
